# Blender v2.81 (sub 16) OBJ File: 'AllMODULE.blend'
# www.blender.org
mtllib MODULE12MILIEU.mtl
o Cube.014_Cube.020
v -5.000000 5.500000 91.067093
v -5.000000 15.500000 91.067093
v -5.000000 5.500000 81.067093
v -5.000000 15.500000 81.067093
v 5.000000 5.500000 91.067093
v 5.000000 15.500000 91.067093
v 5.000000 5.500000 81.067093
v 5.000000 15.500000 81.067093
v -5.000000 5.500000 81.485291
v -5.000000 5.500000 85.067093
v -5.000000 5.500000 87.067093
v -5.000000 5.500000 90.249268
v -5.000000 15.500000 90.249268
v -5.000000 15.500000 87.067093
v -5.000000 15.500000 85.067093
v -5.000000 15.500000 81.485291
v 5.000000 5.500000 90.249268
v 5.000000 5.500000 87.067093
v 5.000000 5.500000 85.067093
v 5.000000 5.500000 81.485291
v 5.000000 15.500000 81.485291
v 5.000000 15.500000 85.067093
v 5.000000 15.500000 87.067093
v 5.000000 15.500000 90.249268
v -5.000000 14.966218 91.067093
v -5.000000 14.966218 81.067093
v 5.000000 14.966218 81.067093
v 5.000000 14.966218 91.067093
v 5.000000 14.966218 81.485291
v 5.000000 14.966218 85.067093
v 5.000000 14.966218 87.067093
v 5.000000 14.966218 90.249268
v -5.000000 14.966218 90.249268
v -5.000000 14.966218 87.067093
v -5.000000 14.966218 85.067093
v -5.000000 14.966218 81.485291
v 4.228556 5.500000 81.067093
v 1.000000 5.500000 81.067093
v -1.000000 5.500000 81.067093
v -4.201711 5.500000 81.067093
v -4.201711 15.500000 81.067093
v -1.000000 15.500000 81.067093
v 1.000000 15.500000 81.067093
v 4.228556 15.500000 81.067093
v -4.201711 5.500000 91.067093
v -1.000000 5.500000 91.067093
v 1.000000 5.500000 91.067093
v 4.228556 5.500000 91.067093
v 4.228556 15.500000 91.067093
v 1.000000 15.500000 91.067093
v -1.000000 15.500000 91.067093
v -4.201711 15.500000 91.067093
v -4.201711 15.500000 81.485291
v -1.000000 15.500000 81.485291
v 1.000000 15.500000 81.485291
v 4.228556 15.500000 81.485291
v -4.201711 15.500000 85.067093
v -1.000000 15.500000 85.067093
v 1.000000 15.500000 85.067093
v 4.228556 15.500000 85.067093
v -4.201711 15.500000 87.067093
v -1.000000 15.500000 87.067093
v 1.000000 15.500000 87.067093
v 4.228556 15.500000 87.067093
v -4.201711 15.500000 90.249268
v -1.000000 15.500000 90.249268
v 1.000000 15.500000 90.249268
v 4.228556 15.500000 90.249268
v 4.228556 5.500000 81.485291
v 1.000000 5.500000 81.485291
v -1.000000 5.500000 81.485291
v -4.201711 5.500000 81.485291
v 4.228556 5.500000 85.067093
v 1.000000 5.500000 85.067093
v -1.000000 5.500000 85.067093
v -4.201711 5.500000 85.067093
v 4.228556 5.500000 87.067093
v 1.000000 5.500000 87.067093
v -1.000000 5.500000 87.067093
v -4.201711 5.500000 87.067093
v 4.228556 5.500000 90.249268
v 1.000000 5.500000 90.249268
v -1.000000 5.500000 90.249268
v -4.201711 5.500000 90.249268
v 4.228556 14.966218 91.067093
v 1.000000 14.966218 91.067093
v -1.000000 14.966218 91.067093
v -4.201711 14.966218 91.067093
v -4.201711 14.966218 81.067093
v -1.000000 14.966218 81.067093
v 1.000000 14.966218 81.067093
v 4.228556 14.966218 81.067093
v -5.000000 6.284002 81.067093
v 5.000000 6.284002 81.067093
v 5.000000 6.284002 91.067093
v 5.000000 6.284002 81.485291
v 5.000000 6.284002 85.067093
v 5.000000 6.284002 87.067093
v 5.000000 6.284002 90.249268
v -5.000000 6.284002 90.249268
v -5.000000 6.284002 87.067093
v -5.000000 6.284002 85.067093
v -5.000000 6.284002 81.485291
v -5.000000 6.284002 91.067093
v -4.201711 6.284002 81.067093
v -1.000000 6.284002 81.067093
v 1.000000 6.284002 81.067093
v 4.228556 6.284002 81.067093
v 4.228556 6.284002 91.067093
v 1.000000 6.284002 91.067093
v -1.000000 6.284002 91.067093
v -4.201711 6.284002 91.067093
v -5.000000 7.860143 91.067093
v -5.000000 13.390079 91.067093
v -5.000000 13.390079 81.067093
v -5.000000 7.860143 81.067093
v 5.000000 13.390079 81.067093
v 5.000000 7.860143 81.067093
v 5.000000 13.390079 91.067093
v 5.000000 7.860143 91.067093
v 5.000000 13.390079 81.485291
v 5.000000 7.860143 81.485291
v 5.000000 13.390079 85.067093
v 5.000000 7.860143 85.067093
v 5.000000 13.390079 87.067093
v 5.000000 7.860143 87.067093
v 5.000000 13.390079 90.249268
v 5.000000 7.860143 90.249268
v -5.000000 13.390079 90.249268
v -5.000000 7.860143 90.249268
v -5.000000 13.390079 87.067093
v -5.000000 7.860143 87.067093
v -5.000000 13.390079 85.067093
v -5.000000 7.860143 85.067093
v -5.000000 13.390079 81.485291
v -5.000000 7.860143 81.485291
v -4.201711 13.390079 81.067093
v -4.201711 7.860143 81.067093
v -1.000000 13.390079 81.067093
v -1.000000 7.860143 81.067093
v 1.000000 13.390079 81.067093
v 1.000000 7.860143 81.067093
v 4.228556 13.390079 81.067093
v 4.228556 7.860143 81.067093
v 4.228556 13.390079 91.067093
v 4.228556 7.860143 91.067093
v 1.000000 13.390079 91.067093
v 1.000000 7.860143 91.067093
v -1.000000 13.390079 91.067093
v -1.000000 7.860143 91.067093
v -4.201711 13.390079 91.067093
v -4.201711 7.860143 91.067093
v 4.850003 13.390079 81.485291
v 4.850003 7.860143 81.485291
v 4.850003 13.390079 85.067093
v 4.850003 7.860143 85.067093
v 4.850003 13.390079 87.067093
v 4.850003 7.860143 87.067093
v 4.850003 13.390079 90.249268
v 4.850003 7.860143 90.249268
v 4.228556 13.390079 90.917099
v 4.228556 7.860143 90.917099
v 1.000000 13.390079 90.917099
v 1.000000 7.860143 90.917099
v -1.000000 13.390079 90.917099
v -1.000000 7.860143 90.917099
v -4.201711 13.390079 90.917099
v -4.201711 7.860143 90.917099
v -5.000000 7.492377 81.067093
v 5.000000 7.492377 81.067093
v 5.000000 7.492377 91.067093
v 5.000000 7.492377 81.485291
v 5.000000 7.492377 85.067093
v 5.000000 7.492377 87.067093
v 5.000000 7.492377 90.249268
v -5.000000 7.492377 90.249268
v -5.000000 7.492377 87.067093
v -5.000000 7.492377 85.067093
v -5.000000 7.492377 81.485291
v -4.201711 7.492377 81.067093
v -1.000000 7.492377 81.067093
v 1.000000 7.492377 81.067093
v 4.228556 7.492377 81.067093
v 4.228556 7.492377 91.067093
v 1.000000 7.492377 91.067093
v -1.000000 7.492377 91.067093
v -4.201711 7.492377 91.067093
v -5.000000 7.492377 91.067093
v -1.000000 7.860143 92.190819
v -4.201711 7.860143 92.190819
v 4.228556 7.860143 92.190819
v 1.000000 7.860143 92.190819
v 6.123723 7.860143 81.485291
v 6.123723 7.860143 85.067093
v 6.123723 7.860143 87.067093
v 6.123723 7.860143 90.249268
v 6.123723 7.492377 81.485291
v 6.123723 7.492377 85.067093
v 6.123723 7.492377 87.067093
v 6.123723 7.492377 90.249268
v 4.228556 7.492377 92.190819
v 1.000000 7.492377 92.190819
v -1.000000 7.492377 92.190819
v -4.201711 7.492377 92.190819
vt 0.315206 0.652383
vt 0.332959 0.652383
vt 0.332959 0.666292
vt 0.315206 0.666292
vt 0.018127 0.026032
vt 0.000375 0.026032
vt 0.000375 0.000375
vt 0.018127 0.000375
vt 0.639093 0.351461
vt 0.639093 0.333708
vt 0.666292 0.333708
vt 0.666292 0.351461
vt 0.360258 0.315206
vt 0.360258 0.332959
vt 0.333708 0.332959
vt 0.333708 0.315206
vt 0.692698 0.027574
vt 0.667041 0.027574
vt 0.667041 0.000375
vt 0.692698 0.000375
vt 0.306409 0.972426
vt 0.332959 0.972426
vt 0.332959 0.999625
vt 0.306409 0.999625
vt 0.306409 0.667041
vt 0.332959 0.667041
vt 0.332959 0.680950
vt 0.306409 0.680950
vt 0.332959 0.800075
vt 0.306409 0.800075
vt 0.332959 0.866592
vt 0.306409 0.866592
vt 0.692698 0.332959
vt 0.667041 0.332959
vt 0.667041 0.319050
vt 0.692698 0.319050
vt 0.667041 0.199925
vt 0.692698 0.199925
vt 0.667041 0.133408
vt 0.692698 0.133408
vt 0.333708 0.351461
vt 0.333708 0.333708
vt 0.347617 0.333708
vt 0.347616 0.351461
vt 0.466742 0.333708
vt 0.466742 0.351461
vt 0.533258 0.333708
vt 0.533258 0.351461
vt 0.315206 0.333708
vt 0.332959 0.333708
vt 0.332959 0.360907
vt 0.315206 0.360908
vt 0.332959 0.466742
vt 0.315206 0.466742
vt 0.332959 0.533258
vt 0.315206 0.533258
vt 0.262786 0.533258
vt 0.262786 0.652383
vt 0.262786 0.466742
vt 0.262786 0.360908
vt 0.262786 0.333708
vt 0.533258 0.403881
vt 0.639093 0.403881
vt 0.466742 0.403881
vt 0.347616 0.403881
vt 0.333708 0.403881
vt 0.360258 0.262786
vt 0.333708 0.262786
vt 0.666292 0.403881
vt 0.070547 0.026032
vt 0.070547 0.000375
vt 0.262786 0.666292
vt 0.070547 0.332959
vt 0.018127 0.332959
vt 0.018127 0.306409
vt 0.070547 0.306409
vt 0.018127 0.199925
vt 0.070547 0.199925
vt 0.018127 0.133408
vt 0.070547 0.133408
vt 0.666292 0.262786
vt 0.666292 0.315206
vt 0.640635 0.315206
vt 0.640635 0.262786
vt 0.533258 0.315206
vt 0.533258 0.262786
vt 0.466742 0.315206
vt 0.466742 0.262786
vt 0.999625 0.133408
vt 0.973076 0.133408
vt 0.973076 0.027574
vt 0.999625 0.027574
vt 0.866592 0.133408
vt 0.866592 0.027574
vt 0.800075 0.133408
vt 0.800075 0.027574
vt 0.999625 0.199925
vt 0.973076 0.199925
vt 0.866592 0.199925
vt 0.800075 0.199925
vt 0.999625 0.319050
vt 0.973076 0.319050
vt 0.866592 0.319050
vt 0.800075 0.319050
vt 0.999625 0.332959
vt 0.973076 0.332959
vt 0.866592 0.332959
vt 0.800075 0.332959
vt 0.000375 0.866592
vt 0.026032 0.866592
vt 0.026032 0.972426
vt 0.000375 0.972426
vt 0.133408 0.866592
vt 0.133408 0.972426
vt 0.199925 0.866592
vt 0.199925 0.972426
vt 0.000375 0.800075
vt 0.026032 0.800075
vt 0.133408 0.800075
vt 0.199925 0.800075
vt 0.000375 0.680950
vt 0.026032 0.680950
vt 0.133408 0.680950
vt 0.199925 0.680950
vt 0.000375 0.667041
vt 0.026031 0.667041
vt 0.133408 0.667041
vt 0.199925 0.667041
vt 0.026032 0.999625
vt 0.000375 0.999625
vt 0.133408 0.999625
vt 0.199925 0.999625
vt 0.973076 0.000375
vt 0.999625 0.000375
vt 0.866592 0.000375
vt 0.800075 0.000375
vt 0.666292 0.332959
vt 0.640635 0.332959
vt 0.533258 0.332959
vt 0.466742 0.332959
vt 0.000375 0.332959
vt 0.000375 0.306409
vt 0.000375 0.199925
vt 0.000375 0.133408
vt 0.466742 0.000375
vt 0.466742 0.026449
vt 0.360258 0.026449
vt 0.360258 0.000375
vt 0.533258 0.000375
vt 0.533258 0.026449
vt 0.640635 0.000375
vt 0.640635 0.026449
vt 0.666292 0.000375
vt 0.666292 0.026449
vt 0.332959 0.133408
vt 0.306884 0.133408
vt 0.306884 0.026032
vt 0.332959 0.026032
vt 0.332959 0.199925
vt 0.306884 0.199925
vt 0.332959 0.306409
vt 0.306884 0.306409
vt 0.332959 0.332959
vt 0.306884 0.332959
vt 0.000375 0.652383
vt 0.026449 0.652383
vt 0.026449 0.666292
vt 0.000375 0.666292
vt 0.306884 0.000375
vt 0.332959 0.000375
vt 0.639093 0.666292
vt 0.639093 0.640218
vt 0.666292 0.640217
vt 0.666292 0.666292
vt 0.333708 0.026449
vt 0.333708 0.000375
vt 0.333708 0.666292
vt 0.333708 0.640217
vt 0.347616 0.640218
vt 0.347616 0.666292
vt 0.466742 0.640217
vt 0.466742 0.666292
vt 0.533258 0.640218
vt 0.533258 0.666292
vt 0.000375 0.333708
vt 0.026449 0.333708
vt 0.026449 0.360907
vt 0.000375 0.360907
vt 0.026449 0.466742
vt 0.000375 0.466742
vt 0.026449 0.533258
vt 0.000375 0.533258
vt 0.624957 0.775167
vt 0.637188 0.775167
vt 0.637188 0.812540
vt 0.624957 0.812540
vt 0.854073 0.703040
vt 0.854073 0.809524
vt 0.849084 0.809524
vt 0.849084 0.703040
vt 0.533258 0.066638
vt 0.533258 0.078869
vt 0.466742 0.078869
vt 0.466742 0.066638
vt 0.747526 0.703040
vt 0.747525 0.809524
vt 0.710152 0.809524
vt 0.710152 0.703040
vt 0.844988 0.517625
vt 0.844988 0.333708
vt 0.849977 0.333708
vt 0.849977 0.517625
vt 0.666292 0.066638
vt 0.666292 0.078869
vt 0.640635 0.078869
vt 0.640635 0.066638
vt 0.266695 0.133408
vt 0.254464 0.133408
vt 0.254464 0.026032
vt 0.266695 0.026032
vt 0.266695 0.199925
vt 0.254464 0.199925
vt 0.266695 0.306409
vt 0.254464 0.306409
vt 0.266695 0.332959
vt 0.254464 0.332959
vt 0.066638 0.652383
vt 0.078869 0.652383
vt 0.078869 0.666292
vt 0.066638 0.666292
vt 0.254464 0.000375
vt 0.266695 0.000375
vt 0.639093 0.600029
vt 0.639093 0.587797
vt 0.666292 0.587797
vt 0.666292 0.600029
vt 0.360258 0.066638
vt 0.360258 0.078869
vt 0.333708 0.078869
vt 0.333708 0.066638
vt 0.333708 0.600029
vt 0.333708 0.587798
vt 0.347616 0.587798
vt 0.347616 0.600029
vt 0.812540 0.333708
vt 0.812540 0.440192
vt 0.775167 0.440192
vt 0.775167 0.333708
vt 0.333708 0.825038
vt 0.517625 0.825038
vt 0.517625 0.830026
vt 0.333708 0.830026
vt 0.466742 0.600029
vt 0.466742 0.587798
vt 0.533258 0.587798
vt 0.533258 0.600029
vt 0.796374 0.808874
vt 0.796374 0.703040
vt 0.833748 0.703040
vt 0.833748 0.808874
vt 0.790637 0.808874
vt 0.790637 0.703040
vt 0.795625 0.703040
vt 0.795625 0.808874
vt 0.066638 0.333708
vt 0.078869 0.333708
vt 0.078869 0.360907
vt 0.066638 0.360907
vt 0.078869 0.466742
vt 0.066638 0.466742
vt 0.078869 0.533258
vt 0.066638 0.533258
vt 0.667041 0.702291
vt 0.667041 0.518374
vt 0.773525 0.518374
vt 0.773525 0.702291
vt 0.774418 0.333708
vt 0.774418 0.517625
vt 0.667041 0.517625
vt 0.667041 0.333708
vt 0.333708 0.667041
vt 0.517625 0.667041
vt 0.517625 0.786166
vt 0.333708 0.786166
vt 0.518374 0.850958
vt 0.518374 0.667041
vt 0.624208 0.667041
vt 0.624208 0.850958
vt 0.854822 0.624208
vt 0.854822 0.518374
vt 0.859811 0.518374
vt 0.859810 0.624208
vt 0.849084 0.702291
vt 0.849084 0.518374
vt 0.854073 0.518374
vt 0.854073 0.702291
vt 0.842597 0.624957
vt 0.842597 0.808874
vt 0.837608 0.808874
vt 0.837608 0.624957
vt 0.779263 0.518374
vt 0.779263 0.637499
vt 0.774274 0.637499
vt 0.774274 0.518374
vt 0.704414 0.810417
vt 0.704414 0.703040
vt 0.709403 0.703040
vt 0.709403 0.810417
vt 0.333708 0.830776
vt 0.517625 0.830776
vt 0.517625 0.835764
vt 0.333708 0.835764
vt 0.839251 0.517625
vt 0.839250 0.333708
vt 0.844239 0.333708
vt 0.844239 0.517625
vt 0.786166 0.816155
vt 0.667041 0.816155
vt 0.667041 0.811166
vt 0.786166 0.811166
vt 0.843346 0.810417
vt 0.843346 0.703040
vt 0.848335 0.703040
vt 0.848335 0.810417
vt 0.855715 0.333708
vt 0.855715 0.517625
vt 0.850726 0.517625
vt 0.850726 0.333708
vt 0.848335 0.518374
vt 0.848335 0.702291
vt 0.843346 0.702291
vt 0.843346 0.518374
vt 0.752514 0.703040
vt 0.752514 0.809524
vt 0.838501 0.440192
vt 0.826270 0.440192
vt 0.826270 0.333708
vt 0.838501 0.333708
vt 0.817385 0.518374
vt 0.829617 0.518374
vt 0.829617 0.625751
vt 0.817385 0.625751
vt 0.813289 0.333708
vt 0.825521 0.333708
vt 0.825521 0.452833
vt 0.813289 0.452833
vt 0.830366 0.518374
vt 0.842597 0.518374
vt 0.842597 0.624208
vt 0.830366 0.624208
vt 0.753263 0.808874
vt 0.753263 0.703040
vt 0.800235 0.638248
vt 0.812466 0.638248
vt 0.812466 0.675621
vt 0.800235 0.675621
vt 0.774274 0.638248
vt 0.786506 0.638248
vt 0.786506 0.675621
vt 0.774274 0.675621
vt 0.333708 0.786915
vt 0.452833 0.786915
vt 0.452833 0.824289
vt 0.333708 0.824289
vt 0.787398 0.478314
vt 0.775167 0.478314
vt 0.775167 0.440941
vt 0.787398 0.440941
vt 0.788148 0.479063
vt 0.800379 0.479063
vt 0.800379 0.516437
vt 0.788148 0.516437
vt 0.816636 0.518374
vt 0.816636 0.637499
vt 0.667041 0.810417
vt 0.667041 0.703040
vt 0.787398 0.516437
vt 0.775167 0.516437
vt 0.775167 0.479063
vt 0.787398 0.479063
vt 0.624957 0.774418
vt 0.624957 0.667041
vt 0.662330 0.667041
vt 0.662330 0.774418
vt 0.788148 0.440941
vt 0.800379 0.440941
vt 0.800379 0.478314
vt 0.788148 0.478314
vt 0.787255 0.638248
vt 0.799486 0.638248
vt 0.799486 0.675621
vt 0.787255 0.675621
vn -1.0000 0.0000 0.0000
vn 0.0000 0.0000 -1.0000
vn 1.0000 0.0000 0.0000
vn 0.0000 0.0000 1.0000
vn 0.0000 -1.0000 0.0000
vn 0.0000 1.0000 0.0000
usemtl None
s off
f 36/1/1 16/2/1 4/3/1 26/4/1
f 92/5/2 44/6/2 8/7/2 27/8/2
f 32/9/3 24/10/3 6/11/3 28/12/3
f 88/13/4 52/14/4 2/15/4 25/16/4
f 81/17/5 17/18/5 5/19/5 48/20/5
f 65/21/6 13/22/6 2/23/6 52/24/6
f 41/25/6 4/26/6 16/27/6 53/28/6
f 53/28/6 16/27/6 15/29/6 57/30/6
f 57/30/6 15/29/6 14/31/6 61/32/6
f 61/32/6 14/31/6 13/22/6 65/21/6
f 37/33/5 7/34/5 20/35/5 69/36/5
f 69/36/5 20/35/5 19/37/5 73/38/5
f 73/38/5 19/37/5 18/39/5 77/40/5
f 77/40/5 18/39/5 17/18/5 81/17/5
f 27/41/3 8/42/3 21/43/3 29/44/3
f 29/44/3 21/43/3 22/45/3 30/46/3
f 30/46/3 22/45/3 23/47/3 31/48/3
f 31/48/3 23/47/3 24/10/3 32/9/3
f 25/49/1 2/50/1 13/51/1 33/52/1
f 33/52/1 13/51/1 14/53/1 34/54/1
f 34/54/1 14/53/1 15/55/1 35/56/1
f 35/56/1 15/55/1 16/2/1 36/1/1
f 133/57/1 35/56/1 36/1/1 135/58/1
f 131/59/1 34/54/1 35/56/1 133/57/1
f 129/60/1 33/52/1 34/54/1 131/59/1
f 114/61/1 25/49/1 33/52/1 129/60/1
f 125/62/3 31/48/3 32/9/3 127/63/3
f 123/64/3 30/46/3 31/48/3 125/62/3
f 121/65/3 29/44/3 30/46/3 123/64/3
f 117/66/3 27/41/3 29/44/3 121/65/3
f 151/67/4 88/13/4 25/16/4 114/68/4
f 127/63/3 32/9/3 28/12/3 119/69/3
f 143/70/2 92/5/2 27/8/2 117/71/2
f 135/58/1 36/1/1 26/4/1 115/72/1
f 115/73/2 26/74/2 89/75/2 137/76/2
f 137/76/2 89/75/2 90/77/2 139/78/2
f 139/78/2 90/77/2 91/79/2 141/80/2
f 141/80/2 91/79/2 92/5/2 143/70/2
f 119/81/4 28/82/4 85/83/4 145/84/4
f 145/84/4 85/83/4 86/85/4 147/86/4
f 147/86/4 86/85/4 87/87/4 149/88/4
f 149/88/4 87/87/4 88/13/4 151/67/4
f 11/89/5 80/90/5 84/91/5 12/92/5
f 80/90/5 79/93/5 83/94/5 84/91/5
f 79/93/5 78/95/5 82/96/5 83/94/5
f 78/95/5 77/40/5 81/17/5 82/96/5
f 10/97/5 76/98/5 80/90/5 11/89/5
f 76/98/5 75/99/5 79/93/5 80/90/5
f 75/99/5 74/100/5 78/95/5 79/93/5
f 74/100/5 73/38/5 77/40/5 78/95/5
f 9/101/5 72/102/5 76/98/5 10/97/5
f 72/102/5 71/103/5 75/99/5 76/98/5
f 71/103/5 70/104/5 74/100/5 75/99/5
f 70/104/5 69/36/5 73/38/5 74/100/5
f 3/105/5 40/106/5 72/102/5 9/101/5
f 40/106/5 39/107/5 71/103/5 72/102/5
f 39/107/5 38/108/5 70/104/5 71/103/5
f 38/108/5 37/33/5 69/36/5 70/104/5
f 23/109/6 64/110/6 68/111/6 24/112/6
f 64/110/6 63/113/6 67/114/6 68/111/6
f 63/113/6 62/115/6 66/116/6 67/114/6
f 62/115/6 61/32/6 65/21/6 66/116/6
f 22/117/6 60/118/6 64/110/6 23/109/6
f 60/118/6 59/119/6 63/113/6 64/110/6
f 59/119/6 58/120/6 62/115/6 63/113/6
f 58/120/6 57/30/6 61/32/6 62/115/6
f 21/121/6 56/122/6 60/118/6 22/117/6
f 56/122/6 55/123/6 59/119/6 60/118/6
f 55/123/6 54/124/6 58/120/6 59/119/6
f 54/124/6 53/28/6 57/30/6 58/120/6
f 8/125/6 44/126/6 56/122/6 21/121/6
f 44/126/6 43/127/6 55/123/6 56/122/6
f 43/127/6 42/128/6 54/124/6 55/123/6
f 42/128/6 41/25/6 53/28/6 54/124/6
f 24/112/6 68/111/6 49/129/6 6/130/6
f 68/111/6 67/114/6 50/131/6 49/129/6
f 67/114/6 66/116/6 51/132/6 50/131/6
f 66/116/6 65/21/6 52/24/6 51/132/6
f 12/92/5 84/91/5 45/133/5 1/134/5
f 84/91/5 83/94/5 46/135/5 45/133/5
f 83/94/5 82/96/5 47/136/5 46/135/5
f 82/96/5 81/17/5 48/20/5 47/136/5
f 28/82/4 6/137/4 49/138/4 85/83/4
f 85/83/4 49/138/4 50/139/4 86/85/4
f 86/85/4 50/139/4 51/140/4 87/87/4
f 87/87/4 51/140/4 52/14/4 88/13/4
f 26/74/2 4/141/2 41/142/2 89/75/2
f 89/75/2 41/142/2 42/143/2 90/77/2
f 90/77/2 42/143/2 43/144/2 91/79/2
f 91/79/2 43/144/2 44/6/2 92/5/2
f 46/145/4 111/146/4 112/147/4 45/148/4
f 47/149/4 110/150/4 111/146/4 46/145/4
f 48/151/4 109/152/4 110/150/4 47/149/4
f 5/153/4 95/154/4 109/152/4 48/151/4
f 38/155/2 107/156/2 108/157/2 37/158/2
f 39/159/2 106/160/2 107/156/2 38/155/2
f 40/161/2 105/162/2 106/160/2 39/159/2
f 3/163/2 93/164/2 105/162/2 40/161/2
f 9/165/1 103/166/1 93/167/1 3/168/1
f 37/158/2 108/157/2 94/169/2 7/170/2
f 17/171/3 99/172/3 95/173/3 5/174/3
f 45/148/4 112/147/4 104/175/4 1/176/4
f 7/177/3 94/178/3 96/179/3 20/180/3
f 20/180/3 96/179/3 97/181/3 19/182/3
f 19/182/3 97/181/3 98/183/3 18/184/3
f 18/184/3 98/183/3 99/172/3 17/171/3
f 1/185/1 104/186/1 100/187/1 12/188/1
f 12/188/1 100/187/1 101/189/1 11/190/1
f 11/190/1 101/189/1 102/191/1 10/192/1
f 10/192/1 102/191/1 103/166/1 9/165/1
f 186/193/3 150/194/3 189/195/3 203/196/3
f 149/197/5 151/198/5 167/199/5 165/200/5
f 185/201/4 148/202/4 150/203/4 186/204/4
f 148/202/4 147/86/4 149/88/4 150/203/4
f 150/205/6 152/206/6 190/207/6 189/208/6
f 123/209/2 124/210/2 156/211/2 155/212/2
f 171/213/4 120/214/4 146/215/4 184/216/4
f 120/214/4 119/81/4 145/84/4 146/215/4
f 182/217/2 142/218/2 144/219/2 183/220/2
f 142/218/2 141/80/2 143/70/2 144/219/2
f 181/221/2 140/222/2 142/218/2 182/217/2
f 140/222/2 139/78/2 141/80/2 142/218/2
f 180/223/2 138/224/2 140/222/2 181/221/2
f 138/224/2 137/76/2 139/78/2 140/222/2
f 169/225/2 116/226/2 138/224/2 180/223/2
f 116/226/2 115/73/2 137/76/2 138/224/2
f 179/227/1 136/228/1 116/229/1 169/230/1
f 136/228/1 135/58/1 115/72/1 116/229/1
f 183/220/2 144/219/2 118/231/2 170/232/2
f 144/219/2 143/70/2 117/71/2 118/231/2
f 175/233/3 128/234/3 120/235/3 171/236/3
f 128/234/3 127/63/3 119/69/3 120/235/3
f 187/237/4 152/238/4 113/239/4 188/240/4
f 152/238/4 151/67/4 114/68/4 113/239/4
f 170/241/3 118/242/3 122/243/3 172/244/3
f 118/242/3 117/66/3 121/65/3 122/243/3
f 187/245/5 186/246/5 203/247/5 204/248/5
f 146/249/1 145/250/1 161/251/1 162/252/1
f 173/253/3 124/254/3 126/255/3 174/256/3
f 124/254/3 123/64/3 125/62/3 126/255/3
f 175/257/5 174/258/5 199/259/5 200/260/5
f 128/261/6 126/262/6 158/263/6 160/264/6
f 188/265/1 113/266/1 130/267/1 176/268/1
f 113/266/1 114/61/1 129/60/1 130/267/1
f 176/268/1 130/267/1 132/269/1 177/270/1
f 130/267/1 129/60/1 131/59/1 132/269/1
f 177/270/1 132/269/1 134/271/1 178/272/1
f 132/269/1 131/59/1 133/57/1 134/271/1
f 178/272/1 134/271/1 136/228/1 179/227/1
f 134/271/1 133/57/1 135/58/1 136/228/1
f 166/273/4 165/274/4 167/275/4 168/276/4
f 162/277/4 161/278/4 163/279/4 164/280/4
f 154/281/3 153/282/3 155/283/3 156/284/3
f 158/285/3 157/286/3 159/287/3 160/288/3
f 125/289/5 127/290/5 159/291/5 157/292/5
f 147/293/3 148/294/3 164/295/3 163/296/3
f 126/297/4 125/298/4 157/299/4 158/300/4
f 124/301/6 122/302/6 154/303/6 156/304/6
f 148/305/6 146/306/6 162/307/6 164/308/6
f 150/309/1 149/310/1 165/311/1 166/312/1
f 127/313/2 128/314/2 160/315/2 159/316/2
f 121/317/5 123/318/5 155/319/5 153/320/5
f 145/321/5 147/322/5 163/323/5 161/324/5
f 122/325/4 121/326/4 153/327/4 154/328/4
f 151/329/3 152/330/3 168/331/3 167/332/3
f 152/206/6 150/205/6 166/333/6 168/334/6
f 102/191/1 178/272/1 179/227/1 103/166/1
f 101/189/1 177/270/1 178/272/1 102/191/1
f 100/187/1 176/268/1 177/270/1 101/189/1
f 104/186/1 188/265/1 176/268/1 100/187/1
f 98/183/3 174/256/3 175/233/3 99/172/3
f 97/181/3 173/253/3 174/256/3 98/183/3
f 96/179/3 172/244/3 173/253/3 97/181/3
f 94/178/3 170/241/3 172/244/3 96/179/3
f 112/147/4 187/237/4 188/240/4 104/175/4
f 99/172/3 175/233/3 171/236/3 95/173/3
f 108/157/2 183/220/2 170/232/2 94/169/2
f 103/166/1 179/227/1 169/230/1 93/167/1
f 93/164/2 169/225/2 180/223/2 105/162/2
f 105/162/2 180/223/2 181/221/2 106/160/2
f 106/160/2 181/221/2 182/217/2 107/156/2
f 107/156/2 182/217/2 183/220/2 108/157/2
f 95/154/4 171/213/4 184/216/4 109/152/4
f 109/152/4 184/216/4 185/201/4 110/150/4
f 110/150/4 185/201/4 186/204/4 111/146/4
f 111/146/4 186/204/4 187/237/4 112/147/4
f 203/335/4 189/336/4 190/337/4 204/338/4
f 201/339/4 191/340/4 192/341/4 202/342/4
f 197/343/3 193/344/3 194/345/3 198/346/3
f 199/347/3 195/348/3 196/349/3 200/350/3
f 126/262/6 128/261/6 196/351/6 195/352/6
f 172/353/2 122/354/2 193/355/2 197/356/2
f 152/357/1 187/358/1 204/359/1 190/360/1
f 173/361/5 172/362/5 197/363/5 198/364/5
f 124/365/4 173/366/4 198/367/4 194/368/4
f 174/369/2 126/370/2 195/371/2 199/372/2
f 122/302/6 124/301/6 194/373/6 193/374/6
f 146/306/6 148/305/6 192/375/6 191/376/6
f 128/377/4 175/378/4 200/379/4 196/380/4
f 185/381/5 184/382/5 201/383/5 202/384/5
f 184/385/3 146/386/3 191/387/3 201/388/3
f 148/389/1 185/390/1 202/391/1 192/392/1
