# Blender v2.81 (sub 16) OBJ File: 'AllMODULE (2).blend'
# www.blender.org
mtllib 444444.mtl
o Cube.155_Cube.157
v -6.634090 10.000000 98.498772
v -6.634090 20.000000 98.498772
v -6.634090 10.000000 78.498772
v -6.634090 20.000000 78.498772
v 13.365910 10.000000 98.498772
v 13.365910 20.000000 98.498772
v 13.365910 10.000000 78.498772
v 13.365910 20.000000 78.498772
v -6.634090 10.000000 91.356522
v -6.634090 10.000000 96.253548
v -6.634090 20.000000 96.253548
v -6.634090 20.000000 91.356522
v 13.365910 10.000000 96.253548
v 13.365910 10.000000 91.356522
v 13.365910 20.000000 91.356522
v 13.365910 20.000000 96.253548
v -6.634090 13.367249 98.498772
v -6.634090 18.962593 98.498772
v -6.634090 18.962593 78.498772
v -6.634090 13.367249 78.498772
v 13.365910 18.962593 78.498772
v 13.365910 13.367249 78.498772
v 13.365910 18.962593 98.498772
v 13.365910 13.367249 98.498772
v 13.365910 18.962593 91.356522
v 13.365910 13.367249 91.356522
v 13.365910 18.962593 96.253548
v 13.365910 13.367249 96.253548
v -6.634090 18.962593 96.253548
v -6.634090 13.367249 96.253548
v -6.634090 18.962593 91.356522
v -6.634090 13.367249 91.356522
v -6.634090 20.000000 86.084335
v -6.634090 20.000000 79.843575
v 13.365910 10.000000 86.084335
v 13.365910 10.000000 79.843575
v -6.634090 10.000000 79.843575
v -6.634090 10.000000 86.084335
v 13.365910 20.000000 79.843575
v 13.365910 20.000000 86.084335
v 13.365910 13.367249 79.843575
v 13.365910 13.367249 86.084335
v 13.365910 18.962593 79.843575
v 13.365910 18.962593 86.084335
v -6.634090 13.367249 86.084335
v -6.634090 13.367249 79.843575
v -6.634090 18.962593 86.084335
v -6.634090 18.962593 79.843575
v -6.634090 16.349382 98.498772
v -6.634090 16.349382 78.498772
v 13.365910 16.349382 78.498772
v 13.365910 16.349382 98.498772
v 13.365910 16.349382 91.356522
v 13.365910 16.349382 96.253548
v -6.634090 16.349382 96.253548
v -6.634090 16.349382 91.356522
v -6.634090 16.349382 86.084335
v -6.634090 16.349382 79.843575
v 13.365910 16.349382 79.843575
v 13.365910 16.349382 86.084335
v 12.875341 13.367249 79.843575
v 12.875341 13.367249 86.084335
v 12.875341 18.962593 79.843575
v 12.875341 18.962593 86.084335
v 12.875341 16.349382 79.843575
v 12.875341 16.349382 86.084335
v 1.412793 10.000000 78.498772
v -5.253874 10.000000 78.498772
v -5.253874 20.000000 78.498772
v 1.412793 20.000000 78.498772
v -5.253874 10.000000 98.498772
v 1.412793 10.000000 98.498772
v 1.412793 20.000000 98.498772
v -5.253874 20.000000 98.498772
v -5.253874 20.000000 91.356522
v 1.412793 20.000000 91.356522
v -5.253874 20.000000 96.253548
v 1.412793 20.000000 96.253548
v 1.412793 10.000000 91.356522
v -5.253874 10.000000 91.356522
v 1.412793 10.000000 96.253548
v -5.253874 10.000000 96.253548
v 1.412793 13.367249 98.498772
v -5.253874 13.367249 98.498772
v 1.412793 18.962593 98.498772
v -5.253874 18.962593 98.498772
v -5.253874 13.367249 78.498772
v 1.412793 13.367249 78.498772
v -5.253874 18.962593 78.498772
v 1.412793 18.962593 78.498772
v 1.412793 10.000000 79.843575
v -5.253874 10.000000 79.843575
v 1.412793 10.000000 86.084335
v -5.253874 10.000000 86.084335
v -5.253874 20.000000 79.843575
v 1.412793 20.000000 79.843575
v -5.253874 20.000000 86.084335
v 1.412793 20.000000 86.084335
v -5.253874 16.349382 78.498772
v 1.412793 16.349382 78.498772
v 1.412793 16.349382 98.498772
v -5.253874 16.349382 98.498772
v 1.412793 13.367249 98.267250
v -5.253874 13.367249 98.267250
v 1.412793 18.962593 98.267250
v -5.253874 18.962593 98.267250
v 1.412793 16.349382 98.267250
v -5.253874 16.349382 98.267250
v -6.634090 19.481297 98.498772
v -6.634090 19.481297 78.498772
v 13.365910 19.481297 78.498772
v 13.365910 19.481297 98.498772
v 13.365910 19.481297 91.356522
v 13.365910 19.481297 96.253548
v -6.634090 19.481297 96.253548
v -6.634090 19.481297 91.356522
v 13.365910 19.481297 79.843575
v 13.365910 19.481297 86.084335
v -6.634090 19.481297 86.084335
v -6.634090 19.481297 79.843575
v 1.412793 19.481297 98.498772
v -5.253874 19.481297 98.498772
v -5.253874 19.481297 78.498772
v 1.412793 19.481297 78.498772
v -6.634090 19.481297 99.269417
v -6.634090 20.000000 99.269417
v 14.136554 20.000000 96.253548
v 14.136555 20.000000 99.269417
v -5.253874 20.000000 99.269417
v 14.136554 20.000000 86.084335
v 14.136554 20.000000 91.356522
v 14.136554 20.000000 78.498772
v 14.136554 20.000000 79.843575
v 1.412793 20.000000 99.269417
v 14.136554 19.481297 78.498772
v 14.136555 19.481297 99.269417
v 14.136554 19.481297 91.356522
v 14.136554 19.481297 96.253548
v 14.136554 19.481297 79.843575
v 14.136554 19.481297 86.084335
v 1.412793 19.481297 99.269417
v -5.253874 19.481297 99.269417
vt 0.583333 0.201587
vt 0.625000 0.201587
vt 0.625000 0.250000
vt 0.583333 0.250000
vt 0.583333 0.350586
vt 0.625000 0.350586
vt 0.625000 0.500000
vt 0.583333 0.500000
vt 0.625000 0.548413
vt 0.625000 0.548413
vt 0.625000 0.500000
vt 0.583333 0.500000
vt 0.225586 0.728571
vt 0.375000 0.728571
vt 0.375000 0.750000
vt 0.225586 0.750000
vt 0.857747 0.728571
vt 0.875000 0.728571
vt 0.875000 0.750000
vt 0.857747 0.750000
vt 0.857747 0.596825
vt 0.875000 0.596825
vt 0.875000 0.645238
vt 0.857747 0.645238
vt 0.225586 0.596825
vt 0.375000 0.596825
vt 0.375000 0.645238
vt 0.225586 0.645237
vt 0.625000 0.645238
vt 0.625000 0.728571
vt 0.625000 0.728571
vt 0.625000 0.645238
vt 0.875000 0.750000
vt 0.857747 0.750000
vt 0.583333 0.000000
vt 0.625000 0.000000
vt 0.625000 0.021429
vt 0.583333 0.021429
vt 0.625000 0.104762
vt 0.583333 0.104762
vt 0.375000 0.021429
vt 0.458333 0.021429
vt 0.458333 0.104762
vt 0.375000 0.104762
vt 0.502747 0.021429
vt 0.541667 0.021429
vt 0.541667 0.104762
vt 0.502747 0.104762
vt 0.375000 0.000000
vt 0.458333 0.000000
vt 0.502747 0.000000
vt 0.541667 0.000000
vt 0.502747 0.645238
vt 0.541667 0.645238
vt 0.541667 0.728571
vt 0.502747 0.728571
vt 0.458333 0.596825
vt 0.458333 0.645238
vt 0.502747 0.596825
vt 0.541667 0.596825
vt 0.375000 0.982747
vt 0.458333 0.982747
vt 0.458333 1.000000
vt 0.375000 1.000000
vt 0.502747 0.982747
vt 0.541667 0.982747
vt 0.541667 1.000000
vt 0.502747 1.000000
vt 0.458333 0.728571
vt 0.458333 0.750000
vt 0.541667 0.750000
vt 0.502747 0.750000
vt 0.375000 0.350586
vt 0.458333 0.350586
vt 0.458333 0.500000
vt 0.375000 0.500000
vt 0.502747 0.350586
vt 0.541667 0.350586
vt 0.541667 0.500000
vt 0.502747 0.500000
vt 0.375000 0.201587
vt 0.458333 0.201587
vt 0.458333 0.250000
vt 0.375000 0.250000
vt 0.502747 0.201587
vt 0.541667 0.201587
vt 0.541667 0.250000
vt 0.502747 0.250000
vt 0.541667 0.153175
vt 0.502747 0.153175
vt 0.458333 0.153175
vt 0.375000 0.153175
vt 0.541667 0.548413
vt 0.502747 0.548413
vt 0.458333 0.548413
vt 0.502747 0.548413
vt 0.541667 0.548413
vt 0.541667 0.596825
vt 0.502747 0.596825
vt 0.458333 0.596825
vt 0.458333 0.548413
vt 0.375000 0.548413
vt 0.583333 0.548413
vt 0.583333 0.548413
vt 0.625000 0.596825
vt 0.625000 0.596825
vt 0.225586 0.500000
vt 0.225586 0.548412
vt 0.857747 0.500000
vt 0.875000 0.500000
vt 0.875000 0.548413
vt 0.857747 0.548413
vt 0.625000 0.153175
vt 0.583333 0.153175
vt 0.502747 0.899414
vt 0.458333 0.899414
vt 0.541667 0.899414
vt 0.541667 0.899414
vt 0.502747 0.899414
vt 0.502747 0.267253
vt 0.458333 0.267253
vt 0.774414 0.548412
vt 0.774414 0.596825
vt 0.774414 0.500000
vt 0.125000 0.548413
vt 0.142253 0.548413
vt 0.142253 0.596825
vt 0.125000 0.596825
vt 0.125000 0.500000
vt 0.142253 0.500000
vt 0.541667 0.267253
vt 0.375000 0.267253
vt 0.458333 0.899414
vt 0.541667 0.982747
vt 0.502747 0.982747
vt 0.458333 0.982747
vt 0.375000 0.899414
vt 0.125000 0.645238
vt 0.142253 0.645238
vt 0.142253 0.728571
vt 0.125000 0.728571
vt 0.774414 0.645237
vt 0.774414 0.728571
vt 0.774414 0.750000
vt 0.625000 0.750000
vt 0.142253 0.750000
vt 0.125000 0.750000
vt 0.583333 0.596825
vt 0.583333 0.596825
vt 0.583333 0.750000
vt 0.583333 0.728571
vt 0.583333 0.728571
vt 0.583333 0.750000
vt 0.625000 0.267253
vt 0.583333 0.267253
vt 0.583333 0.899414
vt 0.583333 0.982747
vt 0.583333 0.645238
vt 0.583333 1.000000
vt 0.625000 0.750000
vt 0.583333 0.982747
vt 0.625000 0.982747
vt 0.625000 1.000000
vt 0.583333 1.000000
vt 0.583333 0.645238
vt 0.625000 0.899414
vt 0.583333 0.899414
vt 0.774414 0.750000
vt 0.583333 0.000000
vt 0.625000 0.000000
vn -1.0000 0.0000 0.0000
vn 0.0000 0.0000 -1.0000
vn 0.0000 1.0000 0.0000
vn 0.0000 -1.0000 0.0000
vn 1.0000 0.0000 0.0000
vn 0.0000 0.0000 1.0000
usemtl None
s off
f 120/1/1 34/2/1 4/3/1 110/4/1
f 124/5/2 70/6/2 8/7/2 111/8/2
f 8/7/3 39/9/3 133/10/3 132/11/3
f 111/8/2 8/7/2 132/11/2 135/12/2
f 81/13/4 13/14/4 5/15/4 72/16/4
f 77/17/3 11/18/3 2/19/3 74/20/3
f 97/21/3 33/22/3 12/23/3 75/24/3
f 75/24/3 12/23/3 11/18/3 77/17/3
f 93/25/4 35/26/4 14/27/4 79/28/4
f 79/28/4 14/27/4 13/14/4 81/13/4
f 15/29/3 16/30/3 127/31/3 131/32/3
f 74/20/3 2/19/3 126/33/3 129/34/3
f 109/35/1 2/36/1 11/37/1 115/38/1
f 115/38/1 11/37/1 12/39/1 116/40/1
f 10/41/1 30/42/1 32/43/1 9/44/1
f 55/45/1 29/46/1 31/47/1 56/48/1
f 1/49/1 17/50/1 30/42/1 10/41/1
f 49/51/1 18/52/1 29/46/1 55/45/1
f 53/53/5 25/54/5 27/55/5 54/56/5
f 35/26/5 42/57/5 26/58/5 14/27/5
f 60/59/5 44/60/5 25/54/5 53/53/5
f 71/61/6 84/62/6 17/63/6 1/64/6
f 102/65/6 86/66/6 18/67/6 49/68/6
f 13/14/5 28/69/5 24/70/5 5/15/5
f 54/56/5 27/55/5 23/71/5 52/72/5
f 67/73/2 88/74/2 22/75/2 7/76/2
f 100/77/2 90/78/2 21/79/2 51/80/2
f 37/81/1 46/82/1 20/83/1 3/84/1
f 58/85/1 48/86/1 19/87/1 50/88/1
f 56/48/1 31/47/1 47/89/1 57/90/1
f 57/90/1 47/89/1 48/86/1 58/85/1
f 9/44/1 32/43/1 45/91/1 38/92/1
f 38/92/1 45/91/1 46/82/1 37/81/1
f 51/80/5 21/79/5 43/93/5 59/94/5
f 61/95/5 65/96/5 63/97/5 64/98/5 66/99/5 62/100/5
f 7/76/5 22/75/5 41/101/5 36/102/5
f 36/102/5 41/101/5 42/57/5 35/26/5
f 117/103/4 111/8/4 135/12/4 139/104/4
f 40/105/3 15/29/3 131/32/3 130/106/3
f 67/107/4 7/76/4 36/102/4 91/108/4
f 91/108/4 36/102/4 35/26/4 93/25/4
f 69/109/3 4/110/3 34/111/3 95/112/3
f 95/112/3 34/111/3 33/22/3 97/21/3
f 116/40/1 12/39/1 33/113/1 119/114/1
f 119/114/1 33/113/1 34/2/1 120/1/1
f 59/94/6 43/93/6 63/97/6 65/96/6
f 22/75/5 51/80/5 59/94/5 41/101/5
f 45/91/1 57/90/1 58/85/1 46/82/1
f 32/43/1 56/48/1 57/90/1 45/91/1
f 46/82/1 58/85/1 50/88/1 20/83/1
f 88/74/2 100/77/2 51/80/2 22/75/2
f 28/69/5 54/56/5 52/72/5 24/70/5
f 84/62/6 102/65/6 49/68/6 17/63/6
f 42/57/5 60/59/5 53/53/5 26/58/5
f 17/50/1 49/51/1 55/45/1 30/42/1
f 30/42/1 55/45/1 56/48/1 32/43/1
f 13/14/5 14/27/5 26/58/5 28/69/5
f 28/69/5 26/58/5 53/53/5 54/56/5
f 43/93/4 44/60/4 64/98/4 63/97/4
f 42/57/3 41/101/3 61/95/3 62/100/3
f 41/101/6 59/94/6 65/96/6 61/95/6
f 44/60/2 60/59/2 66/99/2 64/98/2
f 60/59/2 42/57/2 62/100/2 66/99/2
f 24/70/6 52/72/6 101/115/6 83/116/6
f 101/115/1 85/117/1 105/118/1 107/119/1
f 20/83/2 50/88/2 99/120/2 87/121/2
f 87/121/2 99/120/2 100/77/2 88/74/2
f 39/9/3 96/122/3 98/123/3 40/105/3
f 96/122/3 95/112/3 97/21/3 98/123/3
f 8/7/3 70/124/3 96/122/3 39/9/3
f 70/124/3 69/109/3 95/112/3 96/122/3
f 37/125/4 92/126/4 94/127/4 38/128/4
f 92/126/4 91/108/4 93/25/4 94/127/4
f 3/129/4 68/130/4 92/126/4 37/125/4
f 68/130/4 67/107/4 91/108/4 92/126/4
f 50/88/2 19/87/2 89/131/2 99/120/2
f 99/120/2 89/131/2 90/78/2 100/77/2
f 3/84/2 20/83/2 87/121/2 68/132/2
f 68/132/2 87/121/2 88/74/2 67/73/2
f 52/72/6 23/71/6 85/117/6 101/115/6
f 103/133/6 107/119/6 105/118/6 106/134/6 108/135/6 104/136/6
f 5/15/6 24/70/6 83/116/6 72/137/6
f 72/137/6 83/116/6 84/62/6 71/61/6
f 9/138/4 80/139/4 82/140/4 10/141/4
f 80/139/4 79/28/4 81/13/4 82/140/4
f 38/128/4 94/127/4 80/139/4 9/138/4
f 94/127/4 93/25/4 79/28/4 80/139/4
f 15/29/3 76/142/3 78/143/3 16/30/3
f 76/142/3 75/24/3 77/17/3 78/143/3
f 40/105/3 98/123/3 76/142/3 15/29/3
f 98/123/3 97/21/3 75/24/3 76/142/3
f 16/30/3 78/143/3 73/144/3 6/145/3
f 78/143/3 77/17/3 74/20/3 73/144/3
f 10/141/4 82/140/4 71/146/4 1/147/4
f 82/140/4 81/13/4 72/16/4 71/146/4
f 118/148/4 117/103/4 139/104/4 140/149/4
f 112/150/4 114/151/4 138/152/4 136/153/4
f 110/4/2 4/3/2 69/154/2 123/155/2
f 123/155/2 69/154/2 70/6/2 124/5/2
f 83/116/1 101/115/1 107/119/1 103/133/1
f 85/117/4 86/66/4 106/134/4 105/118/4
f 84/62/3 83/116/3 103/133/3 104/136/3
f 102/65/5 84/62/5 104/136/5 108/135/5
f 86/66/5 102/65/5 108/135/5 106/134/5
f 89/131/2 123/155/2 124/5/2 90/78/2
f 19/87/2 110/4/2 123/155/2 89/131/2
f 85/117/6 121/156/6 122/157/6 86/66/6
f 23/71/6 112/150/6 121/156/6 85/117/6
f 47/89/1 119/114/1 120/1/1 48/86/1
f 31/47/1 116/40/1 119/114/1 47/89/1
f 43/93/5 117/103/5 118/148/5 44/60/5
f 21/79/5 111/8/5 117/103/5 43/93/5
f 29/46/1 115/38/1 116/40/1 31/47/1
f 18/52/1 109/35/1 115/38/1 29/46/1
f 25/54/5 113/158/5 114/151/5 27/55/5
f 44/60/5 118/148/5 113/158/5 25/54/5
f 86/66/6 122/157/6 109/159/6 18/67/6
f 27/55/5 114/151/5 112/150/5 23/71/5
f 90/78/2 124/5/2 111/8/2 21/79/2
f 48/86/1 120/1/1 110/4/1 19/87/1
f 138/152/5 127/31/5 128/160/5 136/153/5
f 142/161/6 129/162/6 126/163/6 125/164/6
f 140/149/5 130/106/5 131/32/5 137/165/5
f 137/165/5 131/32/5 127/31/5 138/152/5
f 135/12/5 132/11/5 133/10/5 139/104/5
f 139/104/5 133/10/5 130/106/5 140/149/5
f 136/153/6 128/160/6 134/166/6 141/167/6
f 141/167/6 134/166/6 129/162/6 142/161/6
f 122/157/4 121/156/4 141/167/4 142/161/4
f 114/151/4 113/158/4 137/165/4 138/152/4
f 39/9/3 40/105/3 130/106/3 133/10/3
f 121/156/4 112/150/4 136/153/4 141/167/4
f 6/145/3 73/144/3 134/168/3 128/160/3
f 113/158/4 118/148/4 140/149/4 137/165/4
f 16/30/3 6/145/3 128/160/3 127/31/3
f 73/144/3 74/20/3 129/34/3 134/168/3
f 2/36/1 109/35/1 125/169/1 126/170/1
f 109/159/4 122/157/4 142/161/4 125/164/4
