# Blender v2.81 (sub 16) OBJ File: 'AllMODULE.blend'
# www.blender.org
mtllib MODULE3REWORKMILIEU.mtl
o Cube.005_Cube.006
v -24.431499 9.240473 -317.155273
v -24.431499 19.240473 -317.155273
v -24.431499 9.240473 -337.155273
v -24.431499 19.240473 -337.155273
v -4.431500 9.240473 -317.155273
v -4.431500 19.240473 -317.155273
v -4.431500 9.240473 -337.155273
v -4.431500 19.240473 -337.155273
v -24.431499 11.627639 -317.155273
v -24.431499 11.627639 -337.155273
v -4.431500 11.627639 -337.155273
v -4.431500 11.627639 -317.155273
v -24.431499 9.240473 -334.734192
v -24.431499 9.240473 -331.817657
v -24.431499 9.240473 -322.078033
v -24.431499 9.240473 -319.539459
v -24.431499 19.240473 -319.539459
v -24.431499 19.240473 -322.078033
v -24.431499 19.240473 -331.817657
v -24.431499 19.240473 -334.734192
v -4.431500 9.240473 -319.539459
v -4.431500 9.240473 -322.078033
v -4.431500 9.240473 -331.817657
v -4.431500 9.240473 -334.734192
v -4.431500 19.240473 -334.734192
v -4.431500 19.240473 -331.817657
v -4.431500 19.240473 -322.078033
v -4.431500 19.240473 -319.539459
v -4.431500 11.627639 -334.734192
v -4.431500 11.627639 -331.817657
v -4.431500 11.627639 -322.078033
v -4.431500 11.627639 -319.539459
v -24.431499 11.627639 -319.539459
v -24.431499 11.627639 -322.078033
v -24.431499 11.627639 -331.817657
v -24.431499 11.627639 -334.734192
v -12.082247 9.240473 -337.155273
v -16.780754 9.240473 -337.155273
v -16.780754 19.240473 -337.155273
v -12.082247 19.240473 -337.155273
v -16.780754 9.240473 -317.155273
v -12.082247 9.240473 -317.155273
v -12.082247 19.240473 -317.155273
v -16.780754 19.240473 -317.155273
v -16.780754 19.240473 -334.734192
v -12.082247 19.240473 -334.734192
v -16.780754 19.240473 -331.817657
v -12.082247 19.240473 -331.817657
v -16.780754 19.240473 -322.078033
v -12.082247 19.240473 -322.078033
v -16.780754 19.240473 -319.539459
v -12.082247 19.240473 -319.539459
v -12.082247 9.240473 -334.734192
v -16.780754 9.240473 -334.734192
v -12.082247 9.240473 -331.817657
v -16.780754 9.240473 -331.817657
v -12.082247 9.240473 -322.078033
v -16.780754 9.240473 -322.078033
v -12.082247 9.240473 -319.539459
v -16.780754 9.240473 -319.539459
v -24.431499 18.599646 -317.155273
v -24.431499 18.882511 -317.155273
v -24.431499 18.882511 -337.155273
v -24.431499 18.599646 -337.155273
v -4.431500 18.882511 -337.155273
v -4.431500 18.599646 -337.155273
v -4.431500 18.882511 -317.155273
v -4.431500 18.599646 -317.155273
v -4.431500 18.882511 -334.734192
v -4.431500 18.599646 -334.734192
v -4.431500 18.882511 -331.817657
v -4.431500 18.599646 -331.817657
v -4.431500 18.882511 -322.078033
v -4.431500 18.599646 -322.078033
v -4.431500 18.882511 -319.539459
v -4.431500 18.599646 -319.539459
v -24.431499 18.882511 -319.539459
v -24.431499 18.599646 -319.539459
v -24.431499 18.882511 -322.078033
v -24.431499 18.599646 -322.078033
v -24.431499 18.882511 -331.817657
v -24.431499 18.599646 -331.817657
v -24.431499 18.882511 -334.734192
v -24.431499 18.599646 -334.734192
v -24.431499 16.594023 -317.155273
v -24.431499 16.594023 -334.734192
v -24.431499 16.594023 -331.817657
v -24.431499 16.594023 -322.078033
v -24.431499 16.594023 -319.539459
v -4.431500 16.594023 -319.539459
v -4.431500 16.594023 -322.078033
v -4.431500 16.594023 -331.817657
v -4.431500 16.594023 -334.734192
v -4.431500 16.594023 -317.155273
v -4.431500 16.594023 -337.155273
v -24.431499 16.594023 -337.155273
v -24.431499 9.240473 -328.453552
v -24.431499 9.240473 -325.631134
v -24.431499 19.240473 -325.631134
v -24.431499 19.240473 -328.453552
v -4.431500 9.240473 -325.631134
v -4.431500 9.240473 -328.453552
v -4.431500 19.240473 -328.453552
v -4.431500 19.240473 -325.631134
v -4.431500 11.627639 -328.453552
v -4.431500 11.627639 -325.631134
v -24.431499 11.627639 -325.631134
v -24.431499 11.627639 -328.453552
v -16.780754 9.240473 -328.453552
v -16.780754 9.240473 -325.631134
v -12.082247 9.240473 -328.453552
v -12.082247 9.240473 -325.631134
v -12.082247 19.240473 -328.453552
v -12.082247 19.240473 -325.631134
v -16.780754 19.240473 -328.453552
v -16.780754 19.240473 -325.631134
v -24.431499 18.599646 -325.631134
v -24.431499 18.599646 -328.453552
v -24.431499 18.882511 -325.631134
v -24.431499 18.882511 -328.453552
v -4.431500 18.599646 -328.453552
v -4.431500 18.599646 -325.631134
v -4.431500 18.882511 -328.453552
v -4.431500 18.882511 -325.631134
v -4.431500 16.594023 -328.453552
v -4.431500 16.594023 -325.631134
v -24.431499 16.594023 -325.631134
v -24.431499 16.594023 -328.453552
v -24.431499 9.652802 -337.155273
v -4.431500 9.652802 -337.155273
v -4.431500 9.652802 -317.155273
v -24.431499 9.652802 -317.155273
v -24.431499 9.652802 -319.539459
v -24.431499 9.652802 -322.078033
v -24.431499 9.652802 -331.817657
v -24.431499 9.652802 -334.734192
v -4.431500 9.652802 -334.734192
v -4.431500 9.652802 -331.817657
v -4.431500 9.652802 -322.078033
v -4.431500 9.652802 -319.539459
v -4.431500 9.652802 -328.453552
v -4.431500 9.652802 -325.631134
v -24.431499 9.652802 -325.631134
v -24.431499 9.652802 -328.453552
v -4.841600 11.627639 -334.734192
v -4.841600 11.627639 -331.817657
v -4.841600 11.627639 -322.078033
v -4.841600 11.627639 -319.539459
v -4.841600 16.594023 -334.734192
v -4.841600 16.594023 -331.817657
v -4.841600 16.594023 -322.078033
v -4.841600 16.594023 -319.539459
v -24.243999 11.627639 -319.539459
v -24.243999 11.627639 -322.078033
v -24.243999 11.627639 -331.817657
v -24.243999 11.627639 -334.734192
v -24.243999 16.594023 -319.539459
v -24.243999 16.594023 -322.078033
v -24.243999 16.594023 -331.817657
v -24.243999 16.594023 -334.734192
vt 0.399185 0.824703
vt 0.399185 0.818204
vt 0.454131 0.818204
vt 0.454131 0.824703
vt 0.175297 0.400023
vt 0.181796 0.400023
vt 0.181796 0.454131
vt 0.175297 0.454131
vt 0.054348 0.678819
vt 0.054348 0.817723
vt 0.000240 0.817723
vt 0.000240 0.678819
vt 0.406005 0.400023
vt 0.544909 0.400023
vt 0.544909 0.454131
vt 0.406005 0.454131
vt 0.007726 0.400023
vt 0.043581 0.400023
vt 0.043581 0.454131
vt 0.007726 0.454131
vt 0.399185 0.992274
vt 0.399185 0.956420
vt 0.454131 0.956420
vt 0.454131 0.992274
vt 0.256649 0.956420
vt 0.256649 0.866252
vt 0.332996 0.866252
vt 0.332996 0.956420
vt 0.738756 0.359960
vt 0.738756 0.426149
vt 0.735351 0.426149
vt 0.735351 0.359960
vt 0.192595 0.866252
vt 0.192595 0.956420
vt 0.111959 0.956420
vt 0.111959 0.866252
vt 0.192595 0.829838
vt 0.256649 0.829838
vt 0.000240 0.992274
vt 0.000240 0.956420
vt 0.054347 0.956420
vt 0.054347 0.992274
vt 0.256649 0.992274
vt 0.332996 0.992274
vt 0.007726 0.000240
vt 0.043581 0.000240
vt 0.043581 0.055186
vt 0.007726 0.055186
vt 0.007726 0.261776
vt 0.043581 0.261776
vt 0.043581 0.342412
vt 0.007726 0.342412
vt 0.332996 0.829838
vt 0.399185 0.829838
vt 0.399185 0.866252
vt 0.406005 0.000240
vt 0.544909 0.000240
vt 0.544909 0.055185
vt 0.406005 0.055185
vt 0.544909 0.121375
vt 0.406005 0.121375
vt 0.406005 0.261775
vt 0.544909 0.261775
vt 0.544909 0.342411
vt 0.406005 0.342411
vt 0.454131 0.678819
vt 0.454131 0.817723
vt 0.399185 0.817723
vt 0.399185 0.678819
vt 0.332996 0.817723
vt 0.332996 0.678819
vt 0.192596 0.678819
vt 0.192596 0.817723
vt 0.111960 0.817723
vt 0.111960 0.678819
vt 0.175297 0.000240
vt 0.181796 0.000240
vt 0.181796 0.055186
vt 0.175297 0.055186
vt 0.181796 0.121375
vt 0.175297 0.121375
vt 0.175297 0.261776
vt 0.181796 0.261775
vt 0.181796 0.342411
vt 0.175297 0.342412
vt 0.000240 0.824703
vt 0.000240 0.818204
vt 0.054347 0.818204
vt 0.054347 0.824703
vt 0.111959 0.818204
vt 0.111959 0.824703
vt 0.256649 0.824703
vt 0.256649 0.818204
vt 0.332996 0.818204
vt 0.332996 0.824703
vt 0.111960 0.454611
vt 0.111960 0.593515
vt 0.054348 0.593515
vt 0.054348 0.454611
vt 0.192596 0.454611
vt 0.192596 0.593515
vt 0.399185 0.454611
vt 0.399185 0.593515
vt 0.332996 0.593515
vt 0.332996 0.454611
vt 0.454131 0.454611
vt 0.454131 0.593515
vt 0.320700 0.342411
vt 0.320700 0.400023
vt 0.320700 0.261775
vt 0.320700 0.055185
vt 0.320701 0.121375
vt 0.320700 0.000240
vt 0.320700 0.454131
vt 0.000240 0.593515
vt 0.000240 0.454611
vt 0.624533 0.454611
vt 0.629668 0.454611
vt 0.629668 0.908502
vt 0.624533 0.908502
vt 0.720446 0.000240
vt 0.720446 0.454131
vt 0.715311 0.454131
vt 0.715311 0.000240
vt 0.133748 0.197722
vt 0.043581 0.197722
vt 0.043581 0.121375
vt 0.133748 0.121375
vt 0.054347 0.829838
vt 0.111959 0.829838
vt 0.000240 0.866252
vt 0.000240 0.829838
vt 0.054347 0.866252
vt 0.170162 0.342412
vt 0.170162 0.400023
vt 0.133748 0.261776
vt 0.170162 0.261776
vt 0.133748 0.342412
vt 0.170162 0.055186
vt 0.170162 0.121375
vt 0.133748 0.000240
vt 0.170162 0.000240
vt 0.133748 0.055186
vt 0.678897 0.454131
vt 0.588730 0.454131
vt 0.588730 0.000240
vt 0.678897 0.000240
vt 0.133748 0.400023
vt 0.170162 0.454131
vt 0.133748 0.454131
vt 0.454131 0.829838
vt 0.454131 0.866252
vt 0.727426 0.339330
vt 0.727426 0.226620
vt 0.734871 0.226620
vt 0.734871 0.339330
vt 0.175297 0.197722
vt 0.170162 0.197722
vt 0.192595 0.824703
vt 0.406005 0.197722
vt 0.320701 0.197722
vt 0.181796 0.197722
vt 0.256649 0.678819
vt 0.256649 0.593515
vt 0.256649 0.454611
vt 0.192595 0.818204
vt 0.256649 0.817723
vt 0.544909 0.197722
vt 0.007726 0.121375
vt 0.007726 0.197722
vt 0.111959 0.992274
vt 0.192595 0.992274
vt 0.735351 0.066429
vt 0.735351 0.000240
vt 0.742797 0.000240
vt 0.742797 0.066429
vt 0.552875 0.000240
vt 0.552875 0.454131
vt 0.497952 0.454611
vt 0.497952 0.908502
vt 0.462097 0.908502
vt 0.462097 0.454611
vt 0.726945 0.000240
vt 0.726945 0.173870
vt 0.726945 0.280501
vt 0.726945 0.454131
vt 0.636167 0.628241
vt 0.636167 0.734872
vt 0.636167 0.908502
vt 0.636167 0.454611
vt 0.588119 0.454611
vt 0.588119 0.908502
vt 0.655903 0.680991
vt 0.655903 0.738603
vt 0.652499 0.738603
vt 0.652499 0.680991
vt 0.454611 0.454611
vt 0.454611 0.908502
vt 0.454611 0.734872
vt 0.454611 0.628241
vt 0.545389 0.454131
vt 0.545389 0.280501
vt 0.545389 0.173870
vt 0.545389 0.000240
vt 0.192595 0.999760
vt 0.256649 0.999760
vt 0.000240 0.261776
vt 0.000240 0.197722
vt 0.111959 0.999760
vt 0.000240 0.121375
vt 0.000240 0.342412
vt 0.000240 0.400023
vt 0.000240 0.055186
vt 0.000240 0.000240
vt 0.332996 0.999760
vt 0.399185 0.999760
vt 0.054347 0.999760
vt 0.000240 0.999760
vt 0.454131 0.999760
vt 0.000240 0.454131
vt 0.690079 0.680511
vt 0.690079 0.567801
vt 0.736168 0.567801
vt 0.736168 0.680511
vt 0.689598 0.567801
vt 0.689598 0.680511
vt 0.636647 0.680511
vt 0.636647 0.567801
vt 0.735351 0.133099
vt 0.735351 0.066910
vt 0.742797 0.066910
vt 0.742797 0.133099
vt 0.727426 0.112950
vt 0.727426 0.000240
vt 0.734871 0.000240
vt 0.734871 0.112950
vt 0.636647 0.738603
vt 0.636647 0.680991
vt 0.644093 0.680991
vt 0.644093 0.738603
vt 0.734871 0.113430
vt 0.734871 0.226140
vt 0.727426 0.226140
vt 0.727426 0.113430
vt 0.734871 0.339810
vt 0.734871 0.452520
vt 0.727426 0.452520
vt 0.727426 0.339810
vt 0.644573 0.738603
vt 0.644573 0.680991
vt 0.652019 0.680991
vt 0.652019 0.738603
vt 0.689598 0.567321
vt 0.636647 0.567321
vt 0.636647 0.454611
vt 0.689598 0.454611
vt 0.736168 0.567321
vt 0.690079 0.567321
vt 0.690079 0.454611
vt 0.736168 0.454611
vt 0.740052 0.454611
vt 0.740052 0.567321
vt 0.736648 0.567321
vt 0.736648 0.454611
vt 0.738756 0.133579
vt 0.738756 0.246289
vt 0.735351 0.246289
vt 0.735351 0.133579
vt 0.659788 0.680991
vt 0.659788 0.738603
vt 0.656383 0.738603
vt 0.656383 0.680991
vt 0.736648 0.680510
vt 0.736648 0.567801
vt 0.740052 0.567801
vt 0.740052 0.680510
vt 0.735351 0.359479
vt 0.735351 0.246770
vt 0.738756 0.246770
vt 0.738756 0.359479
vt 0.742640 0.133579
vt 0.742640 0.199769
vt 0.739236 0.199769
vt 0.739236 0.133579
vn -1.0000 0.0000 0.0000
vn 1.0000 0.0000 0.0000
vn 0.0000 -1.0000 0.0000
vn 0.0000 1.0000 0.0000
vn 0.0000 0.0000 1.0000
vn 0.0000 0.0000 -1.0000
usemtl None
s off
f 83/1/1 20/2/1 4/3/1 63/4/1
f 75/5/2 28/6/2 6/7/2 67/8/2
f 59/9/3 21/10/3 5/11/3 42/12/3
f 51/13/4 17/14/4 2/15/4 44/16/4
f 140/17/2 32/18/2 12/19/2 131/20/2
f 136/21/1 36/22/1 10/23/1 129/24/1
f 108/25/1 128/26/1 87/27/1 35/28/1
f 87/29/3 86/30/3 160/31/3 159/32/3
f 127/33/1 107/34/1 34/35/1 88/36/1
f 128/26/1 127/33/1 117/37/1 118/38/1
f 132/39/1 9/40/1 33/41/1 133/42/1
f 144/43/1 108/25/1 35/28/1 135/44/1
f 130/45/2 11/46/2 29/47/2 137/48/2
f 142/49/2 106/50/2 31/51/2 139/52/2
f 82/53/1 84/54/1 86/55/1 87/27/1
f 39/56/4 4/57/4 20/58/4 45/59/4
f 45/59/4 20/58/4 19/60/4 47/61/4
f 116/62/4 99/63/4 18/64/4 49/65/4
f 49/65/4 18/64/4 17/14/4 51/13/4
f 37/66/3 7/67/3 24/68/3 53/69/3
f 53/69/3 24/68/3 23/70/3 55/71/3
f 112/72/3 101/73/3 22/74/3 57/75/3
f 57/75/3 22/74/3 21/10/3 59/9/3
f 65/76/2 8/77/2 25/78/2 69/79/2
f 69/79/2 25/78/2 26/80/2 71/81/2
f 124/82/2 104/83/2 27/84/2 73/85/2
f 73/85/2 27/84/2 28/6/2 75/5/2
f 62/86/1 2/87/1 17/88/1 77/89/1
f 77/89/1 17/88/1 18/90/1 79/91/1
f 120/92/1 100/93/1 19/94/1 81/95/1
f 81/95/1 19/94/1 20/2/1 83/1/1
f 15/96/3 58/97/3 60/98/3 16/99/3
f 58/97/3 57/75/3 59/9/3 60/98/3
f 98/100/3 110/101/3 58/97/3 15/96/3
f 110/101/3 112/72/3 57/75/3 58/97/3
f 13/102/3 54/103/3 56/104/3 14/105/3
f 54/103/3 53/69/3 55/71/3 56/104/3
f 3/106/3 38/107/3 54/103/3 13/102/3
f 38/107/3 37/66/3 53/69/3 54/103/3
f 27/84/4 50/108/4 52/109/4 28/6/4
f 50/108/4 49/65/4 51/13/4 52/109/4
f 104/83/4 114/110/4 50/108/4 27/84/4
f 114/110/4 116/62/4 49/65/4 50/108/4
f 25/78/4 46/111/4 48/112/4 26/80/4
f 46/111/4 45/59/4 47/61/4 48/112/4
f 8/77/4 40/113/4 46/111/4 25/78/4
f 40/113/4 39/56/4 45/59/4 46/111/4
f 28/6/4 52/109/4 43/114/4 6/7/4
f 52/109/4 51/13/4 44/16/4 43/114/4
f 16/99/3 60/98/3 41/115/3 1/116/3
f 60/98/3 59/9/3 42/12/3 41/115/3
f 68/117/5 67/118/5 62/119/5 61/120/5
f 63/121/6 65/122/6 66/123/6 64/124/6
f 82/53/1 81/95/1 83/1/1 84/54/1
f 128/26/1 118/38/1 82/53/1 87/27/1
f 118/38/1 120/92/1 81/95/1 82/53/1
f 125/125/2 105/126/2 30/127/2 92/128/2
f 78/129/1 77/89/1 79/91/1 80/130/1
f 85/131/1 61/132/1 78/129/1 89/133/1
f 61/132/1 62/86/1 77/89/1 78/129/1
f 74/134/2 73/85/2 75/5/2 76/135/2
f 126/136/2 122/137/2 74/134/2 91/138/2
f 122/137/2 124/82/2 73/85/2 74/134/2
f 70/139/2 69/79/2 71/81/2 72/140/2
f 95/141/2 66/142/2 70/139/2 93/143/2
f 66/142/2 65/76/2 69/79/2 70/139/2
f 95/144/6 11/145/6 10/146/6 96/147/6
f 90/148/2 76/135/2 68/149/2 94/150/2
f 76/135/2 75/5/2 67/8/2 68/149/2
f 86/55/1 84/54/1 64/151/1 96/152/1
f 84/54/1 83/1/1 63/4/1 64/151/1
f 11/46/2 95/141/2 93/143/2 29/47/2
f 9/40/1 85/131/1 89/133/1 33/41/1
f 94/150/2 12/19/2 32/18/2 90/148/2
f 106/50/2 126/136/2 91/138/2 31/51/2
f 90/153/6 32/154/6 148/155/6 152/156/6
f 105/126/2 125/125/2 126/136/2 106/50/2
f 35/28/1 36/22/1 136/21/1 135/44/1
f 86/55/1 96/152/1 10/23/1 36/22/1
f 72/140/2 71/81/2 123/157/2 121/158/2
f 92/128/2 72/140/2 121/158/2 125/125/2
f 80/130/1 79/91/1 119/159/1 117/37/1
f 88/36/1 80/130/1 117/37/1 127/33/1
f 48/112/4 47/61/4 115/160/4 113/161/4
f 26/80/4 48/112/4 113/161/4 103/162/4
f 56/104/3 55/71/3 111/163/3 109/164/3
f 14/105/3 56/104/3 109/164/3 97/165/3
f 79/91/1 18/90/1 99/166/1 119/159/1
f 71/81/2 26/80/2 103/162/2 123/157/2
f 55/71/3 23/70/3 102/167/3 111/163/3
f 47/61/4 19/60/4 100/168/4 115/160/4
f 138/169/2 30/127/2 105/126/2 141/170/2
f 134/171/1 34/35/1 107/34/1 143/172/1
f 107/34/1 127/33/1 128/26/1 108/25/1
f 115/160/4 100/168/4 99/63/4 116/62/4
f 111/163/3 102/167/3 101/73/3 112/72/3
f 123/157/2 103/162/2 104/83/2 124/82/2
f 119/159/1 99/166/1 100/93/1 120/92/1
f 97/165/3 109/164/3 110/101/3 98/100/3
f 109/164/3 111/163/3 112/72/3 110/101/3
f 103/162/4 113/161/4 114/110/4 104/83/4
f 113/161/4 115/160/4 116/62/4 114/110/4
f 117/37/1 119/159/1 120/92/1 118/38/1
f 121/158/2 123/157/2 124/82/2 122/137/2
f 30/173/4 29/174/4 145/175/4 146/176/4
f 129/177/6 10/146/6 11/145/6 130/178/6
f 12/179/5 9/180/5 132/181/5 131/182/5
f 63/121/6 4/183/6 39/184/6 40/185/6 8/186/6 65/122/6
f 43/187/5 44/188/5 2/189/5 62/119/5 67/118/5 6/190/5
f 12/179/5 94/191/5 85/192/5 9/180/5
f 34/193/4 33/194/4 153/195/4 154/196/4
f 85/192/5 94/191/5 68/117/5 61/120/5
f 95/144/6 96/147/6 64/124/6 66/123/6
f 5/197/5 131/182/5 132/181/5 1/198/5 41/199/5 42/200/5
f 129/177/6 130/178/6 7/201/6 37/202/6 38/203/6 3/204/6
f 98/205/1 143/172/1 144/43/1 97/206/1
f 101/207/2 102/208/2 141/170/2 142/49/2
f 15/209/1 134/171/1 143/172/1 98/205/1
f 23/210/2 138/169/2 141/170/2 102/208/2
f 22/211/2 139/52/2 140/17/2 21/212/2
f 101/207/2 142/49/2 139/52/2 22/211/2
f 24/213/2 137/48/2 138/169/2 23/210/2
f 7/214/2 130/45/2 137/48/2 24/213/2
f 14/215/1 135/44/1 136/21/1 13/216/1
f 97/206/1 144/43/1 135/44/1 14/215/1
f 16/217/1 133/42/1 134/171/1 15/209/1
f 1/218/1 132/39/1 133/42/1 16/217/1
f 13/216/1 136/21/1 129/24/1 3/219/1
f 21/212/2 140/17/2 131/20/2 5/220/2
f 78/129/1 80/130/1 88/36/1 89/133/1
f 29/47/2 30/127/2 138/169/2 137/48/2
f 31/51/2 32/18/2 140/17/2 139/52/2
f 33/41/1 34/35/1 134/171/1 133/42/1
f 91/138/2 74/134/2 76/135/2 90/148/2
f 70/139/2 72/140/2 92/128/2 93/143/2
f 105/126/2 106/50/2 142/49/2 141/170/2
f 107/34/1 108/25/1 144/43/1 143/172/1
f 126/136/2 125/125/2 121/158/2 122/137/2
f 152/221/2 148/222/2 147/223/2 151/224/2
f 150/225/2 146/226/2 145/227/2 149/228/2
f 93/229/3 92/230/3 150/231/3 149/232/3
f 92/233/6 30/234/6 146/235/6 150/236/6
f 91/237/3 90/238/3 152/239/3 151/240/3
f 31/241/5 91/242/5 151/243/5 147/244/5
f 29/245/5 93/246/5 149/247/5 145/248/5
f 32/249/4 31/250/4 147/251/4 148/252/4
f 159/253/1 160/254/1 156/255/1 155/256/1
f 157/257/1 158/258/1 154/259/1 153/260/1
f 35/261/6 87/262/6 159/263/6 155/264/6
f 33/265/6 89/266/6 157/267/6 153/268/6
f 89/269/3 88/270/3 158/271/3 157/272/3
f 86/273/5 36/274/5 156/275/5 160/276/5
f 88/277/5 34/278/5 154/279/5 158/280/5
f 36/281/4 35/282/4 155/283/4 156/284/4
