# Blender v2.81 (sub 16) OBJ File: 'AllMODULE.blend'
# www.blender.org
mtllib MODULE11HAUT.mtl
o Cube.018_Cube.025
v -10.000000 40.000000 126.595093
v -8.789043 60.000000 125.384140
v -10.000000 40.000000 106.595093
v -8.789043 60.000000 107.806046
v 10.000000 40.000000 126.595093
v 8.789043 60.000000 125.384140
v 10.000000 40.000000 106.595093
v 8.789043 60.000000 107.806046
v -10.000000 40.000000 108.613708
v -10.000000 40.000000 114.595093
v -10.000000 40.000000 118.595093
v -10.000000 40.000000 124.689629
v -8.789043 60.000000 124.689629
v -8.789043 60.000000 118.595093
v -8.789043 60.000000 114.595093
v -8.789043 60.000000 108.613708
v 10.000000 40.000000 124.689629
v 10.000000 40.000000 118.595093
v 10.000000 40.000000 114.595093
v 10.000000 40.000000 108.613708
v 8.789043 60.000000 108.613708
v 8.789043 60.000000 114.595093
v 8.789043 60.000000 118.595093
v 8.789043 60.000000 124.689629
v -10.000000 43.546757 126.595093
v -10.000000 56.453247 126.595093
v -10.000000 56.453247 106.595093
v -10.000000 43.546757 106.595093
v 10.000000 56.453247 106.595093
v 10.000000 43.546757 106.595093
v 10.000000 56.453247 126.595093
v 10.000000 43.546757 126.595093
v 10.000000 56.453247 108.613708
v 10.000000 43.546757 108.613708
v 10.000000 56.453247 114.595093
v 10.000000 43.546757 114.595093
v 10.000000 56.453247 118.595093
v 10.000000 43.546757 118.595093
v 10.000000 56.453247 124.689629
v 10.000000 43.546757 124.689629
v -10.000000 56.453247 124.689629
v -10.000000 43.546757 124.689629
v -10.000000 56.453247 118.595093
v -10.000000 43.546757 118.595093
v -10.000000 56.453247 114.595093
v -10.000000 43.546757 114.595093
v -10.000000 56.453247 108.613708
v -10.000000 43.546757 108.613708
v 9.402507 56.453247 108.613708
v 9.402507 43.546757 108.613708
v 9.402507 56.453247 114.595093
v 9.402507 43.546757 114.595093
v 9.402507 56.453247 118.595093
v 9.402507 43.546757 118.595093
v 9.402507 56.453247 124.689629
v 9.402507 43.546757 124.689629
v -10.000000 43.161400 106.595093
v -10.000000 41.979149 106.595093
v 10.000000 43.161400 106.595093
v 10.000000 41.979149 106.595093
v 10.000000 43.161400 126.595093
v 10.000000 41.979149 126.595093
v 10.000000 43.161400 108.613708
v 10.000000 41.979149 108.613708
v 10.000000 43.161400 114.595093
v 10.000000 41.979149 114.595093
v 10.000000 43.161400 118.595093
v 10.000000 41.979149 118.595093
v 10.000000 43.161400 124.689629
v 10.000000 41.979149 124.689629
v -10.000000 43.161400 124.689629
v -10.000000 41.979149 124.689629
v -10.000000 43.161400 118.595093
v -10.000000 41.979149 118.595093
v -10.000000 43.161400 114.595093
v -10.000000 41.979149 114.595093
v -10.000000 43.161400 108.613708
v -10.000000 41.979149 108.613708
v -10.000000 41.979149 126.595093
v -10.000000 43.161400 126.595093
v -10.000000 56.911575 126.595093
v -10.000000 58.093826 126.595093
v -10.000000 58.093826 106.595093
v -10.000000 56.911575 106.595093
v 10.000000 58.093826 106.595093
v 10.000000 56.911575 106.595093
v 10.000000 58.093826 126.595093
v 10.000000 56.911575 126.595093
v 10.000000 58.093826 108.613708
v 10.000000 56.911575 108.613708
v 10.000000 58.093826 114.595093
v 10.000000 56.911575 114.595093
v 10.000000 58.093826 118.595093
v 10.000000 56.911575 118.595093
v 10.000000 58.093826 124.689629
v 10.000000 56.911575 124.689629
v -10.000000 58.093826 124.689629
v -10.000000 56.911575 124.689629
v -10.000000 58.093826 118.595093
v -10.000000 56.911575 118.595093
v -10.000000 58.093826 114.595093
v -10.000000 56.911575 114.595093
v -10.000000 58.093826 108.613708
v -10.000000 56.911575 108.613708
v 10.824995 43.161400 108.613708
v 10.824995 41.979149 108.613708
v 10.824995 43.161400 114.595093
v 10.824995 41.979149 114.595093
v 10.824995 43.161400 118.595093
v 10.824995 41.979149 118.595093
v 10.824995 43.161400 124.689629
v 10.824995 41.979149 124.689629
v 10.824995 58.093826 108.613708
v 10.824995 56.911575 108.613708
v 10.824995 58.093826 114.595093
v 10.824995 56.911575 114.595093
v 10.824995 58.093826 118.595093
v 10.824995 56.911575 118.595093
v 10.824995 58.093826 124.689629
v 10.824995 56.911575 124.689629
v -10.000000 60.000000 108.613708
v -10.000000 60.000000 106.595093
v 10.000000 60.000000 106.595093
v 10.000000 60.000000 124.689629
v 10.000000 60.000000 126.595093
v -10.000000 60.000000 126.595093
v -10.000000 60.000000 124.689629
v -10.000000 60.000000 118.595093
v -10.000000 60.000000 114.595093
v 10.000000 60.000000 108.613708
v 10.000000 60.000000 114.595093
v 10.000000 60.000000 118.595093
v -10.000000 61.667225 108.613708
v -10.000000 61.667225 106.595093
v 10.000000 61.667225 106.595093
v 10.000000 61.667225 124.689629
v 10.000000 61.667225 126.595093
v -10.000000 61.667225 126.595093
v -10.000000 61.667225 124.689629
v -10.000000 61.667225 118.595093
v -10.000000 61.667225 114.595093
v 10.000000 61.667225 108.613708
v 10.000000 61.667225 114.595093
v 10.000000 61.667225 118.595093
v -8.789043 61.667225 108.613708
v -8.789043 61.667225 107.806046
v 8.789043 61.667225 107.806046
v 8.789043 61.667225 124.689629
v 8.789043 61.667225 125.384140
v -8.789043 61.667225 125.384140
v -8.789043 61.667225 124.689629
v -8.789043 61.667225 118.595093
v -8.789043 61.667225 114.595093
v 8.789043 61.667225 108.613708
v 8.789043 61.667225 114.595093
v 8.789043 61.667225 118.595093
v -10.000000 59.432106 126.595093
v -10.000000 59.432106 106.595093
v 10.000000 59.432106 106.595093
v 10.000000 59.432106 126.595093
v 10.000000 59.432106 108.613708
v 10.000000 59.432106 114.595093
v 10.000000 59.432106 118.595093
v 10.000000 59.432106 124.689629
v -10.000000 59.432106 124.689629
v -10.000000 59.432106 118.595093
v -10.000000 59.432106 114.595093
v -10.000000 59.432106 108.613708
v -10.548769 59.432106 127.143860
v -10.548769 60.000000 127.143860
v -10.548769 60.000000 108.613708
v -10.548769 60.000000 106.046326
v 10.548769 60.000000 106.046326
v 10.548769 60.000000 124.689629
v 10.548769 60.000000 127.143860
v -10.548769 60.000000 124.689629
v -10.548769 60.000000 118.595093
v -10.548769 60.000000 114.595093
v 10.548769 60.000000 108.613708
v 10.548769 60.000000 114.595093
v 10.548769 60.000000 118.595093
v -10.548769 59.432106 106.046326
v 10.548769 59.432106 106.046326
v 10.548769 59.432106 127.143860
v 10.548769 59.432106 108.613708
v 10.548769 59.432106 114.595093
v 10.548769 59.432106 118.595093
v 10.548769 59.432106 124.689629
v -10.548769 59.432106 124.689629
v -10.548769 59.432106 118.595093
v -10.548769 59.432106 114.595093
v -10.548769 59.432106 108.613708
vt 0.296537 0.308952
vt 0.296537 0.280345
vt 0.304444 0.280345
vt 0.304444 0.317190
vt 0.601438 0.037301
vt 0.601438 0.008695
vt 0.609345 0.000456
vt 0.609345 0.037301
vt 0.008363 0.280345
vt 0.008363 0.308952
vt 0.000456 0.317190
vt 0.000456 0.280345
vt 0.313263 0.308952
vt 0.601438 0.308952
vt 0.609345 0.317190
vt 0.305356 0.317190
vt 0.333963 0.318102
vt 0.333963 0.606277
vt 0.305356 0.606277
vt 0.305356 0.318102
vt 0.606525 0.871043
vt 0.606525 0.781246
vt 0.606525 0.721194
vt 0.606525 0.629698
vt 0.606525 0.619271
vt 0.859803 0.619271
vt 0.859803 0.629698
vt 0.859803 0.721194
vt 0.859803 0.781246
vt 0.859803 0.871043
vt 0.859803 0.883169
vt 0.606525 0.883169
vt 0.605614 0.318102
vt 0.605614 0.606277
vt 0.575308 0.606277
vt 0.575308 0.318102
vt 0.485511 0.606277
vt 0.485511 0.318102
vt 0.425459 0.606277
vt 0.425459 0.318102
vt 0.601438 0.128797
vt 0.609345 0.128797
vt 0.313263 0.008695
vt 0.313263 0.037301
vt 0.305356 0.037301
vt 0.305356 0.000456
vt 0.601438 0.188849
vt 0.609345 0.188849
vt 0.601438 0.278646
vt 0.609345 0.278646
vt 0.296537 0.008695
vt 0.008363 0.008695
vt 0.000456 0.000456
vt 0.304444 0.000456
vt 0.008363 0.188849
vt 0.000456 0.188849
vt 0.313263 0.278646
vt 0.305356 0.278646
vt 0.481779 0.841629
vt 0.481779 0.836076
vt 0.571577 0.836076
vt 0.571577 0.841629
vt 0.481779 0.650110
vt 0.571577 0.650110
vt 0.421728 0.841629
vt 0.421728 0.836076
vt 0.421728 0.650110
vt 0.330232 0.841629
vt 0.330232 0.836076
vt 0.330231 0.650110
vt 0.301625 0.841629
vt 0.301625 0.836076
vt 0.301625 0.650110
vt 0.840966 0.438205
vt 0.835413 0.438205
vt 0.835413 0.346709
vt 0.840966 0.346709
vt 0.984153 0.194219
vt 0.984153 0.000456
vt 0.992762 0.000456
vt 0.992762 0.194219
vt 0.840966 0.498257
vt 0.835413 0.498257
vt 0.649447 0.498257
vt 0.649447 0.438205
vt 0.840966 0.588054
vt 0.835413 0.588054
vt 0.035575 0.977890
vt 0.035575 0.888092
vt 0.044184 0.888092
vt 0.044184 0.977890
vt 0.840966 0.618359
vt 0.835413 0.618359
vt 0.649447 0.618359
vt 0.649447 0.588054
vt 0.655809 0.000456
vt 0.661361 0.000456
vt 0.661361 0.300713
vt 0.655809 0.300713
vt 0.847327 0.000456
vt 0.847327 0.300713
vt 0.835413 0.318102
vt 0.840966 0.318102
vt 0.649447 0.346709
vt 0.649447 0.318102
vt 0.300713 0.652740
vt 0.300713 0.658293
vt 0.000456 0.658293
vt 0.000456 0.652740
vt 0.300713 0.844259
vt 0.000456 0.844259
vt 0.601882 0.836076
vt 0.601882 0.841629
vt 0.601882 0.650110
vt 0.800289 0.971895
vt 0.606525 0.971895
vt 0.606525 0.884081
vt 0.800289 0.884081
vt 0.860715 0.813035
vt 0.860715 0.619271
vt 0.946899 0.619271
vt 0.946899 0.813035
vt 0.995777 0.318102
vt 0.995777 0.511866
vt 0.987168 0.511866
vt 0.987168 0.318102
vt 0.960610 0.975577
vt 0.960610 0.884081
vt 0.969219 0.884081
vt 0.969219 0.975577
vt 0.990935 0.813035
vt 0.990935 0.619271
vt 0.999544 0.619271
vt 0.999544 0.813035
vt 0.610257 0.301625
vt 0.804020 0.301625
vt 0.804020 0.310234
vt 0.610257 0.310234
vt 0.045096 0.977890
vt 0.045096 0.888092
vt 0.053705 0.888092
vt 0.053705 0.977890
vt 0.026054 0.979589
vt 0.026054 0.888092
vt 0.034663 0.888092
vt 0.034663 0.979589
vt 0.571577 0.887180
vt 0.571577 0.858663
vt 0.601882 0.858663
vt 0.601882 0.887180
vt 0.300713 0.607189
vt 0.300713 0.635706
vt 0.000456 0.635706
vt 0.000456 0.607189
vt 0.886517 0.346709
vt 0.858000 0.346709
vt 0.858000 0.318102
vt 0.886517 0.318102
vt 0.610257 0.000456
vt 0.638774 0.000456
vt 0.638774 0.300713
vt 0.610257 0.300713
vt 0.886517 0.618359
vt 0.858000 0.618359
vt 0.858000 0.588054
vt 0.886517 0.588054
vt 0.858000 0.498257
vt 0.886517 0.498257
vt 0.093015 0.905841
vt 0.093015 0.888092
vt 0.104902 0.888092
vt 0.104902 0.905841
vt 0.858000 0.438205
vt 0.886517 0.438205
vt 0.117701 0.888092
vt 0.117701 0.905841
vt 0.105814 0.905841
vt 0.105814 0.888092
vt 0.301625 0.887180
vt 0.301625 0.858663
vt 0.330232 0.858663
vt 0.330231 0.887180
vt 0.421728 0.858663
vt 0.421728 0.887180
vt 0.481779 0.858663
vt 0.481779 0.887180
vt 0.481779 0.643506
vt 0.571577 0.643506
vt 0.481779 0.626472
vt 0.571577 0.626472
vt 0.421728 0.643506
vt 0.421728 0.626472
vt 0.330231 0.643506
vt 0.330231 0.626472
vt 0.301625 0.643506
vt 0.301625 0.626472
vt 0.642843 0.438205
vt 0.642843 0.346709
vt 0.851485 0.884081
vt 0.851485 0.973878
vt 0.839598 0.973878
vt 0.839598 0.884081
vt 0.642843 0.498257
vt 0.625808 0.498257
vt 0.625808 0.438205
vt 0.642843 0.588054
vt 0.959698 0.884081
vt 0.959698 0.973878
vt 0.947811 0.973878
vt 0.947811 0.884081
vt 0.642843 0.618359
vt 0.625808 0.618359
vt 0.625808 0.588054
vt 0.853931 0.000456
vt 0.853931 0.300713
vt 0.870966 0.000456
vt 0.870966 0.300713
vt 0.642843 0.318102
vt 0.625808 0.346709
vt 0.625808 0.318102
vt 0.300713 0.850863
vt 0.000456 0.850863
vt 0.300713 0.867898
vt 0.000456 0.867897
vt 0.601882 0.643506
vt 0.601882 0.626472
vt 0.913643 0.903744
vt 0.896609 0.903744
vt 0.896609 0.813947
vt 0.913643 0.813947
vt 0.877750 0.905443
vt 0.860715 0.905443
vt 0.860715 0.813947
vt 0.877750 0.813947
vt 0.895697 0.905443
vt 0.878662 0.905443
vt 0.878662 0.813947
vt 0.895697 0.813947
vt 0.914555 0.813947
vt 0.931590 0.813947
vt 0.931590 0.903744
vt 0.914555 0.903744
vt 0.012343 0.888092
vt 0.012343 0.977890
vt 0.000456 0.977890
vt 0.000456 0.888092
vt 0.804932 0.301625
vt 0.822681 0.301625
vt 0.822681 0.313512
vt 0.804932 0.313512
vt 0.025142 0.888092
vt 0.025142 0.977890
vt 0.013255 0.977890
vt 0.013255 0.888092
vt 0.054617 0.905841
vt 0.054617 0.888092
vt 0.066505 0.888092
vt 0.066505 0.905841
vt 0.813088 0.884081
vt 0.813088 0.975577
vt 0.801201 0.975577
vt 0.801201 0.884081
vt 0.825887 0.884081
vt 0.825887 0.975577
vt 0.814000 0.975577
vt 0.814000 0.884081
vt 0.092103 0.888092
vt 0.092103 0.905841
vt 0.080216 0.905841
vt 0.080216 0.888092
vt 0.118613 0.905841
vt 0.118613 0.888092
vt 0.130500 0.888092
vt 0.130500 0.905841
vt 0.944389 0.813947
vt 0.944389 0.905443
vt 0.932502 0.905443
vt 0.932502 0.813947
vt 0.067417 0.905841
vt 0.067417 0.888092
vt 0.079304 0.888092
vt 0.079304 0.905841
vt 0.143299 0.888092
vt 0.143299 0.905841
vt 0.131412 0.905841
vt 0.131412 0.888092
vt 0.838686 0.884081
vt 0.838686 0.975577
vt 0.826799 0.975577
vt 0.826799 0.884081
vt 0.887429 0.348407
vt 0.887429 0.318102
vt 0.911452 0.318102
vt 0.911452 0.348407
vt 0.891161 0.029062
vt 0.891161 0.000456
vt 0.915183 0.000456
vt 0.915183 0.029062
vt 0.965052 0.102379
vt 0.965052 0.162430
vt 0.941030 0.162430
vt 0.941030 0.102379
vt 0.887429 0.618359
vt 0.887429 0.589753
vt 0.911452 0.589753
vt 0.911452 0.618359
vt 0.965052 0.010882
vt 0.941030 0.010882
vt 0.965052 0.000456
vt 0.941030 0.000456
vt 0.937298 0.420025
vt 0.937298 0.328529
vt 0.961321 0.328529
vt 0.961321 0.420025
vt 0.962233 0.582000
vt 0.962233 0.318102
vt 0.986256 0.318102
vt 0.986256 0.582000
vt 0.937298 0.480077
vt 0.961321 0.480077
vt 0.912364 0.618359
vt 0.912364 0.318102
vt 0.936387 0.318102
vt 0.936387 0.618359
vt 0.887429 0.498257
vt 0.911452 0.498257
vt 0.937298 0.318102
vt 0.961321 0.318102
vt 0.030761 0.335551
vt 0.018636 0.335551
vt 0.000456 0.318102
vt 0.030761 0.318102
vt 0.018636 0.588828
vt 0.000456 0.606277
vt 0.272107 0.588828
vt 0.282533 0.588828
vt 0.300713 0.606277
vt 0.272107 0.606277
vt 0.282533 0.335551
vt 0.300713 0.318102
vt 0.272107 0.335551
vt 0.272107 0.318102
vt 0.180610 0.335551
vt 0.180610 0.318102
vt 0.120559 0.335551
vt 0.120559 0.318102
vt 0.030761 0.588828
vt 0.030761 0.606277
vt 0.120559 0.588828
vt 0.120559 0.606277
vt 0.180610 0.588828
vt 0.180610 0.606277
vt 0.891161 0.300713
vt 0.891161 0.270408
vt 0.915183 0.270408
vt 0.915183 0.300713
vt 0.965052 0.252228
vt 0.941030 0.252228
vt 0.891161 0.120559
vt 0.915183 0.120559
vt 0.965052 0.264353
vt 0.941030 0.264353
vt 0.887429 0.438205
vt 0.911452 0.438205
vt 0.937298 0.582000
vt 0.937298 0.569874
vt 0.961321 0.569874
vt 0.961321 0.582000
vt 0.891161 0.180610
vt 0.915183 0.180610
vt 0.971834 0.619271
vt 0.971834 0.883169
vt 0.947811 0.883169
vt 0.947811 0.619271
vt 0.940118 0.000456
vt 0.940118 0.300713
vt 0.916095 0.300713
vt 0.916095 0.000456
vt 0.481779 0.607189
vt 0.571577 0.607189
vt 0.421728 0.607189
vt 0.330231 0.607189
vt 0.301625 0.607189
vt 0.606526 0.438205
vt 0.606525 0.346709
vt 0.606526 0.498257
vt 0.606526 0.588054
vt 0.606526 0.618359
vt 0.890249 0.000456
vt 0.890249 0.300713
vt 0.606525 0.318102
vt 0.300713 0.887180
vt 0.000456 0.887180
vt 0.601882 0.607189
vt 0.965964 0.278647
vt 0.974147 0.278647
vt 0.974147 0.317190
vt 0.965964 0.317190
vt 0.972746 0.619271
vt 0.980928 0.619272
vt 0.980928 0.936006
vt 0.972746 0.936006
vt 0.983241 0.037301
vt 0.975059 0.037301
vt 0.975059 0.000456
vt 0.983241 0.000456
vt 0.990023 0.936006
vt 0.981840 0.936006
vt 0.981840 0.619271
vt 0.990023 0.619271
vt 0.983241 0.317190
vt 0.975059 0.317190
vt 0.975059 0.278646
vt 0.983241 0.278646
vt 0.975059 0.188849
vt 0.983241 0.188849
vt 0.975059 0.128797
vt 0.983241 0.128797
vt 0.965964 0.000456
vt 0.974147 0.000456
vt 0.974147 0.037301
vt 0.965964 0.037301
vt 0.974147 0.128797
vt 0.965964 0.128797
vt 0.974147 0.188849
vt 0.965964 0.188849
vt 0.313264 0.128797
vt 0.305356 0.128797
vt 0.008363 0.039000
vt 0.000456 0.039000
vt 0.296537 0.039000
vt 0.304444 0.039000
vt 0.296537 0.188849
vt 0.304444 0.188849
vt 0.313263 0.188849
vt 0.305356 0.188849
vt 0.008363 0.128797
vt 0.000456 0.128797
vt 0.296537 0.128797
vt 0.304444 0.128797
vn 0.0000 1.0000 0.0000
vn 0.0000 -1.0000 0.0000
vn -1.0000 0.0000 0.0000
vn 1.0000 0.0000 0.0000
vn 0.0000 0.0000 -1.0000
vn 0.0000 0.0000 1.0000
usemtl None
s off
f 126/1/1 127/2/1 176/3/1 170/4/1
f 165/5/2 157/6/2 169/7/2 189/8/2
f 124/9/1 125/10/1 175/11/1 174/12/1
f 159/13/2 158/14/2 182/15/2 183/16/2
f 12/17/2 17/18/2 5/19/2 1/20/2
f 16/21/1 15/22/1 14/23/1 13/24/1 2/25/1 6/26/1 24/27/1 23/28/1 22/29/1 21/30/1 8/31/1 4/32/1
f 3/33/2 7/34/2 20/35/2 9/36/2
f 9/36/2 20/35/2 19/37/2 10/38/2
f 10/38/2 19/37/2 18/39/2 11/40/2
f 11/40/2 18/39/2 17/18/2 12/17/2
f 166/41/2 165/5/2 189/8/2 190/42/2
f 160/43/2 164/44/2 188/45/2 184/46/2
f 167/47/2 166/41/2 190/42/2 191/48/2
f 157/6/2 160/43/2 184/46/2 169/7/2
f 168/49/2 167/47/2 191/48/2 192/50/2
f 122/51/1 123/52/1 173/53/1 172/54/1
f 132/55/1 124/9/1 174/12/1 181/56/1
f 161/57/2 159/13/2 183/16/2 185/58/2
f 75/59/3 46/60/3 48/61/3 77/62/3
f 46/60/3 45/63/3 47/64/3 48/61/3
f 73/65/3 44/66/3 46/60/3 75/59/3
f 44/66/3 43/67/3 45/63/3 46/60/3
f 71/68/3 42/69/3 44/66/3 73/65/3
f 42/69/3 41/70/3 43/67/3 44/66/3
f 80/71/3 25/72/3 42/69/3 71/68/3
f 25/72/3 26/73/3 41/70/3 42/69/3
f 67/74/4 38/75/4 40/76/4 69/77/4
f 39/78/5 40/79/5 56/80/5 55/81/5
f 65/82/4 36/83/4 38/75/4 67/74/4
f 36/83/4 35/84/4 37/85/4 38/75/4
f 63/86/4 34/87/4 36/83/4 65/82/4
f 33/88/2 35/89/2 51/90/2 49/91/2
f 59/92/4 30/93/4 34/87/4 63/86/4
f 30/93/4 29/94/4 33/95/4 34/87/4
f 61/96/6 32/97/6 25/98/6 80/99/6
f 32/97/6 31/100/6 26/101/6 25/98/6
f 69/77/4 40/76/4 32/102/4 61/103/4
f 40/76/4 39/104/4 31/105/4 32/102/4
f 57/106/5 28/107/5 30/108/5 59/109/5
f 28/107/5 27/110/5 29/111/5 30/108/5
f 77/62/3 48/61/3 28/112/3 57/113/3
f 48/61/3 47/64/3 27/114/3 28/112/3
f 54/115/4 53/116/4 55/117/4 56/118/4
f 50/119/4 49/120/4 51/121/4 52/122/4
f 38/123/6 37/124/6 53/125/6 54/126/6
f 37/127/2 39/128/2 55/129/2 53/130/2
f 35/131/5 36/132/5 52/133/5 51/134/5
f 34/135/6 33/136/6 49/137/6 50/138/6
f 36/139/1 34/140/1 50/141/1 52/142/1
f 40/143/1 38/144/1 54/145/1 56/146/1
f 9/147/3 78/148/3 58/149/3 3/150/3
f 78/148/3 77/62/3 57/113/3 58/149/3
f 3/151/5 58/152/5 60/153/5 7/154/5
f 58/152/5 57/106/5 59/109/5 60/153/5
f 17/155/4 70/156/4 62/157/4 5/158/4
f 70/156/4 69/77/4 61/103/4 62/157/4
f 5/159/6 62/160/6 79/161/6 1/162/6
f 62/160/6 61/96/6 80/99/6 79/161/6
f 7/163/4 60/164/4 64/165/4 20/166/4
f 60/164/4 59/92/4 63/86/4 64/165/4
f 20/166/4 64/165/4 66/167/4 19/168/4
f 95/169/6 96/170/6 120/171/6 119/172/6
f 19/168/4 66/167/4 68/173/4 18/174/4
f 66/167/4 65/82/4 67/74/4 68/173/4
f 18/174/4 68/173/4 70/156/4 17/155/4
f 68/175/5 67/176/5 109/177/5 110/178/5
f 1/179/3 79/180/3 72/181/3 12/182/3
f 79/180/3 80/71/3 71/68/3 72/181/3
f 12/182/3 72/181/3 74/183/3 11/184/3
f 72/181/3 71/68/3 73/65/3 74/183/3
f 11/184/3 74/183/3 76/185/3 10/186/3
f 74/183/3 73/65/3 75/59/3 76/185/3
f 10/186/3 76/185/3 78/148/3 9/147/3
f 76/185/3 75/59/3 77/62/3 78/148/3
f 45/63/3 102/187/3 104/188/3 47/64/3
f 102/187/3 101/189/3 103/190/3 104/188/3
f 43/67/3 100/191/3 102/187/3 45/63/3
f 100/191/3 99/192/3 101/189/3 102/187/3
f 41/70/3 98/193/3 100/191/3 43/67/3
f 98/193/3 97/194/3 99/192/3 100/191/3
f 26/73/3 81/195/3 98/193/3 41/70/3
f 81/195/3 82/196/3 97/194/3 98/193/3
f 37/85/4 94/197/4 96/198/4 39/104/4
f 89/199/1 91/200/1 115/201/1 113/202/1
f 35/84/4 92/203/4 94/197/4 37/85/4
f 92/203/4 91/204/4 93/205/4 94/197/4
f 33/95/4 90/206/4 92/203/4 35/84/4
f 92/207/2 90/208/2 114/209/2 116/210/2
f 29/94/4 86/211/4 90/206/4 33/95/4
f 86/211/4 85/212/4 89/213/4 90/206/4
f 31/100/6 88/214/6 81/215/6 26/101/6
f 88/214/6 87/216/6 82/217/6 81/215/6
f 39/104/4 96/198/4 88/218/4 31/105/4
f 96/198/4 95/219/4 87/220/4 88/218/4
f 27/110/5 84/221/5 86/222/5 29/111/5
f 84/221/5 83/223/5 85/224/5 86/222/5
f 47/64/3 104/188/3 84/225/3 27/114/3
f 104/188/3 103/190/3 83/226/3 84/225/3
f 106/227/4 105/228/4 107/229/4 108/230/4
f 110/231/4 109/232/4 111/233/4 112/234/4
f 118/235/4 117/236/4 119/237/4 120/238/4
f 114/239/4 113/240/4 115/241/4 116/242/4
f 66/243/2 64/244/2 106/245/2 108/246/2
f 90/247/5 89/248/5 113/249/5 114/250/5
f 63/251/1 65/252/1 107/253/1 105/254/1
f 69/255/6 70/256/6 112/257/6 111/258/6
f 96/259/2 94/260/2 118/261/2 120/262/2
f 93/263/1 95/264/1 119/265/1 117/266/1
f 64/267/5 63/268/5 105/269/5 106/270/5
f 91/271/6 92/272/6 116/273/6 115/274/6
f 70/275/2 68/276/2 110/277/2 112/278/2
f 65/279/6 66/280/6 108/281/6 107/282/6
f 94/283/5 93/284/5 117/285/5 118/286/5
f 67/287/1 69/288/1 111/289/1 109/290/1
f 130/291/4 123/292/4 135/293/4 142/294/4
f 127/295/3 126/296/3 138/297/3 139/298/3
f 14/299/4 15/300/4 153/301/4 152/302/4
f 125/303/4 124/304/4 136/305/4 137/306/4
f 13/307/4 14/299/4 152/302/4 151/308/4
f 2/309/4 13/307/4 151/308/4 150/310/4
f 23/311/3 24/312/3 148/313/3 156/314/3
f 6/315/5 2/316/5 150/317/5 149/318/5
f 22/319/3 23/311/3 156/314/3 155/320/3
f 123/321/5 122/322/5 134/323/5 135/324/5
f 124/304/4 132/325/4 144/326/4 136/305/4
f 24/312/3 6/327/3 149/328/3 148/313/3
f 145/329/1 146/330/1 134/331/1 133/332/1
f 146/330/1 147/333/1 135/334/1 134/331/1
f 148/335/1 149/336/1 137/337/1 136/338/1
f 149/336/1 150/339/1 138/340/1 137/337/1
f 150/339/1 151/341/1 139/342/1 138/340/1
f 151/341/1 152/343/1 140/344/1 139/342/1
f 152/343/1 153/345/1 141/346/1 140/344/1
f 153/345/1 145/329/1 133/332/1 141/346/1
f 147/333/1 154/347/1 142/348/1 135/334/1
f 154/347/1 155/349/1 143/350/1 142/348/1
f 155/349/1 156/351/1 144/352/1 143/350/1
f 156/351/1 148/335/1 136/338/1 144/352/1
f 122/353/3 121/354/3 133/355/3 134/356/3
f 15/300/4 16/357/4 145/358/4 153/301/4
f 128/359/3 127/295/3 139/298/3 140/360/3
f 16/357/4 4/361/4 146/362/4 145/358/4
f 131/363/4 130/291/4 142/294/4 143/364/4
f 8/365/3 21/366/3 154/367/3 147/368/3
f 129/369/3 128/359/3 140/360/3 141/370/3
f 4/371/6 8/372/6 147/373/6 146/374/6
f 126/375/6 125/376/6 137/377/6 138/378/6
f 132/325/4 131/363/4 143/364/4 144/326/4
f 21/366/3 22/319/3 155/320/3 154/367/3
f 121/354/3 129/369/3 141/370/3 133/355/3
f 101/189/3 167/379/3 168/380/3 103/190/3
f 99/192/3 166/381/3 167/379/3 101/189/3
f 97/194/3 165/382/3 166/381/3 99/192/3
f 82/196/3 157/383/3 165/382/3 97/194/3
f 93/205/4 163/384/4 164/385/4 95/219/4
f 91/204/4 162/386/4 163/384/4 93/205/4
f 89/213/4 161/387/4 162/386/4 91/204/4
f 85/212/4 159/388/4 161/387/4 89/213/4
f 87/216/6 160/389/6 157/390/6 82/217/6
f 95/219/4 164/385/4 160/391/4 87/220/4
f 83/223/5 158/392/5 159/393/5 85/224/5
f 103/190/3 168/380/3 158/394/3 83/226/3
f 192/395/3 171/396/3 172/397/3 182/398/3
f 182/399/5 172/400/5 173/401/5 183/402/5
f 188/403/4 174/404/4 175/405/4 184/406/4
f 184/407/6 175/408/6 170/409/6 169/410/6
f 183/411/4 173/412/4 179/413/4 185/414/4
f 185/414/4 179/413/4 180/415/4 186/416/4
f 186/416/4 180/415/4 181/417/4 187/418/4
f 187/418/4 181/417/4 174/404/4 188/403/4
f 169/419/3 170/420/3 176/421/3 189/422/3
f 189/422/3 176/421/3 177/423/3 190/424/3
f 190/424/3 177/423/3 178/425/3 191/426/3
f 191/426/3 178/425/3 171/396/3 192/395/3
f 158/14/2 168/49/2 192/50/2 182/15/2
f 164/44/2 163/427/2 187/428/2 188/45/2
f 123/52/1 130/429/1 179/430/1 173/53/1
f 121/431/1 122/51/1 172/54/1 171/432/1
f 127/2/1 128/433/1 177/434/1 176/3/1
f 163/427/2 162/435/2 186/436/2 187/428/2
f 130/429/1 131/437/1 180/438/1 179/430/1
f 128/433/1 129/439/1 178/440/1 177/434/1
f 125/10/1 126/1/1 170/4/1 175/11/1
f 162/435/2 161/57/2 185/58/2 186/436/2
f 131/437/1 132/55/1 181/56/1 180/438/1
f 129/439/1 121/431/1 171/432/1 178/440/1
