# Blender v2.81 (sub 16) OBJ File: 'AllMODULE.blend'
# www.blender.org
mtllib MODULE11BAS.mtl
o Cube.016_Cube.023
v -10.000000 0.000000 126.652390
v -10.000000 20.000000 126.652390
v -10.000000 0.000000 106.652390
v -10.000000 20.000000 106.652390
v 10.000000 0.000000 126.652390
v 10.000000 19.683830 126.336220
v 10.000000 0.000000 106.652390
v 10.000000 19.683830 106.968559
v -10.000000 0.000000 113.319054
v -10.000000 0.000000 119.985725
v -10.000000 20.000000 119.985725
v -10.000000 20.000000 113.319054
v 10.000000 0.000000 119.985725
v 10.000000 0.000000 113.319054
v 10.000000 19.683830 113.319054
v 10.000000 19.683830 119.985725
v -10.000000 11.834320 126.652390
v -10.000000 11.834320 106.652390
v 10.000000 12.150490 106.968559
v 10.000000 12.150490 126.336220
v 10.000000 12.150490 113.319054
v 10.000000 12.150490 119.985725
v -10.000000 11.834320 119.985725
v -10.000000 11.834320 113.319054
v 10.000000 0.000000 119.985725
v 10.000000 0.000000 113.319054
v 10.000000 11.834320 113.319054
v 10.000000 11.834320 119.985725
v 10.000000 0.225020 113.544075
v 10.000000 11.609299 113.544075
v 10.000000 11.609299 119.760704
v 10.000000 0.225020 119.760704
v 7.618395 11.609299 113.544075
v 7.618395 0.225020 113.544075
v 7.618395 0.225020 119.760704
v 7.618395 11.609299 119.760704
v 10.000000 0.307022 106.959412
v 10.000000 11.527297 106.959412
v 10.000000 11.527297 113.012032
v 10.000000 0.307022 113.012032
v 10.000000 0.307022 120.292747
v 10.000000 11.527297 120.292747
v 10.000000 11.527297 126.345367
v 10.000000 0.307022 126.345367
v 9.715851 11.527297 106.959412
v 9.715851 0.307022 106.959412
v 9.715851 0.307022 113.012032
v 9.715851 11.527297 113.012032
v 9.715851 11.527297 120.292747
v 9.715851 0.307022 120.292747
v 9.715851 0.307022 126.345367
v 9.715851 11.527297 126.345367
v 10.000000 20.000000 119.985725
v 10.000000 20.000000 126.652390
v 10.000000 20.000000 106.652390
v 10.000000 20.000000 113.319054
v 10.000000 11.834320 106.652390
v 10.000000 11.834320 126.652390
v 10.000000 11.834320 113.319054
v 10.000000 11.834320 119.985725
v 10.752297 19.683830 113.319054
v 10.752297 12.150490 113.319054
v 10.752297 19.683830 119.985725
v 10.752297 12.150490 119.985725
v 10.752297 19.683830 126.336220
v 10.752297 19.683830 106.968559
v 10.752297 12.150490 106.968559
v 10.752297 12.150490 126.336220
vt 0.469428 0.444444
vt 0.333333 0.444445
vt 0.333333 0.333333
vt 0.469428 0.333333
vt 0.000000 0.469428
vt 0.000000 0.333333
vt 0.333333 0.333333
vt 0.333333 0.469428
vt 0.831916 0.759738
vt 0.831916 0.653896
vt 0.844454 0.653896
vt 0.844454 0.759738
vt 0.333333 0.136095
vt 0.333333 0.000000
vt 0.666667 0.000000
vt 0.666667 0.136095
vt 0.666667 0.222222
vt 1.000000 0.222222
vt 1.000000 0.333333
vt 0.666667 0.333333
vt 0.333333 0.777778
vt 0.000000 0.777778
vt 0.000000 0.666667
vt 0.333333 0.666667
vt 0.333333 1.000000
vt 0.000000 1.000000
vt 0.000000 0.888889
vt 0.333333 0.888889
vt 0.666667 0.000000
vt 1.000000 0.000000
vt 1.000000 0.111111
vt 0.666667 0.111111
vt 0.844454 0.542785
vt 0.844454 0.436944
vt 0.856992 0.436944
vt 0.856992 0.542785
vt 0.844454 0.653896
vt 0.856992 0.653896
vt 0.469428 0.666667
vt 0.333333 0.666667
vt 0.333333 0.555556
vt 0.469428 0.555556
vt 0.666667 0.555556
vt 0.666667 0.444444
vt 0.666667 0.666667
vt 0.000000 0.000000
vt 0.000000 0.000000
vt 0.000000 0.000000
vt 0.000000 0.000000
vt 0.836652 0.759738
vt 0.836652 0.860615
vt 0.831916 0.860615
vt 0.831916 0.759738
vt 0.333333 0.333333
vt 0.841387 0.759738
vt 0.841388 0.860615
vt 0.836652 0.860615
vt 0.836652 0.759738
vt 0.000000 0.666667
vt 0.333333 0.666667
vt 0.666667 0.333333
vt 0.831916 0.436944
vt 0.831916 0.333333
vt 0.871609 0.333333
vt 0.871609 0.436944
vt 0.000000 0.000000
vt 0.000000 0.000000
vt 0.000000 0.000000
vt 0.000000 0.000000
vt 0.777778 0.656128
vt 0.777778 0.853366
vt 0.774027 0.849616
vt 0.774027 0.659878
vt 0.666667 0.853366
vt 0.670417 0.849616
vt 0.666667 0.656128
vt 0.670417 0.659878
vt 0.436944 0.666667
vt 0.436944 0.856405
vt 0.333333 0.856405
vt 0.333333 0.666667
vt 0.792222 0.523071
vt 0.792222 0.333333
vt 0.831916 0.333333
vt 0.831916 0.523071
vt 0.831916 0.523071
vt 0.831916 0.712809
vt 0.792222 0.712809
vt 0.792222 0.523071
vt 0.792222 0.816420
vt 0.792222 0.712809
vt 0.831916 0.712809
vt 0.831916 0.816420
vt 0.333333 0.333333
vt 0.136095 0.333333
vt 0.141212 0.328216
vt 0.328216 0.328216
vt 0.136095 0.222222
vt 0.141212 0.227339
vt 0.333333 0.222222
vt 0.328216 0.227339
vt 0.333333 0.111111
vt 0.136095 0.111111
vt 0.141212 0.105994
vt 0.328216 0.105994
vt 0.136095 0.000000
vt 0.141212 0.005117
vt 0.333333 0.000000
vt 0.328216 0.005117
vt 0.537821 0.853671
vt 0.537821 0.666667
vt 0.638698 0.666667
vt 0.638698 0.853671
vt 0.436944 0.853671
vt 0.436944 0.666667
vt 0.537821 0.666667
vt 0.537821 0.853671
vt 0.651236 0.853671
vt 0.651236 0.666667
vt 0.655972 0.666667
vt 0.655972 0.853671
vt 0.846123 0.759738
vt 0.846123 0.860615
vt 0.841388 0.860615
vt 0.841387 0.759738
vt 0.861728 0.436944
vt 0.861728 0.623948
vt 0.856993 0.623948
vt 0.856992 0.436944
vt 0.655972 0.853671
vt 0.655972 0.666667
vt 0.660708 0.666667
vt 0.660708 0.853671
vt 0.850859 0.759738
vt 0.850859 0.860615
vt 0.846123 0.860615
vt 0.846123 0.759738
vt 0.665444 0.666667
vt 0.665444 0.853671
vt 0.660708 0.853671
vt 0.660708 0.666667
vt 0.005270 0.005270
vt 0.005270 0.111111
vt 0.000000 0.111111
vt 0.000000 0.000000
vt 0.005270 0.222222
vt 0.005270 0.328064
vt 0.000000 0.333333
vt 0.000000 0.222222
vt 0.130825 0.328064
vt 0.130825 0.005270
vt 0.130825 0.222222
vt 0.130825 0.111111
vt 0.792222 0.439175
vt 0.666667 0.439175
vt 0.666667 0.333333
vt 0.792222 0.333333
vt 0.792222 0.656128
vt 0.666667 0.656128
vt 0.666667 0.550286
vt 0.792222 0.550286
vt 0.831916 0.542785
vt 0.844454 0.542785
vt 0.638698 0.792222
vt 0.638698 0.666667
vt 0.651236 0.666667
vt 0.651236 0.792222
vt 0.844454 0.759738
vt 0.856992 0.759738
vt 0.831916 0.436944
vt 0.844454 0.436944
vt 0.790316 0.656128
vt 0.790316 0.781683
vt 0.777778 0.781683
vt 0.777778 0.656128
vn -1.0000 0.0000 0.0000
vn 0.0000 0.0000 -1.0000
vn 0.0000 -1.0000 0.0000
vn 0.0000 0.0000 1.0000
vn 0.0000 1.0000 0.0000
vn 1.0000 0.0000 0.0000
usemtl None
s off
f 24/1/1 12/2/1 4/3/1 18/4/1
f 18/5/2 4/6/2 55/7/2 57/8/2
f 20/9/3 22/10/3 64/11/3 68/12/3
f 58/13/4 54/14/4 2/15/4 17/16/4
f 10/17/3 13/18/3 5/19/3 1/20/3
f 53/21/5 11/22/5 2/23/5 54/24/5
f 55/25/5 4/26/5 12/27/5 56/28/5
f 56/28/5 12/27/5 11/22/5 53/21/5
f 3/29/3 7/30/3 14/31/3 9/32/3
f 9/32/3 14/31/3 13/18/3 10/17/3
f 16/33/5 6/34/5 65/35/5 63/36/5
f 15/37/5 16/33/5 63/36/5 61/38/5
f 17/39/1 2/40/1 11/41/1 23/42/1
f 23/42/1 11/41/1 12/2/1 24/1/1
f 10/43/1 23/42/1 24/1/1 9/44/1
f 1/45/1 17/39/1 23/42/1 10/43/1
f 60/46/4 13/47/4 25/48/4 28/49/4
f 42/50/3 43/51/3 52/52/3 49/53/3
f 5/54/4 58/13/4 17/16/4 1/20/4
f 40/55/5 37/56/5 46/57/5 47/58/5
f 3/59/2 18/5/2 57/8/2 7/60/2
f 9/44/1 24/1/1 18/4/1 3/61/1
f 30/62/3 31/63/3 36/64/3 33/65/3
f 13/47/4 14/66/4 26/67/4 25/48/4
f 14/66/4 59/68/4 27/69/4 26/67/4
f 59/68/4 60/46/4 28/49/4 27/69/4
f 26/70/6 27/71/6 30/72/6 29/73/6
f 27/71/6 28/74/6 31/75/6 30/72/6
f 28/74/6 25/76/6 32/77/6 31/75/6
f 25/76/6 26/70/6 29/73/6 32/77/6
f 34/78/6 33/79/6 36/80/6 35/81/6
f 29/82/4 30/83/4 33/84/4 34/85/4
f 31/86/2 32/87/2 35/88/2 36/89/2
f 32/90/5 29/91/5 34/92/5 35/93/5
f 7/94/6 57/95/6 38/96/6 37/97/6
f 57/95/6 59/98/6 39/99/6 38/96/6
f 59/98/6 14/100/6 40/101/6 39/99/6
f 14/100/6 7/94/6 37/97/6 40/101/6
f 13/102/6 60/103/6 42/104/6 41/105/6
f 60/103/6 58/106/6 43/107/6 42/104/6
f 58/106/6 5/108/6 44/109/6 43/107/6
f 5/108/6 13/102/6 41/105/6 44/109/6
f 46/110/6 45/111/6 48/112/6 47/113/6
f 50/114/6 49/115/6 52/116/6 51/117/6
f 41/118/4 42/119/4 49/120/4 50/121/4
f 38/122/3 39/123/3 48/124/3 45/125/3
f 43/126/2 44/127/2 51/128/2 52/129/2
f 37/130/4 38/131/4 45/132/4 46/133/4
f 44/134/5 41/135/5 50/136/5 51/137/5
f 39/138/2 40/139/2 47/140/2 48/141/2
f 6/142/6 16/143/6 53/144/6 54/145/6
f 15/146/6 8/147/6 55/148/6 56/149/6
f 16/143/6 15/146/6 56/149/6 53/144/6
f 8/147/6 19/150/6 57/95/6 55/148/6
f 20/151/6 6/142/6 54/145/6 58/106/6
f 21/152/6 22/153/6 60/103/6 59/98/6
f 19/150/6 21/152/6 59/98/6 57/95/6
f 22/153/6 20/151/6 58/106/6 60/103/6
f 64/154/6 63/155/6 65/156/6 68/157/6
f 67/158/6 66/159/6 61/160/6 62/161/6
f 62/161/6 61/160/6 63/155/6 64/154/6
f 22/10/3 21/162/3 62/163/3 64/11/3
f 19/164/2 8/165/2 66/166/2 67/167/2
f 8/168/5 15/37/5 61/38/5 66/169/5
f 21/162/3 19/170/3 67/171/3 62/163/3
f 6/172/4 20/173/4 68/174/4 65/175/4
