# Blender v2.81 (sub 16) OBJ File: 'AllMODULE.blend'
# www.blender.org
mtllib MODULE10BAS.mtl
o Cube.013_Cube.019
v -10.000000 0.000000 96.067093
v -10.000000 20.000000 96.067093
v -10.000000 0.000000 76.067093
v -10.000000 20.000000 76.067093
v 10.000000 0.000000 96.067093
v 10.000000 20.000000 96.067093
v 10.000000 0.000000 76.067093
v 10.000000 20.000000 76.067093
v -10.000000 10.000000 96.067093
v -10.000000 10.000000 76.067093
v 10.000000 10.000000 76.067093
v 10.000000 10.000000 96.067093
v -10.000000 0.000000 84.118988
v -10.000000 20.000000 84.118988
v 10.000000 0.000000 84.118988
v 10.000000 20.000000 84.118988
v 10.000000 10.000000 84.118988
v -10.000000 10.000000 84.118988
v -10.000000 0.000000 95.294975
v 10.000000 20.000000 95.294975
v 10.000000 10.000000 95.294975
v -10.000000 20.000000 95.294975
v 10.000000 0.000000 95.294975
v -10.000000 10.000000 95.294975
v -10.000000 20.000000 83.634583
v -10.000000 20.000000 76.551476
v 10.000000 0.000000 83.634583
v 10.000000 0.000000 76.551476
v -10.000000 10.000000 83.634583
v -10.000000 10.000000 76.551476
v -10.000000 0.000000 76.551476
v -10.000000 0.000000 83.634583
v 10.000000 20.000000 76.551476
v 10.000000 20.000000 83.634583
v 10.000000 10.000000 76.551476
v 10.000000 10.000000 83.634583
v 10.000000 0.000000 95.294975
v 10.000000 0.000000 84.118988
v 10.000000 10.000000 84.118988
v 10.000000 10.000000 95.294975
v 10.000000 0.178696 84.297684
v 10.000000 9.821304 84.297684
v 10.000000 9.821304 95.116280
v 10.000000 0.178696 95.116280
v 9.559206 9.821304 84.297684
v 9.559206 0.178696 84.297684
v 9.559206 0.178696 95.116280
v 9.559206 9.821304 95.116280
v 10.000000 0.162273 76.713745
v 10.000000 9.837727 76.713753
v 10.000000 9.837727 83.472313
v 10.000000 0.162273 83.472313
v 9.691934 9.837727 76.713753
v 9.691934 0.162273 76.713745
v 9.691934 0.162273 83.472313
v 9.691934 9.837727 83.472313
v -10.000000 18.653238 96.067093
v -10.000000 18.653238 76.067093
v 10.000000 18.653238 76.067093
v 10.000000 18.653238 96.067093
v 10.000000 18.653238 84.118988
v -10.000000 18.653238 84.118988
v -10.000000 18.653238 95.294975
v 10.000000 18.653238 95.294975
v 10.000000 18.653238 76.551476
v 10.000000 18.653238 83.634583
v -10.000000 18.653238 83.634583
v -10.000000 18.653238 76.551476
v 11.299034 20.000000 95.294975
v 11.299034 20.000000 96.067093
v 11.299034 20.000000 83.634583
v 11.299034 20.000000 84.118988
v 11.299034 20.000000 76.067093
v 11.299034 20.000000 76.551476
v 11.299034 18.653238 76.067093
v 11.299034 18.653238 96.067093
v 11.299034 18.653238 84.118988
v 11.299034 18.653238 95.294975
v 11.299034 18.653238 76.551476
v 11.299034 18.653238 83.634583
vt 0.665545 0.369655
vt 0.665545 0.347722
vt 0.673433 0.347722
vt 0.673433 0.369655
vt 0.304063 0.326567
vt 0.325996 0.326567
vt 0.325996 0.652278
vt 0.304063 0.652278
vt 0.325996 0.673433
vt 0.304063 0.673433
vt 0.021441 0.022218
vt 0.021441 0.000285
vt 0.347152 0.000285
vt 0.347152 0.022218
vt 0.686578 0.000285
vt 0.686578 0.325996
vt 0.674004 0.325996
vt 0.674004 0.000285
vt 0.360297 0.021441
vt 0.360297 0.347152
vt 0.347722 0.347152
vt 0.347722 0.021441
vt 0.021441 0.325996
vt 0.021441 0.163141
vt 0.347152 0.163141
vt 0.347152 0.325996
vt 0.674004 0.660859
vt 0.836859 0.660859
vt 0.836859 0.673433
vt 0.674004 0.673433
vt 0.000285 0.326567
vt 0.163141 0.326567
vt 0.163141 0.652278
vt 0.000285 0.652278
vt 0.665545 0.673433
vt 0.665545 0.510578
vt 0.673433 0.510578
vt 0.673433 0.673433
vt 0.360297 0.673433
vt 0.360297 0.510578
vt 0.542304 0.510578
vt 0.542304 0.673433
vt 0.674004 0.470963
vt 0.836859 0.470963
vt 0.836859 0.478852
vt 0.674004 0.478852
vt 0.550192 0.021441
vt 0.550193 0.347152
vt 0.542304 0.347152
vt 0.542304 0.021441
vt 0.876474 0.000285
vt 0.876474 0.325996
vt 0.868585 0.325996
vt 0.868585 0.000285
vt 0.347722 0.000285
vt 0.360297 0.000285
vt 0.360297 0.369655
vt 0.360297 0.347722
vt 0.542304 0.347722
vt 0.542304 0.369655
vt 0.347722 0.369655
vt 0.347722 0.347722
vt 0.347722 0.673433
vt 0.347722 0.510578
vt 0.342135 0.642848
vt 0.342135 0.642848
vt 0.342135 0.642848
vt 0.342135 0.642848
vt 0.999508 0.542304
vt 0.999508 0.550192
vt 0.978353 0.550192
vt 0.978353 0.542304
vt 0.673433 0.021441
vt 0.665545 0.021441
vt 0.665545 0.000285
vt 0.673433 0.000285
vt 0.999508 0.665545
vt 0.999508 0.673433
vt 0.978353 0.673433
vt 0.978353 0.665545
vt 0.999715 0.000285
vt 0.999715 0.325996
vt 0.991826 0.325996
vt 0.991826 0.000285
vt 0.673433 0.347152
vt 0.665545 0.347152
vt 0.674004 0.347722
vt 0.836859 0.347722
vt 0.836859 0.355611
vt 0.674004 0.355611
vt 0.460046 0.784071
vt 0.460046 0.674004
vt 0.465063 0.674004
vt 0.465063 0.784071
vt 0.550193 0.510578
vt 0.550193 0.673433
vt 0.550193 0.347722
vt 0.550193 0.369655
vt 0.334316 0.660359
vt 0.334316 0.503324
vt 0.341495 0.503324
vt 0.341495 0.660359
vt 0.342135 0.642848
vt 0.342135 0.642848
vt 0.342135 0.642848
vt 0.342135 0.642848
vt 0.163141 0.856011
vt 0.000285 0.856011
vt 0.003196 0.853101
vt 0.160231 0.853101
vt 0.000285 0.674004
vt 0.003196 0.676914
vt 0.163141 0.674004
vt 0.160231 0.676914
vt 0.320747 0.850191
vt 0.163711 0.850191
vt 0.163711 0.674004
vt 0.320747 0.674004
vt 0.326567 0.502754
vt 0.326567 0.326567
vt 0.333746 0.326567
vt 0.333745 0.502754
vt 0.334316 0.502754
vt 0.334316 0.326567
vt 0.341495 0.326567
vt 0.341495 0.502754
vt 0.333745 0.503324
vt 0.333745 0.660360
vt 0.326567 0.660360
vt 0.326567 0.503324
vt 0.834216 0.358254
vt 0.676647 0.358254
vt 0.834216 0.468320
vt 0.676647 0.468320
vt 0.431384 0.674004
vt 0.431384 0.831574
vt 0.321317 0.831574
vt 0.321317 0.674004
vt 0.347152 0.326567
vt 0.347152 0.484137
vt 0.342135 0.484137
vt 0.342135 0.326567
vt 0.342135 0.642277
vt 0.342135 0.484708
vt 0.347152 0.484708
vt 0.347152 0.642277
vt 0.454458 0.784071
vt 0.454458 0.674004
vt 0.459475 0.674004
vt 0.459475 0.784071
vt 0.977782 0.355611
vt 0.977782 0.470963
vt 0.977782 0.347722
vt 0.977782 0.478852
vt 0.977782 0.660859
vt 0.977782 0.673433
vt 0.431955 0.987141
vt 0.453888 0.987141
vt 0.453888 0.999715
vt 0.431955 0.999715
vt 0.431955 0.797245
vt 0.453888 0.797245
vt 0.453888 0.805133
vt 0.431955 0.805133
vt 0.431955 0.674004
vt 0.453888 0.674004
vt 0.453888 0.681892
vt 0.431955 0.681892
vt 0.999508 0.360297
vt 0.978353 0.360297
vt 0.550192 0.000285
vt 0.000285 0.022218
vt 0.000285 0.000285
vt 0.542304 0.000285
vt 0.999508 0.347722
vt 0.978353 0.347722
vn -1.0000 0.0000 0.0000
vn 0.0000 0.0000 -1.0000
vn 0.0000 0.0000 1.0000
vn 0.0000 -1.0000 0.0000
vn 0.0000 1.0000 0.0000
vn 1.0000 0.0000 0.0000
usemtl None
s off
f 68/1/1 26/2/1 4/3/1 58/4/1
f 58/5/2 4/6/2 8/7/2 59/8/2
f 59/8/2 8/7/2 73/9/2 75/10/2
f 60/11/3 6/12/3 2/13/3 57/14/3
f 19/15/4 23/16/4 5/17/4 1/18/4
f 20/19/5 22/20/5 2/21/5 6/22/5
f 5/23/3 12/24/3 9/25/3 1/26/3
f 23/27/6 21/28/6 12/29/6 5/30/6
f 3/31/2 10/32/2 11/33/2 7/34/2
f 31/35/1 30/36/1 10/37/1 3/38/1
f 19/39/1 24/40/1 18/41/1 13/42/1
f 27/43/6 36/44/6 17/45/6 15/46/6
f 34/47/5 25/48/5 14/49/5 16/50/5
f 32/51/4 27/52/4 15/53/4 13/54/4
f 20/19/5 6/22/5 70/55/5 69/56/5
f 63/57/1 22/58/1 14/59/1 62/60/1
f 57/61/1 2/62/1 22/58/1 63/57/1
f 1/63/1 9/64/1 24/40/1 19/39/1
f 23/65/3 15/66/3 38/67/3 37/68/3
f 16/50/5 14/49/5 22/20/5 20/19/5
f 13/54/4 15/53/4 23/16/4 19/15/4
f 61/69/4 66/70/4 80/71/4 77/72/4
f 8/73/5 33/74/5 74/75/5 73/76/5
f 65/77/4 59/78/4 75/79/4 79/80/4
f 3/81/4 7/82/4 28/83/4 31/84/4
f 31/84/4 28/83/4 27/52/4 32/51/4
f 8/73/5 4/85/5 26/86/5 33/74/5
f 33/74/5 26/86/5 25/48/5 34/47/5
f 7/87/6 11/88/6 35/89/6 28/90/6
f 50/91/4 51/92/4 56/93/4 53/94/4
f 13/42/1 18/41/1 29/95/1 32/96/1
f 32/96/1 29/95/1 30/36/1 31/35/1
f 62/60/1 14/59/1 25/97/1 67/98/1
f 67/98/1 25/97/1 26/2/1 68/1/1
f 43/99/2 44/100/2 47/101/2 48/102/2
f 21/103/3 23/65/3 37/68/3 40/104/3
f 15/66/3 17/105/3 39/106/3 38/67/3
f 17/105/3 21/103/3 40/104/3 39/106/3
f 38/107/6 39/108/6 42/109/6 41/110/6
f 39/108/6 40/111/6 43/112/6 42/109/6
f 40/111/6 37/113/6 44/114/6 43/112/6
f 37/113/6 38/107/6 41/110/6 44/114/6
f 46/115/6 45/116/6 48/117/6 47/118/6
f 44/119/5 41/120/5 46/121/5 47/122/5
f 42/123/4 43/124/4 48/125/4 45/126/4
f 41/127/3 42/128/3 45/129/3 46/130/3
f 28/90/6 35/89/6 50/131/6 49/132/6
f 35/89/6 36/44/6 51/133/6 50/131/6
f 36/44/6 27/43/6 52/134/6 51/133/6
f 27/43/6 28/90/6 49/132/6 52/134/6
f 54/135/6 53/136/6 56/137/6 55/138/6
f 49/139/3 50/140/3 53/141/3 54/142/3
f 51/143/2 52/144/2 55/145/2 56/146/2
f 52/147/5 49/148/5 54/149/5 55/150/5
f 29/95/1 67/98/1 68/1/1 30/36/1
f 18/41/1 62/60/1 67/98/1 29/95/1
f 35/89/6 65/151/6 66/152/6 36/44/6
f 11/88/6 59/153/6 65/151/6 35/89/6
f 17/45/6 61/154/6 64/155/6 21/28/6
f 9/64/1 57/61/1 63/57/1 24/40/1
f 24/40/1 63/57/1 62/60/1 18/41/1
f 36/44/6 66/152/6 61/154/6 17/45/6
f 12/24/3 60/11/3 57/14/3 9/25/3
f 21/28/6 64/155/6 60/156/6 12/29/6
f 10/32/2 58/5/2 59/8/2 11/33/2
f 30/36/1 68/1/1 58/4/1 10/37/1
f 78/157/6 69/158/6 70/159/6 76/160/6
f 80/161/6 71/162/6 72/163/6 77/164/6
f 77/164/6 72/163/6 69/158/6 78/157/6
f 75/165/6 73/166/6 74/167/6 79/168/6
f 79/168/6 74/167/6 71/162/6 80/161/6
f 64/169/4 61/69/4 77/72/4 78/170/4
f 33/74/5 34/47/5 71/171/5 74/75/5
f 6/12/3 60/11/3 76/172/3 70/173/3
f 16/50/5 20/19/5 69/56/5 72/174/5
f 34/47/5 16/50/5 72/174/5 71/171/5
f 66/70/4 65/77/4 79/80/4 80/71/4
f 60/175/4 64/169/4 78/170/4 76/176/4
