# Blender v2.81 (sub 16) OBJ File: 'AllMODULE.blend'
# www.blender.org
mtllib PIPE2.mtl
o Cube.031_Cube.036
v 37.495277 -1.000000 65.995262
v 37.495277 1.000000 65.995262
v 37.359337 -1.135942 63.995262
v 37.359337 1.135942 63.995262
v 39.495277 -1.000000 65.995262
v 39.495277 1.000000 65.995262
v 39.631218 -1.135942 63.995262
v 39.631218 1.135942 63.995262
v 37.495277 1.000000 60.435516
v 37.495277 -1.000000 60.435516
v 39.495277 -1.000000 60.435516
v 39.495277 1.000000 60.435516
v 37.345181 1.150098 56.753475
v 37.345181 -1.150098 56.753475
v 39.645374 -1.150098 56.753475
v 39.645374 1.150098 56.753475
v 37.612793 1.047854 54.284904
v 37.612793 -1.047854 54.284904
v 39.377762 -1.047854 55.414894
v 39.377762 1.047854 55.414894
v 38.906578 1.000000 52.791336
v 38.906578 -1.000000 52.791336
v 39.955917 -1.000000 54.493946
v 39.955917 1.000000 54.493946
v 41.082359 1.131935 51.434906
v 41.082359 -1.131935 51.434906
v 41.581429 -1.131935 53.643082
v 41.581429 1.131935 53.643082
v 43.431469 1.000000 51.081524
v 43.431469 -1.000000 51.081524
v 43.299759 -1.000000 53.077179
v 43.299759 1.000000 53.077179
v 45.538193 1.000000 51.220566
v 45.538193 -1.000000 51.220566
v 45.406483 -1.000000 53.216221
v 45.406483 1.000000 53.216221
v 37.145691 -1.349587 67.591576
v 37.145691 1.349587 67.591576
v 39.844864 1.349587 67.591576
v 39.844864 -1.349587 67.591576
v 47.056679 1.192470 51.127892
v 47.056679 -1.192470 51.127892
v 46.899616 -1.192470 53.507652
v 46.899616 1.192470 53.507652
v 49.476593 1.053054 51.427322
v 49.476593 -1.053054 51.427322
v 49.337894 -1.053054 53.528858
v 49.337894 1.053054 53.528858
v 52.164970 1.023633 51.592388
v 51.787991 -1.048461 51.592388
v 51.651531 -1.023634 53.693924
v 52.028511 1.048460 53.693924
v 54.240128 0.405112 51.694847
v 52.727596 -1.060475 51.694847
v 52.631081 -0.960865 53.796383
v 54.143608 0.504722 53.796383
v 55.380043 -1.120016 51.779449
v 53.294594 -1.414276 51.779449
v 53.275215 -1.276936 53.880985
v 55.360664 -0.982677 53.880985
v 55.457352 -1.789025 51.815235
v 53.351475 -1.820331 51.815235
v 53.349411 -1.681646 53.916771
v 55.455292 -1.650341 53.916771
vt 0.862990 0.827482
vt 0.862990 0.895442
vt 0.791093 0.900259
vt 0.791093 0.823061
vt 0.514383 0.992710
vt 0.514383 0.915497
vt 0.642635 0.920267
vt 0.642635 0.988239
vt 0.442114 0.988141
vt 0.442114 0.920169
vt 0.664569 0.765657
vt 0.713123 0.715200
vt 0.759871 0.747305
vt 0.694342 0.815401
vt 0.613835 0.717425
vt 0.668990 0.660109
vt 0.291417 0.155009
vt 0.237799 0.096037
vt 0.289939 0.049608
vt 0.337140 0.101523
vt 0.775584 0.915135
vt 0.775584 0.993310
vt 0.532379 0.622300
vt 0.580933 0.571843
vt 0.201128 0.240753
vt 0.153927 0.188839
vt 0.662563 0.895650
vt 0.662563 0.827690
vt 0.060304 0.277009
vt 0.114590 0.336716
vt 0.075530 0.363387
vt 0.006232 0.345871
vt 0.441321 0.531044
vt 0.497163 0.473013
vt 0.530050 0.901024
vt 0.530050 0.822864
vt 0.440660 0.826188
vt 0.440660 0.897400
vt 0.384891 0.894657
vt 0.384891 0.826697
vt 0.823593 0.918804
vt 0.823593 0.990029
vt 0.389035 0.460710
vt 0.458750 0.445319
vt 0.876685 0.000229
vt 0.944582 0.003672
vt 0.945921 0.063509
vt 0.869066 0.059612
vt 0.857388 0.920079
vt 0.857388 0.988051
vt 0.384891 0.389590
vt 0.450848 0.407018
vt 0.066646 0.401502
vt 0.000229 0.416902
vt 0.018392 0.507224
vt 0.084190 0.464880
vt 0.110904 0.523779
vt 0.065191 0.577175
vt 0.405577 0.299634
vt 0.470195 0.343980
vt 0.854752 0.597280
vt 0.786886 0.601247
vt 0.777399 0.524062
vt 0.854219 0.519571
vt 0.164025 0.574982
vt 0.118312 0.628378
vt 0.777217 0.439427
vt 0.845084 0.435460
vt 0.938333 0.125880
vt 0.870436 0.122437
vt 0.454089 0.231346
vt 0.498341 0.286127
vt 0.867152 0.198143
vt 0.935049 0.201585
vt 0.939378 0.255332
vt 0.858413 0.251226
vt 0.773348 0.363449
vt 0.841214 0.359482
vt 0.508540 0.181782
vt 0.552792 0.236562
vt 0.760329 0.699138
vt 0.760329 0.601765
vt 0.852022 0.601706
vt 0.852022 0.699080
vt 0.320730 0.000229
vt 0.384432 0.070293
vt 0.384891 0.999771
vt 0.384891 0.908036
vt 0.921057 0.815860
vt 0.921057 0.907578
vt 0.844826 0.304468
vt 0.763897 0.309199
vt 0.764277 0.221554
vt 0.835744 0.217377
vt 0.543370 0.140953
vt 0.596139 0.206277
vt 0.206388 0.606261
vt 0.151877 0.669933
vt 0.859257 0.339261
vt 0.930756 0.342887
vt 0.926159 0.425962
vt 0.855211 0.435973
vt 0.609116 0.087717
vt 0.655715 0.145404
vt 0.264455 0.669152
vt 0.216317 0.725380
vt 0.283803 0.791058
vt 0.331993 0.734864
vt 0.384432 0.787712
vt 0.335301 0.842939
vt 0.669151 0.033663
vt 0.715783 0.091310
vt 0.760329 0.124550
vt 0.831351 0.134018
vt 0.870350 0.512962
vt 0.922525 0.461007
vt 0.932278 0.484646
vt 0.918950 0.559252
vt 0.777483 0.048507
vt 0.830060 0.100081
vt 0.694408 0.012591
vt 0.741945 0.069282
vt 0.852512 0.677652
vt 0.852480 0.601706
vt 0.866376 0.601956
vt 0.866376 0.677878
vt 0.710495 0.000229
vt 0.759871 0.054999
vt 0.840364 0.700304
vt 0.840364 0.771884
vt 0.785858 0.771163
vt 0.784546 0.699597
vt 0.827148 0.004365
vt 0.841056 0.078898
vt 0.840823 0.775504
vt 0.840823 0.699597
vt 0.912235 0.699845
vt 0.912235 0.775753
vt 0.761678 0.771204
vt 0.760329 0.699653
vt 0.849728 0.000229
vt 0.854752 0.076020
vt 0.945921 0.487970
vt 0.941487 0.563765
vn -0.9977 0.0000 0.0678
vn 0.9993 0.0000 -0.0382
vn 0.9977 0.0000 0.0678
vn 0.0000 -0.9768 -0.2139
vn 0.0000 -0.9977 0.0678
vn 0.0000 0.9977 0.0678
vn 0.9992 0.0000 0.0407
vn 0.0000 -0.9993 -0.0382
vn 0.0000 0.9993 -0.0382
vn -0.9993 0.0000 -0.0382
vn 0.0149 0.9984 -0.0536
vn 0.0000 -0.9992 0.0407
vn 0.0000 0.9992 0.0407
vn -0.9992 0.0000 0.0407
vn -0.7559 0.0000 -0.6547
vn -0.9942 0.0000 -0.1078
vn 0.9806 0.0000 -0.1960
vn 0.0149 -0.9984 -0.0536
vn 0.4638 0.0000 0.8860
vn 0.8469 0.0000 0.5317
vn 0.0224 -0.9995 -0.0223
vn 0.0224 0.9995 -0.0223
vn 0.0635 0.9980 -0.0055
vn -0.0563 -0.9982 0.0223
vn -0.0563 0.9982 0.0223
vn -0.5290 0.0000 -0.8486
vn 0.0000 1.0000 0.0000
vn -0.1488 0.0000 -0.9889
vn 0.3128 0.0000 0.9498
vn 0.0635 -0.9980 -0.0055
vn -0.1916 0.0000 0.9815
vn 0.0659 0.0000 -0.9978
vn -0.0659 0.0000 0.9978
vn 0.0000 -1.0000 0.0000
vn 0.0000 0.0000 1.0000
vn 0.0000 0.9768 -0.2139
vn 0.9768 0.0000 -0.2139
vn -0.9768 0.0000 -0.2139
vn 0.1228 0.0000 -0.9924
vn -0.1262 -0.9920 -0.0083
vn -0.1262 0.9920 -0.0083
vn -0.0609 0.0000 -0.9981
vn -0.0659 0.0059 0.9978
vn -0.0087 0.0000 1.0000
vn 0.0571 -0.9984 0.0038
vn 0.0571 0.9984 0.0038
vn 0.2679 0.9634 -0.0137
vn 0.0069 -1.0000 0.0064
vn 0.0067 1.0000 -0.0055
vn 0.0659 -0.0059 -0.9978
vn -0.0304 0.0622 0.9976
vn 0.0610 -0.0326 -0.9976
vn -0.0610 0.0326 0.9976
vn 0.0231 -0.9993 0.0309
vn -0.9872 -0.1591 0.0054
vn -0.4875 -0.8724 0.0357
vn 0.7879 0.6157 -0.0130
vn 0.0304 -0.0622 -0.9976
vn 0.0148 -0.9977 0.0659
vn 0.9918 0.1274 -0.0033
vn 0.0051 -0.0658 -0.9978
vn -0.0051 0.0658 0.9978
usemtl None
s off
f 1/1/1 2/2/1 4/3/1 3/4/1
f 8/5/2 7/6/2 11/7/2 12/8/2
f 7/6/3 8/5/3 6/9/3 5/10/3
f 1/11/4 5/12/4 40/13/4 37/14/4
f 3/15/5 7/16/5 5/12/5 1/11/5
f 8/17/6 4/18/6 2/19/6 6/20/6
f 12/8/7 11/7/7 15/21/7 16/22/7
f 7/16/8 3/15/8 10/23/8 11/24/8
f 4/18/9 8/17/9 12/25/9 9/26/9
f 3/4/10 4/3/10 9/27/10 10/28/10
f 13/29/11 16/30/11 20/31/11 17/32/11
f 11/24/12 10/23/12 14/33/12 15/34/12
f 9/26/13 12/25/13 16/30/13 13/29/13
f 10/28/14 9/27/14 13/35/14 14/36/14
f 18/37/15 17/38/15 21/39/15 22/40/15
f 14/36/16 13/35/16 17/38/16 18/37/16
f 16/22/17 15/21/17 19/41/17 20/42/17
f 15/34/18 14/33/18 18/43/18 19/44/18
f 24/45/19 23/46/19 27/47/19 28/48/19
f 20/42/20 19/41/20 23/49/20 24/50/20
f 19/44/21 18/43/21 22/51/21 23/52/21
f 17/32/22 20/31/22 24/53/22 21/54/22
f 25/55/23 28/56/23 32/57/23 29/58/23
f 23/52/24 22/51/24 26/59/24 27/60/24
f 21/54/25 24/53/25 28/56/25 25/55/25
f 22/61/26 21/62/26 25/63/26 26/64/26
f 29/58/27 32/57/27 36/65/27 33/66/27
f 26/64/28 25/63/28 29/67/28 30/68/28
f 28/48/29 27/47/29 31/69/29 32/70/29
f 27/60/30 26/59/30 30/71/30 31/72/30
f 36/73/31 35/74/31 43/75/31 44/76/31
f 30/68/32 29/67/32 33/77/32 34/78/32
f 32/70/33 31/69/33 35/74/33 36/73/33
f 31/72/34 30/71/34 34/79/34 35/80/34
f 40/81/35 39/82/35 38/83/35 37/84/35
f 6/20/36 2/19/36 38/85/36 39/86/36
f 5/10/37 6/9/37 39/87/37 40/88/37
f 2/2/38 1/1/38 37/89/38 38/90/38
f 42/91/39 41/92/39 45/93/39 46/94/39
f 35/80/40 34/79/40 42/95/40 43/96/40
f 33/66/41 36/65/41 44/97/41 41/98/41
f 34/78/42 33/77/42 41/92/42 42/91/42
f 48/99/43 47/100/43 51/101/43 52/102/43
f 44/76/44 43/75/44 47/100/44 48/99/44
f 43/96/45 42/95/45 46/103/45 47/104/45
f 41/98/46 44/97/46 48/105/46 45/106/46
f 49/107/47 52/108/47 56/109/47 53/110/47
f 47/104/48 46/103/48 50/111/48 51/112/48
f 45/106/49 48/105/49 52/108/49 49/107/49
f 46/94/50 45/93/50 49/113/50 50/114/50
f 56/115/51 55/116/51 59/117/51 60/118/51
f 50/114/52 49/113/52 53/119/52 54/120/52
f 52/102/53 51/101/53 55/116/53 56/115/53
f 51/112/54 50/111/54 54/121/54 55/122/54
f 59/123/55 58/124/55 62/125/55 63/126/55
f 55/122/56 54/121/56 58/127/56 59/128/56
f 53/129/57 56/130/57 60/131/57 57/132/57
f 54/120/58 53/119/58 57/133/58 58/134/58
f 62/135/59 61/136/59 64/137/59 63/138/59
f 57/132/60 60/131/60 64/139/60 61/140/60
f 58/134/61 57/133/61 61/141/61 62/142/61
f 60/118/62 59/117/62 63/143/62 64/144/62
