# Blender v2.81 (sub 16) OBJ File: 'AllMODULE.blend'
# www.blender.org
mtllib TRASH1.mtl
o Cube.032_Cube.037
v -0.872354 0.089080 -31.433100
v -1.072938 4.502584 -31.232517
v -0.872354 0.089080 -33.177807
v -1.072938 4.502584 -33.378391
v 0.872354 0.089080 -31.791613
v 0.513842 0.089080 -31.433100
v 0.714425 4.502584 -31.232517
v 1.072937 4.502584 -31.591030
v 0.513842 0.089080 -33.177807
v 0.872354 0.089080 -32.819298
v 1.072937 4.502584 -33.019878
v 0.714425 4.502584 -33.378391
v -1.072938 4.603675 -31.232517
v -1.072938 4.603675 -33.378391
v 0.841610 4.502584 -33.685444
v 1.379990 4.502584 -33.147064
v 1.379990 4.502584 -31.463844
v 0.841610 4.502584 -30.925465
v -1.072938 4.502584 -30.900166
v -1.072938 4.502584 -33.710743
v 0.841610 4.603675 -33.685444
v 1.379990 4.603675 -33.147064
v 1.379990 4.603675 -31.463844
v 0.841610 4.603675 -30.925465
v -1.072938 4.603675 -30.900166
v -1.072938 4.603675 -33.710743
v -0.897465 4.764643 -31.368605
v -0.897465 4.764643 -33.242302
v 0.663194 4.764643 -33.242302
v 0.976234 4.764643 -32.929264
v 0.976234 4.764643 -31.681644
v 0.663194 4.764643 -31.368605
v -0.897465 4.764643 -33.532501
v 1.244341 4.764643 -31.570591
v 0.774248 4.764643 -31.100498
v 0.774248 4.764643 -33.510410
v 1.244341 4.764643 -33.040318
v -0.897465 4.764643 -31.078407
vt 0.801187 0.556433
vt 0.315971 0.619404
vt 0.325287 0.335944
vt 0.798101 0.355213
vt 0.807852 0.708068
vt 0.310252 0.763788
vt 0.307579 0.201236
vt 0.311291 0.311799
vt 0.295683 0.313352
vt 0.290149 0.200769
vt 0.805425 0.170088
vt 0.339013 0.150010
vt 0.328095 0.009567
vt 0.813915 0.067473
vt 0.344491 0.199673
vt 0.803607 0.219605
vt 0.813915 0.766086
vt 0.307830 0.818970
vt 0.999899 0.000101
vt 0.999899 0.147708
vt 0.961724 0.185884
vt 0.852292 0.185884
vt 0.814116 0.147708
vt 0.814116 0.000101
vt 0.302433 0.618015
vt 0.297068 0.643876
vt 0.281329 0.639726
vt 0.265622 0.608359
vt 0.315264 0.200986
vt 0.312973 0.149840
vt 0.316980 0.311339
vt 0.313330 0.336811
vt 0.273920 0.756802
vt 0.257932 0.822819
vt 0.234866 0.812066
vt 0.256174 0.753660
vt 0.302698 0.645749
vt 0.281836 0.758222
vt 0.268200 0.825425
vt 0.304969 0.150618
vt 0.298984 0.000101
vt 0.288392 0.001144
vt 0.275266 0.341226
vt 0.287490 0.149082
vt 0.261394 0.152219
vt 0.242098 0.029386
vt 0.267766 0.014494
vt 0.006522 0.376212
vt 0.052763 0.333193
vt 0.043119 0.600326
vt 0.000101 0.554085
vt 0.213861 0.790088
vt 0.232574 0.747653
vt 0.266580 0.199167
vn -0.9990 -0.0454 0.0000
vn 0.0000 -0.0454 0.9990
vn 0.0089 0.7377 -0.6750
vn 0.9990 -0.0454 0.0000
vn 0.0000 -0.0454 -0.9990
vn 0.7057 -0.0641 -0.7056
vn 0.7056 -0.0641 0.7057
vn 0.0000 -1.0000 -0.0000
vn -0.6760 0.7369 0.0000
vn -1.0000 0.0000 0.0000
vn 0.4841 0.7289 0.4841
vn 0.0132 0.0000 0.9999
vn 0.7071 0.0000 0.7071
vn 0.0132 0.0000 -0.9999
vn 0.7071 0.0000 -0.7071
vn 1.0000 0.0000 0.0000
vn 0.0089 0.7377 0.6750
vn 0.4841 0.7289 -0.4841
vn 0.0000 1.0000 0.0000
vn 0.7647 0.6444 0.0000
usemtl None
s off
f 1/1/1 2/2/1 4/3/1 3/4/1
f 6/5/2 7/6/2 2/2/2 1/1/2
f 21/7/3 26/8/3 33/9/3 36/10/3
f 10/11/4 11/12/4 8/13/4 5/14/4
f 3/4/5 4/3/5 12/15/5 9/16/5
f 11/12/6 10/11/6 9/16/6 12/15/6
f 7/6/7 6/5/7 5/17/7 8/18/7
f 3/19/8 9/20/8 10/21/8 5/22/8 6/23/8 1/24/8
f 13/25/9 25/26/9 38/27/9 27/28/9
f 11/12/8 12/15/8 15/29/8 16/30/8
f 12/15/8 4/3/8 20/31/8 15/29/8
f 4/3/10 14/32/10 26/8/10 20/31/10
f 24/33/11 23/34/11 34/35/11 35/36/11
f 4/3/10 2/2/10 13/25/10 14/32/10
f 19/37/12 18/38/12 24/33/12 25/26/12
f 18/38/13 17/39/13 23/34/13 24/33/13
f 15/29/14 20/31/14 26/8/14 21/7/14
f 16/30/15 15/29/15 21/7/15 22/40/15
f 17/41/16 16/30/16 22/40/16 23/42/16
f 13/25/10 2/2/10 19/37/10 25/26/10
f 7/6/8 8/18/8 17/39/8 18/38/8
f 8/13/8 11/12/8 16/30/8 17/41/8
f 25/26/17 24/33/17 35/36/17 38/27/17
f 14/32/9 13/25/9 27/28/9 28/43/9
f 2/2/8 7/6/8 18/38/8 19/37/8
f 22/40/18 21/7/18 36/10/18 37/44/18
f 30/45/19 31/46/19 34/47/19 37/44/19
f 30/48/19 29/49/19 28/43/19 27/28/19 32/50/19 31/51/19
f 31/52/19 32/53/19 35/36/19 34/35/19
f 32/53/19 27/28/19 38/27/19 35/36/19
f 29/54/19 30/45/19 37/44/19 36/10/19
f 28/43/19 29/54/19 36/10/19 33/9/19
f 23/42/20 22/40/20 37/44/20 34/47/20
f 26/8/9 14/32/9 28/43/9 33/9/9
