# Blender v2.81 (sub 16) OBJ File: 'AllMODULE.blend'
# www.blender.org
mtllib TRASH2.mtl
o Cylinder.001
v 0.000000 -0.161098 -39.006699
v -0.000000 1.161098 -38.900642
v 0.216942 -0.161098 -38.957184
v 0.170926 1.161098 -38.861629
v 0.390916 -0.161098 -38.818443
v 0.307998 1.161098 -38.752319
v 0.487464 -0.161098 -38.617958
v 0.384067 1.161098 -38.594360
v 0.487464 -0.161098 -38.395439
v 0.384067 1.161098 -38.419037
v 0.390916 -0.161098 -38.194954
v 0.307998 1.161098 -38.261078
v 0.216942 -0.161098 -38.056213
v 0.170926 1.161098 -38.151768
v 0.000000 -0.161098 -38.006699
v 0.000000 1.161098 -38.112755
v -0.216942 -0.161098 -38.056213
v -0.170926 1.161098 -38.151768
v -0.390916 -0.161098 -38.194954
v -0.307998 1.161098 -38.261078
v -0.487464 -0.161098 -38.395439
v -0.384067 1.161098 -38.419037
v -0.487464 -0.161098 -38.617958
v -0.384067 1.161098 -38.594360
v -0.390916 -0.161098 -38.818443
v -0.307998 1.161098 -38.752319
v -0.216942 -0.161098 -38.957184
v -0.170926 1.161098 -38.861629
v 0.216942 1.161098 -38.957184
v 0.000000 1.161098 -39.006699
v 0.390916 1.161098 -38.818443
v 0.487464 1.161098 -38.617958
v 0.487464 1.161098 -38.395439
v 0.390916 1.161098 -38.194954
v 0.216942 1.161098 -38.056213
v 0.000000 1.161098 -38.006699
v -0.216942 1.161098 -38.056213
v -0.390916 1.161098 -38.194954
v -0.487464 1.161098 -38.395439
v -0.487464 1.161098 -38.617958
v -0.390916 1.161098 -38.818443
v -0.216942 1.161098 -38.957184
v 0.170926 0.177586 -38.861629
v 0.000000 0.177586 -38.900642
v 0.307998 0.177586 -38.752319
v 0.384067 0.177586 -38.594360
v 0.384067 0.177586 -38.419037
v 0.307998 0.177586 -38.261078
v 0.170926 0.177586 -38.151768
v 0.000000 0.177586 -38.112755
v -0.170926 0.177586 -38.151768
v -0.307998 0.177586 -38.261078
v -0.384067 0.177586 -38.419037
v -0.384067 0.177586 -38.594360
v -0.307998 0.177586 -38.752319
v -0.170926 0.177586 -38.861629
v -0.559998 -0.162181 -38.548218
v -0.559998 1.317923 -38.548218
v -0.535459 -0.162181 -38.690014
v -0.535459 1.317923 -38.690014
v -0.488854 -0.162181 -38.535908
v -0.488854 1.317923 -38.535908
v -0.464315 -0.162181 -38.677704
v -0.464315 1.317923 -38.677704
v -0.528774 -0.162181 -38.306767
v -0.528774 1.317923 -38.306767
v -0.572181 -0.162181 -38.443966
v -0.572181 1.317923 -38.443966
v -0.459936 -0.162181 -38.328545
v -0.459936 1.317923 -38.328545
v -0.503343 -0.162181 -38.465744
v -0.503343 1.317923 -38.465744
v 0.568840 -0.162181 -38.456093
v 0.568840 1.317923 -38.456093
v 0.542051 -0.162181 -38.314705
v 0.542051 1.317923 -38.314705
v 0.497901 -0.162181 -38.469532
v 0.497901 1.317923 -38.469532
v 0.471111 -0.162181 -38.328148
v 0.471111 1.317923 -38.328148
v 0.527276 -0.162181 -38.700027
v 0.527276 1.317923 -38.700027
v 0.568496 -0.162181 -38.562157
v 0.568496 1.317923 -38.562157
v 0.458100 -0.162181 -38.679348
v 0.458100 1.317923 -38.679348
v 0.499320 -0.162181 -38.541473
v 0.499320 1.317923 -38.541473
v 0.173882 -0.162181 -39.040512
v 0.173882 1.317923 -39.040512
v 0.305358 -0.162181 -38.982014
v 0.305358 1.317923 -38.982014
v 0.144531 -0.162181 -38.974548
v 0.144531 1.317923 -38.974548
v 0.276007 -0.162181 -38.916050
v 0.276007 1.317923 -38.916050
v -0.069983 -0.162317 -39.072823
v -0.069983 1.317787 -39.072823
v 0.073767 -0.162317 -39.066208
v 0.073767 1.317787 -39.066208
v -0.073303 -0.162317 -39.000698
v -0.073303 1.317787 -39.000698
v 0.070447 -0.162317 -38.994080
v 0.070447 1.317787 -38.994080
v -0.330347 -0.161841 -38.974052
v -0.330347 1.318264 -38.974052
v -0.204587 -0.161841 -39.043999
v -0.204587 1.318264 -39.043999
v -0.295253 -0.161841 -38.910954
v -0.295253 1.318264 -38.910954
v -0.169493 -0.161841 -38.980900
v -0.169493 1.318264 -38.980900
v -0.485177 -0.161772 -38.796505
v -0.485177 1.318333 -38.796505
v -0.403805 -0.161772 -38.915192
v -0.403805 1.318333 -38.915192
v -0.425627 -0.161772 -38.755680
v -0.425627 1.318333 -38.755680
v -0.344255 -0.161772 -38.874367
v -0.344255 1.318333 -38.874367
v 0.403424 -0.162181 -38.913223
v 0.403424 1.317923 -38.913223
v 0.484005 -0.162181 -38.793999
v 0.484005 1.317923 -38.793999
v 0.343604 -0.162181 -38.872791
v 0.343604 1.317923 -38.872791
v 0.424185 -0.162181 -38.753567
v 0.424185 1.317923 -38.753567
v 0.481940 -0.162181 -38.209152
v 0.481940 1.317923 -38.209152
v 0.391960 -0.162181 -38.096851
v 0.391960 1.317923 -38.096851
v 0.425594 -0.162181 -38.254299
v 0.425594 1.317923 -38.254299
v 0.335614 -0.162181 -38.141998
v 0.335614 1.317923 -38.141998
v 0.305895 -0.162181 -38.029819
v 0.305895 1.317923 -38.029819
v 0.177727 -0.162181 -37.964394
v 0.177727 1.317923 -37.964394
v 0.273067 -0.162181 -38.094128
v 0.273067 1.317923 -38.094128
v 0.144899 -0.162181 -38.028698
v 0.144899 1.317923 -38.028698
v 0.070896 -0.162181 -37.946037
v 0.070896 1.317923 -37.946037
v -0.073005 -0.162181 -37.946644
v -0.073005 1.317923 -37.946644
v 0.071201 -0.162181 -38.018238
v 0.071201 1.317923 -38.018238
v -0.072701 -0.162181 -38.018845
v -0.072701 1.317923 -38.018845
v -0.185061 -0.162181 -37.961277
v -0.185061 1.317923 -37.961277
v -0.311562 -0.162181 -38.029873
v -0.311562 1.317923 -38.029873
v -0.150644 -0.162181 -38.024746
v -0.150644 1.317923 -38.024746
v -0.277145 -0.162181 -38.093342
v -0.277145 1.317923 -38.093342
v -0.393810 -0.162181 -38.101677
v -0.393810 1.317923 -38.101677
v -0.489211 -0.162181 -38.209408
v -0.489211 1.317923 -38.209408
v -0.339755 -0.162181 -38.149544
v -0.339755 1.317923 -38.149544
v -0.435157 -0.162181 -38.257275
v -0.435157 1.317923 -38.257275
vt 0.533211 0.933211
vt 0.533211 0.800366
vt 0.552189 0.800366
vt 0.552189 0.933211
vt 0.571167 0.800366
vt 0.571167 0.933211
vt 0.590145 0.800366
vt 0.590145 0.933211
vt 0.609123 0.800366
vt 0.609123 0.933211
vt 0.628101 0.800366
vt 0.628101 0.933211
vt 0.647079 0.800366
vt 0.647079 0.933211
vt 0.666057 0.800366
vt 0.666057 0.933211
vt 0.685034 0.800366
vt 0.685034 0.933211
vt 0.704012 0.800366
vt 0.704012 0.933211
vt 0.722990 0.800366
vt 0.722990 0.933211
vt 0.741968 0.800366
vt 0.741968 0.933211
vt 0.760946 0.800366
vt 0.760946 0.933211
vt 0.861801 0.013892
vt 0.883599 0.018867
vt 0.883599 0.018867
vt 0.861801 0.013892
vt 0.779924 0.800366
vt 0.779924 0.933211
vt 0.798902 0.800366
vt 0.798902 0.933211
vt 0.799634 0.206585
vt 0.811947 0.232153
vt 0.834134 0.249846
vt 0.861801 0.256161
vt 0.889468 0.249846
vt 0.911655 0.232153
vt 0.923968 0.206585
vt 0.923968 0.178206
vt 0.911655 0.152638
vt 0.889468 0.134945
vt 0.861801 0.128630
vt 0.834134 0.134945
vt 0.811947 0.152638
vt 0.799634 0.178206
vt 0.901080 0.032808
vt 0.889468 0.006681
vt 0.911655 0.024375
vt 0.861801 0.000366
vt 0.840002 0.018867
vt 0.834134 0.006681
vt 0.822521 0.032808
vt 0.811947 0.024375
vt 0.812820 0.052952
vt 0.799634 0.049943
vt 0.812820 0.075311
vt 0.799634 0.078321
vt 0.822521 0.095456
vt 0.811947 0.103889
vt 0.840002 0.109397
vt 0.834134 0.121583
vt 0.861801 0.114372
vt 0.861801 0.127898
vt 0.883599 0.109397
vt 0.889468 0.121583
vt 0.901080 0.095456
vt 0.911655 0.103889
vt 0.910782 0.075311
vt 0.923968 0.078321
vt 0.910781 0.052952
vt 0.923968 0.049943
vt 0.901080 0.032808
vt 0.910781 0.052952
vt 0.910782 0.075311
vt 0.901080 0.095456
vt 0.883599 0.109397
vt 0.861801 0.114372
vt 0.840002 0.109397
vt 0.822521 0.095456
vt 0.812820 0.075311
vt 0.812820 0.052952
vt 0.822521 0.032807
vt 0.840002 0.018867
vt 0.532479 0.666789
vt 0.532479 0.733211
vt 0.466056 0.733211
vt 0.466056 0.666789
vt 0.399634 0.733211
vt 0.399634 0.666789
vt 0.333211 0.733211
vt 0.333211 0.666789
vt 0.266789 0.733211
vt 0.266789 0.666789
vt 0.399634 0.600366
vt 0.333211 0.600366
vt 0.399634 0.799634
vt 0.333211 0.799634
vt 0.798902 0.266789
vt 0.798902 0.333211
vt 0.732479 0.333211
vt 0.732479 0.266789
vt 0.666057 0.333211
vt 0.666057 0.266789
vt 0.599634 0.333211
vt 0.599634 0.266789
vt 0.533211 0.333211
vt 0.533211 0.266789
vt 0.666057 0.200366
vt 0.599634 0.200366
vt 0.666056 0.399634
vt 0.599634 0.399634
vt 0.532479 0.866789
vt 0.532479 0.933211
vt 0.466056 0.933211
vt 0.466056 0.866789
vt 0.399634 0.933211
vt 0.399634 0.866789
vt 0.333211 0.933211
vt 0.333211 0.866789
vt 0.266789 0.933211
vt 0.266789 0.866789
vt 0.399634 0.800366
vt 0.333211 0.800366
vt 0.399634 0.999634
vt 0.333211 0.999634
vt 0.266056 0.666789
vt 0.266056 0.733211
vt 0.199634 0.733211
vt 0.199634 0.666789
vt 0.133211 0.733211
vt 0.133211 0.666789
vt 0.066789 0.733211
vt 0.066789 0.666789
vt 0.000366 0.733211
vt 0.000366 0.666789
vt 0.133211 0.600366
vt 0.066789 0.600366
vt 0.133211 0.799634
vt 0.066789 0.799634
vt 0.798902 0.666789
vt 0.798902 0.733211
vt 0.732479 0.733211
vt 0.732479 0.666789
vt 0.666057 0.733211
vt 0.666057 0.666789
vt 0.599634 0.733211
vt 0.599634 0.666789
vt 0.533211 0.733211
vt 0.533211 0.666789
vt 0.666057 0.600366
vt 0.599634 0.600366
vt 0.666056 0.799634
vt 0.599634 0.799634
vt 0.798902 0.466789
vt 0.798902 0.533211
vt 0.732479 0.533211
vt 0.732479 0.466789
vt 0.666057 0.533211
vt 0.666057 0.466789
vt 0.599634 0.533211
vt 0.599634 0.466789
vt 0.533211 0.533211
vt 0.533211 0.466789
vt 0.666057 0.400366
vt 0.599634 0.400366
vt 0.666056 0.599634
vt 0.599634 0.599634
vt 0.266056 0.866789
vt 0.266056 0.933211
vt 0.199634 0.933211
vt 0.199634 0.866789
vt 0.133211 0.933211
vt 0.133211 0.866789
vt 0.066789 0.933211
vt 0.066789 0.866789
vt 0.000366 0.933211
vt 0.000366 0.866789
vt 0.133211 0.800366
vt 0.066789 0.800366
vt 0.133211 0.999634
vt 0.066789 0.999634
vt 0.798902 0.066789
vt 0.798902 0.133211
vt 0.732479 0.133211
vt 0.732479 0.066789
vt 0.666057 0.133211
vt 0.666057 0.066789
vt 0.599634 0.133211
vt 0.599634 0.066789
vt 0.533211 0.133211
vt 0.533211 0.066789
vt 0.666057 0.000366
vt 0.599634 0.000366
vt 0.666056 0.199634
vt 0.599634 0.199634
vt 0.532479 0.466789
vt 0.532479 0.533211
vt 0.466056 0.533211
vt 0.466056 0.466789
vt 0.399634 0.533211
vt 0.399634 0.466789
vt 0.333211 0.533211
vt 0.333211 0.466789
vt 0.266789 0.533211
vt 0.266789 0.466789
vt 0.399634 0.400366
vt 0.333211 0.400366
vt 0.399634 0.599634
vt 0.333211 0.599634
vt 0.266056 0.466789
vt 0.266056 0.533211
vt 0.199634 0.533211
vt 0.199634 0.466789
vt 0.133211 0.533211
vt 0.133211 0.466789
vt 0.066789 0.533211
vt 0.066789 0.466789
vt 0.000366 0.533211
vt 0.000366 0.466789
vt 0.133211 0.400366
vt 0.066789 0.400366
vt 0.133211 0.599634
vt 0.066789 0.599634
vt 0.532479 0.266789
vt 0.532479 0.333211
vt 0.466056 0.333211
vt 0.466056 0.266789
vt 0.399634 0.333211
vt 0.399634 0.266789
vt 0.333211 0.333211
vt 0.333211 0.266789
vt 0.266789 0.333211
vt 0.266789 0.266789
vt 0.399634 0.200366
vt 0.333211 0.200366
vt 0.399634 0.399634
vt 0.333211 0.399634
vt 0.532479 0.066789
vt 0.532479 0.133211
vt 0.466056 0.133211
vt 0.466056 0.066789
vt 0.399634 0.133211
vt 0.399634 0.066789
vt 0.333211 0.133211
vt 0.333211 0.066789
vt 0.266789 0.133211
vt 0.266789 0.066789
vt 0.399634 0.000366
vt 0.333211 0.000366
vt 0.399634 0.199634
vt 0.333211 0.199634
vt 0.266056 0.266789
vt 0.266056 0.333211
vt 0.199634 0.333211
vt 0.199634 0.266789
vt 0.133211 0.333211
vt 0.133211 0.266789
vt 0.066789 0.333211
vt 0.066789 0.266789
vt 0.000366 0.333211
vt 0.000366 0.266789
vt 0.133211 0.200366
vt 0.066789 0.200366
vt 0.133211 0.399634
vt 0.066789 0.399634
vt 0.266056 0.066789
vt 0.266056 0.133211
vt 0.199634 0.133211
vt 0.199634 0.066789
vt 0.133211 0.133211
vt 0.133211 0.066789
vt 0.066789 0.133211
vt 0.066789 0.066789
vt 0.000366 0.133211
vt 0.000366 0.066789
vt 0.133211 0.000366
vt 0.066789 0.000366
vt 0.133211 0.199634
vt 0.066789 0.199634
vn 0.2225 0.0000 -0.9749
vn 0.6235 0.0000 -0.7818
vn 0.9010 0.0000 -0.4339
vn 1.0000 0.0000 0.0000
vn 0.9010 0.0000 0.4339
vn 0.6235 0.0000 0.7818
vn 0.2225 0.0000 0.9749
vn -0.2225 0.0000 0.9749
vn -0.6235 0.0000 0.7818
vn -0.9010 0.0000 0.4339
vn -1.0000 0.0000 0.0000
vn -0.9010 0.0000 -0.4339
vn -0.6235 0.0000 -0.7818
vn -0.2225 0.0000 -0.9749
vn 0.0000 -1.0000 0.0000
vn 0.0000 1.0000 -0.0000
vn -0.9854 0.0000 -0.1705
vn 0.1705 0.0000 -0.9854
vn 0.9854 0.0000 0.1705
vn -0.1705 0.0000 0.9854
vn -0.9534 0.0000 0.3016
vn -0.3016 0.0000 -0.9534
vn 0.9534 0.0000 -0.3016
vn 0.3016 0.0000 0.9534
vn 0.9825 0.0000 0.1862
vn -0.1862 0.0000 0.9825
vn -0.9825 0.0000 -0.1862
vn 0.1862 0.0000 -0.9825
vn 0.9581 0.0000 -0.2865
vn 0.2865 0.0000 0.9581
vn -0.9581 0.0000 0.2864
vn -0.2864 0.0000 -0.9581
vn 0.4065 0.0000 -0.9136
vn 0.9136 0.0000 0.4065
vn -0.4065 0.0000 0.9136
vn -0.9136 0.0000 -0.4065
vn 0.0460 0.0000 -0.9989
vn 0.9989 0.0000 0.0460
vn -0.0460 0.0000 0.9989
vn -0.9989 0.0000 -0.0460
vn -0.4861 0.0000 -0.8739
vn 0.8739 0.0000 -0.4861
vn 0.4861 0.0000 0.8739
vn -0.8739 0.0000 0.4861
vn -0.8248 0.0000 -0.5655
vn 0.5654 0.0000 -0.8248
vn 0.8248 0.0000 0.5655
vn -0.5655 0.0000 0.8248
vn 0.8285 0.0000 -0.5600
vn 0.5600 0.0000 0.8285
vn -0.8285 0.0000 0.5600
vn -0.5600 0.0000 -0.8285
vn 0.7804 0.0000 0.6253
vn -0.6253 0.0000 0.7804
vn -0.7804 0.0000 -0.6253
vn 0.6253 0.0000 -0.7804
vn 0.4547 0.0000 0.8907
vn -0.8907 0.0000 0.4547
vn -0.4547 0.0000 -0.8907
vn 0.8907 0.0000 -0.4547
vn -0.0042 0.0000 1.0000
vn -1.0000 0.0000 -0.0042
vn 0.0042 0.0000 -1.0000
vn 1.0000 0.0000 0.0042
vn -0.4767 0.0000 0.8791
vn -0.8791 0.0000 -0.4767
vn 0.4767 0.0000 -0.8791
vn 0.8791 0.0000 0.4767
vn -0.7487 0.0000 0.6630
vn -0.6630 0.0000 -0.7487
vn 0.7487 0.0000 -0.6630
vn 0.6630 0.0000 0.7487
usemtl None
s off
f 1/1/1 30/2/1 29/3/1 3/4/1
f 3/4/2 29/3/2 31/5/2 5/6/2
f 5/6/3 31/5/3 32/7/3 7/8/3
f 7/8/4 32/7/4 33/9/4 9/10/4
f 9/10/5 33/9/5 34/11/5 11/12/5
f 11/12/6 34/11/6 35/13/6 13/14/6
f 13/14/7 35/13/7 36/15/7 15/16/7
f 15/16/8 36/15/8 37/17/8 17/18/8
f 17/18/9 37/17/9 38/19/9 19/20/9
f 19/20/10 38/19/10 39/21/10 21/22/10
f 21/22/11 39/21/11 40/23/11 23/24/11
f 23/24/12 40/23/12 41/25/12 25/26/12
f 6/27/9 4/28/9 43/29/9 45/30/9
f 25/26/13 41/25/13 42/31/13 27/32/13
f 27/32/14 42/31/14 30/33/14 1/34/14
f 1/35/15 3/36/15 5/37/15 7/38/15 9/39/15 11/40/15 13/41/15 15/42/15 17/43/15 19/44/15 21/45/15 23/46/15 25/47/15 27/48/15
f 2/49/16 4/28/16 29/50/16 30/51/16
f 4/28/16 6/27/16 31/52/16 29/50/16
f 6/27/16 8/53/16 32/54/16 31/52/16
f 8/53/16 10/55/16 33/56/16 32/54/16
f 10/55/16 12/57/16 34/58/16 33/56/16
f 12/57/16 14/59/16 35/60/16 34/58/16
f 14/59/16 16/61/16 36/62/16 35/60/16
f 16/61/16 18/63/16 37/64/16 36/62/16
f 18/63/16 20/65/16 38/66/16 37/64/16
f 20/65/16 22/67/16 39/68/16 38/66/16
f 22/67/16 24/69/16 40/70/16 39/68/16
f 24/69/16 26/71/16 41/72/16 40/70/16
f 26/71/16 28/73/16 42/74/16 41/72/16
f 28/73/16 2/49/16 30/51/16 42/74/16
f 43/29/16 44/75/16 56/76/16 55/77/16 54/78/16 53/79/16 52/80/16 51/81/16 50/82/16 49/83/16 48/84/16 47/85/16 46/86/16 45/30/16
f 22/67/3 20/65/3 52/80/3 53/79/3
f 8/53/10 6/27/10 45/30/10 46/86/10
f 24/69/4 22/67/4 53/79/4 54/78/4
f 10/55/11 8/53/11 46/86/11 47/85/11
f 26/71/5 24/69/5 54/78/5 55/77/5
f 12/57/12 10/55/12 47/85/12 48/84/12
f 28/73/6 26/71/6 55/77/6 56/76/6
f 14/59/13 12/57/13 48/84/13 49/83/13
f 2/49/7 28/73/7 56/76/7 44/75/7
f 16/61/14 14/59/14 49/83/14 50/82/14
f 18/63/1 16/61/1 50/82/1 51/81/1
f 4/28/8 2/49/8 44/75/8 43/29/8
f 20/65/2 18/63/2 51/81/2 52/80/2
f 57/87/17 58/88/17 60/89/17 59/90/17
f 59/90/18 60/89/18 64/91/18 63/92/18
f 63/92/19 64/91/19 62/93/19 61/94/19
f 61/94/20 62/93/20 58/95/20 57/96/20
f 59/97/15 63/92/15 61/94/15 57/98/15
f 64/91/16 60/99/16 58/100/16 62/93/16
f 65/101/21 66/102/21 68/103/21 67/104/21
f 67/104/22 68/103/22 72/105/22 71/106/22
f 71/106/23 72/105/23 70/107/23 69/108/23
f 69/108/24 70/107/24 66/109/24 65/110/24
f 67/111/15 71/106/15 69/108/15 65/112/15
f 72/105/16 68/113/16 66/114/16 70/107/16
f 73/115/25 74/116/25 76/117/25 75/118/25
f 75/118/26 76/117/26 80/119/26 79/120/26
f 79/120/27 80/119/27 78/121/27 77/122/27
f 77/122/28 78/121/28 74/123/28 73/124/28
f 75/125/15 79/120/15 77/122/15 73/126/15
f 80/119/16 76/127/16 74/128/16 78/121/16
f 81/129/29 82/130/29 84/131/29 83/132/29
f 83/132/30 84/131/30 88/133/30 87/134/30
f 87/134/31 88/133/31 86/135/31 85/136/31
f 85/136/32 86/135/32 82/137/32 81/138/32
f 83/139/15 87/134/15 85/136/15 81/140/15
f 88/133/16 84/141/16 82/142/16 86/135/16
f 89/143/33 90/144/33 92/145/33 91/146/33
f 91/146/34 92/145/34 96/147/34 95/148/34
f 95/148/35 96/147/35 94/149/35 93/150/35
f 93/150/36 94/149/36 90/151/36 89/152/36
f 91/153/15 95/148/15 93/150/15 89/154/15
f 96/147/16 92/155/16 90/156/16 94/149/16
f 97/157/37 98/158/37 100/159/37 99/160/37
f 99/160/38 100/159/38 104/161/38 103/162/38
f 103/162/39 104/161/39 102/163/39 101/164/39
f 101/164/40 102/163/40 98/165/40 97/166/40
f 99/167/15 103/162/15 101/164/15 97/168/15
f 104/161/16 100/169/16 98/170/16 102/163/16
f 105/171/41 106/172/41 108/173/41 107/174/41
f 107/174/42 108/173/42 112/175/42 111/176/42
f 111/176/43 112/175/43 110/177/43 109/178/43
f 109/178/44 110/177/44 106/179/44 105/180/44
f 107/181/15 111/176/15 109/178/15 105/182/15
f 112/175/16 108/183/16 106/184/16 110/177/16
f 113/185/45 114/186/45 116/187/45 115/188/45
f 115/188/46 116/187/46 120/189/46 119/190/46
f 119/190/47 120/189/47 118/191/47 117/192/47
f 117/192/48 118/191/48 114/193/48 113/194/48
f 115/195/15 119/190/15 117/192/15 113/196/15
f 120/189/16 116/197/16 114/198/16 118/191/16
f 121/199/49 122/200/49 124/201/49 123/202/49
f 123/202/50 124/201/50 128/203/50 127/204/50
f 127/204/51 128/203/51 126/205/51 125/206/51
f 125/206/52 126/205/52 122/207/52 121/208/52
f 123/209/15 127/204/15 125/206/15 121/210/15
f 128/203/16 124/211/16 122/212/16 126/205/16
f 129/213/53 130/214/53 132/215/53 131/216/53
f 131/216/54 132/215/54 136/217/54 135/218/54
f 135/218/55 136/217/55 134/219/55 133/220/55
f 133/220/56 134/219/56 130/221/56 129/222/56
f 131/223/15 135/218/15 133/220/15 129/224/15
f 136/217/16 132/225/16 130/226/16 134/219/16
f 137/227/57 138/228/57 140/229/57 139/230/57
f 139/230/58 140/229/58 144/231/58 143/232/58
f 143/232/59 144/231/59 142/233/59 141/234/59
f 141/234/60 142/233/60 138/235/60 137/236/60
f 139/237/15 143/232/15 141/234/15 137/238/15
f 144/231/16 140/239/16 138/240/16 142/233/16
f 145/241/61 146/242/61 148/243/61 147/244/61
f 147/244/62 148/243/62 152/245/62 151/246/62
f 151/246/63 152/245/63 150/247/63 149/248/63
f 149/248/64 150/247/64 146/249/64 145/250/64
f 147/251/15 151/246/15 149/248/15 145/252/15
f 152/245/16 148/253/16 146/254/16 150/247/16
f 153/255/65 154/256/65 156/257/65 155/258/65
f 155/258/66 156/257/66 160/259/66 159/260/66
f 159/260/67 160/259/67 158/261/67 157/262/67
f 157/262/68 158/261/68 154/263/68 153/264/68
f 155/265/15 159/260/15 157/262/15 153/266/15
f 160/259/16 156/267/16 154/268/16 158/261/16
f 161/269/69 162/270/69 164/271/69 163/272/69
f 163/272/70 164/271/70 168/273/70 167/274/70
f 167/274/71 168/273/71 166/275/71 165/276/71
f 165/276/72 166/275/72 162/277/72 161/278/72
f 163/279/15 167/274/15 165/276/15 161/280/15
f 168/273/16 164/281/16 162/282/16 166/275/16
