# Blender v2.81 (sub 16) OBJ File: 'AllMODULE.blend'
# www.blender.org
mtllib WALL1.mtl
o Cube.029_Cube.034
v 21.039948 0.000000 71.193764
v 21.039948 10.000000 71.193764
v 21.039948 0.000000 61.193764
v 21.039948 10.000000 61.193764
v 23.039948 0.000000 71.193764
v 23.039948 10.000000 71.193764
v 23.039948 0.000000 61.193764
v 23.039948 10.000000 61.193764
v 21.039948 8.821016 71.193764
v 21.039948 8.821016 61.193764
v 23.039948 8.821016 61.193764
v 23.039948 8.821016 71.193764
v 20.662756 8.821016 71.193764
v 20.662756 10.000000 71.193764
v 20.662756 10.000000 61.193764
v 23.417139 10.000000 61.193764
v 23.417139 10.000000 71.193764
v 20.662756 8.821016 61.193764
v 23.417139 8.821016 61.193764
v 23.417139 8.821016 71.193764
vt 0.660025 0.440859
vt 0.660025 0.499749
vt 0.640841 0.499749
vt 0.640841 0.440859
vt 0.621155 0.440859
vt 0.621155 0.499749
vt 0.519435 0.499749
vt 0.519435 0.440859
vt 0.500251 0.499749
vt 0.500251 0.440859
vt 0.761745 0.440859
vt 0.761745 0.499749
vt 0.601971 0.999749
vt 0.500251 0.999749
vt 0.500251 0.500251
vt 0.601971 0.500251
vt 0.800614 0.000251
vt 0.902335 0.000251
vt 0.902335 0.499749
vt 0.800615 0.499749
vt 0.761745 0.000251
vt 0.660025 0.000251
vt 0.499749 0.000251
vt 0.499749 0.448889
vt 0.000251 0.448889
vt 0.000251 0.000251
vt 0.621155 0.000251
vt 0.519435 0.000251
vt 0.000251 0.898029
vt 0.000251 0.449391
vt 0.499749 0.449391
vt 0.499749 0.898029
vt 0.922020 0.000251
vt 0.981984 0.000251
vt 0.981984 0.499749
vt 0.922020 0.499749
vt 0.700804 0.999749
vt 0.640841 0.999749
vt 0.640841 0.500251
vt 0.700804 0.500251
vt 0.781430 0.999749
vt 0.781431 0.500251
vt 0.800615 0.500251
vt 0.800615 0.999749
vt 0.781431 0.499749
vt 0.781430 0.000251
vt 0.640339 0.500251
vt 0.640339 0.999749
vt 0.621155 0.999749
vt 0.621155 0.500251
vt 0.780929 0.440859
vt 0.780929 0.499749
vt 0.921519 0.000251
vt 0.921519 0.499749
vt 0.640339 0.440859
vt 0.640339 0.499749
vn 0.0000 0.0000 1.0000
vn 0.0000 0.0000 -1.0000
vn 0.0000 -1.0000 0.0000
vn 0.0000 1.0000 0.0000
vn 1.0000 0.0000 0.0000
vn -1.0000 0.0000 0.0000
usemtl None
s off
f 9/1/1 2/2/1 14/3/1 13/4/1
f 10/5/2 4/6/2 8/7/2 11/8/2
f 11/8/2 8/7/2 16/9/2 19/10/2
f 12/11/1 6/12/1 2/2/1 9/1/1
f 3/13/3 7/14/3 5/15/3 1/16/3
f 8/17/4 4/18/4 2/19/4 6/20/4
f 5/21/1 12/11/1 9/1/1 1/22/1
f 7/23/5 11/24/5 12/25/5 5/26/5
f 3/27/2 10/5/2 11/8/2 7/28/2
f 1/29/6 9/30/6 10/31/6 3/32/6
f 13/33/6 14/34/6 15/35/6 18/36/6
f 19/37/5 16/38/5 17/39/5 20/40/5
f 10/41/3 9/42/3 13/43/3 18/44/3
f 8/17/4 6/20/4 17/45/4 16/46/4
f 12/47/3 11/48/3 19/49/3 20/50/3
f 6/12/1 12/11/1 20/51/1 17/52/1
f 2/19/4 4/18/4 15/53/4 14/54/4
f 4/6/2 10/5/2 18/55/2 15/56/2
