# Blender v2.81 (sub 16) OBJ File: 'AllMODULE (2).blend'
# www.blender.org
mtllib 555555.mtl
o Cube.161_Cube.165
v -6.634090 20.000000 98.498772
v -6.634090 30.000000 98.498772
v -6.634090 20.000000 78.498772
v -6.634090 30.000000 78.498772
v 13.365910 20.000000 98.498772
v 13.365910 30.000000 98.498772
v 13.365910 20.000000 78.498772
v 13.365910 30.000000 78.498772
v -6.634090 20.000000 91.356522
v -6.634090 20.000000 96.253548
v -6.634090 30.000000 96.253548
v -6.634090 30.000000 91.356522
v 13.365910 20.000000 96.253548
v 13.365910 20.000000 91.356522
v 13.365910 30.000000 91.356522
v 13.365910 30.000000 96.253548
v -6.634090 23.367249 98.498772
v -6.634090 28.962593 98.498772
v -6.634090 28.962593 78.498772
v -6.634090 23.367249 78.498772
v 13.365910 28.962593 78.498772
v 13.365910 23.367249 78.498772
v 13.365910 28.962593 98.498772
v 13.365910 23.367249 98.498772
v 13.365910 28.962593 91.356522
v 13.365910 23.367249 91.356522
v 13.365910 28.962593 96.253548
v 13.365910 23.367249 96.253548
v -6.634090 28.962593 96.253548
v -6.634090 23.367249 96.253548
v -6.634090 28.962593 91.356522
v -6.634090 23.367249 91.356522
v -6.634090 30.000000 86.084335
v -6.634090 30.000000 79.843575
v 13.365910 20.000000 86.084335
v 13.365910 20.000000 79.843575
v -6.634090 20.000000 79.843575
v -6.634090 20.000000 86.084335
v 13.365910 30.000000 79.843575
v 13.365910 30.000000 86.084335
v 13.365910 23.367249 79.843575
v 13.365910 23.367249 86.084335
v 13.365910 28.962593 79.843575
v 13.365910 28.962593 86.084335
v -6.634090 23.367249 86.084335
v -6.634090 23.367249 79.843575
v -6.634090 28.962593 86.084335
v -6.634090 28.962593 79.843575
v -6.634090 26.349382 98.498772
v -6.634090 26.349382 78.498772
v 13.365910 26.349382 78.498772
v 13.365910 26.349382 98.498772
v 13.365910 26.349382 91.356522
v 13.365910 26.349382 96.253548
v -6.634090 26.349382 96.253548
v -6.634090 26.349382 91.356522
v -6.634090 26.349382 86.084335
v -6.634090 26.349382 79.843575
v 13.365910 26.349382 79.843575
v 13.365910 26.349382 86.084335
v 12.875341 23.367249 79.843575
v 12.875341 23.367249 86.084335
v 12.875341 28.962593 79.843575
v 12.875341 28.962593 86.084335
v 12.875341 26.349382 79.843575
v 12.875341 26.349382 86.084335
v 1.412793 20.000000 78.498772
v -5.253874 20.000000 78.498772
v -5.253874 30.000000 78.498772
v 1.412793 30.000000 78.498772
v -5.253874 20.000000 98.498772
v 1.412793 20.000000 98.498772
v 1.412793 30.000000 98.498772
v -5.253874 30.000000 98.498772
v -5.253874 30.000000 91.356522
v 1.412793 30.000000 91.356522
v -5.253874 30.000000 96.253548
v 1.412793 30.000000 96.253548
v 1.412793 20.000000 91.356522
v -5.253874 20.000000 91.356522
v 1.412793 20.000000 96.253548
v -5.253874 20.000000 96.253548
v 1.412793 23.367249 98.498772
v -5.253874 23.367249 98.498772
v 1.412793 28.962593 98.498772
v -5.253874 28.962593 98.498772
v -5.253874 23.367249 78.498772
v 1.412793 23.367249 78.498772
v -5.253874 28.962593 78.498772
v 1.412793 28.962593 78.498772
v 1.412793 20.000000 79.843575
v -5.253874 20.000000 79.843575
v 1.412793 20.000000 86.084335
v -5.253874 20.000000 86.084335
v -5.253874 30.000000 79.843575
v 1.412793 30.000000 79.843575
v -5.253874 30.000000 86.084335
v 1.412793 30.000000 86.084335
v -5.253874 26.349382 78.498772
v 1.412793 26.349382 78.498772
v 1.412793 26.349382 98.498772
v -5.253874 26.349382 98.498772
v 1.412793 23.367249 98.267250
v -5.253874 23.367249 98.267250
v 1.412793 28.962593 98.267250
v -5.253874 28.962593 98.267250
v 1.412793 26.349382 98.267250
v -5.253874 26.349382 98.267250
v -6.634090 29.481297 98.498772
v -6.634090 29.481297 78.498772
v 13.365910 29.481297 78.498772
v 13.365910 29.481297 98.498772
v 13.365910 29.481297 91.356522
v 13.365910 29.481297 96.253548
v -6.634090 29.481297 96.253548
v -6.634090 29.481297 91.356522
v 13.365910 29.481297 79.843575
v 13.365910 29.481297 86.084335
v -6.634090 29.481297 86.084335
v -6.634090 29.481297 79.843575
v 1.412793 29.481297 98.498772
v -5.253874 29.481297 98.498772
v -5.253874 29.481297 78.498772
v 1.412793 29.481297 78.498772
v -6.634090 29.481297 99.269417
v -6.634090 30.000000 99.269417
v 14.136554 30.000000 96.253548
v 14.136555 30.000000 99.269417
v -5.253874 30.000000 99.269417
v 14.136554 30.000000 86.084335
v 14.136554 30.000000 91.356522
v 14.136554 30.000000 78.498772
v 14.136554 30.000000 79.843575
v 1.412793 30.000000 99.269417
v 14.136554 29.481297 78.498772
v 14.136555 29.481297 99.269417
v 14.136554 29.481297 91.356522
v 14.136554 29.481297 96.253548
v 14.136554 29.481297 79.843575
v 14.136554 29.481297 86.084335
v 1.412793 29.481297 99.269417
v -5.253874 29.481297 99.269417
v 12.830997 30.000000 78.498772
v 12.830997 20.000000 98.498772
v 12.830997 30.000000 91.356522
v 12.830997 30.000000 96.253548
v 12.830997 23.367249 78.498772
v 12.830997 28.962593 78.498772
v 12.830997 30.000000 79.843575
v 12.830997 30.000000 86.084335
v 12.830997 26.349382 78.498772
v 12.830997 20.000000 78.498772
v 12.830997 30.000000 98.498772
v 12.830997 20.000000 91.356522
v 12.830997 20.000000 96.253548
v 12.830997 23.367249 98.498772
v 12.830997 28.962593 98.498772
v 12.830997 20.000000 79.843575
v 12.830997 20.000000 86.084335
v 12.830997 26.349382 98.498772
v 12.830997 29.481297 98.498772
v 12.830997 29.481297 78.498772
v 13.567156 30.000000 99.269417
v 13.567156 29.481297 99.269417
v -6.634090 20.000000 97.917549
v 13.365910 30.000000 97.917549
v -6.634090 30.000000 97.917549
v 13.365910 20.000000 97.917549
v -6.634090 23.367249 97.917549
v -6.634090 28.962593 97.917549
v 13.365910 23.367249 97.917549
v 13.365910 28.962593 97.917549
v 13.365910 26.349382 97.917549
v -6.634090 26.349382 97.917549
v 1.412793 30.000000 97.917549
v -5.253874 30.000000 97.917549
v -5.253874 20.000000 97.917549
v 1.412793 20.000000 97.917549
v -6.634090 29.481297 97.917549
v 13.365910 29.481297 97.917549
v 14.136555 30.000000 98.488693
v 14.136555 29.481297 98.488693
v 12.830997 30.000000 97.917549
v 12.830997 20.000000 97.917549
v 12.830997 31.263294 78.498772
v 13.365910 31.263294 78.498772
v 13.365910 31.263294 97.917549
v 13.365910 31.263294 98.498772
v -5.253874 31.263294 98.498772
v -6.634090 31.263294 98.498772
v 13.365910 31.263294 86.084335
v 13.365910 31.263294 91.356522
v 13.365910 31.263294 96.253548
v 12.830997 31.263294 91.356522
v 12.830997 31.263294 96.253548
v 13.365910 31.263294 79.843575
v 12.830997 31.263294 79.843575
v 12.830997 31.263294 86.084335
v 12.830997 31.263294 98.498772
v 1.412793 31.263294 98.498772
v 1.412793 31.263294 97.917549
v -5.253874 31.263294 97.917549
v 12.830997 31.263294 97.917549
v -6.634090 31.263294 97.917549
vt 0.583333 0.201587
vt 0.625000 0.201587
vt 0.625000 0.250000
vt 0.583333 0.250000
vt 0.583333 0.493314
vt 0.625000 0.493314
vt 0.625000 0.500000
vt 0.583333 0.500000
vt 0.625000 0.548413
vt 0.625000 0.548413
vt 0.625000 0.500000
vt 0.583333 0.500000
vt 0.368314 0.744453
vt 0.375000 0.744453
vt 0.375000 0.750000
vt 0.368314 0.750000
vt 0.631686 0.596825
vt 0.631686 0.645238
vt 0.631686 0.645238
vt 0.631686 0.596825
vt 0.857747 0.596825
vt 0.875000 0.596825
vt 0.875000 0.645238
vt 0.857747 0.645238
vt 0.875000 0.728571
vt 0.857747 0.728571
vt 0.368314 0.596825
vt 0.375000 0.596825
vt 0.375000 0.645238
vt 0.368314 0.645238
vt 0.375000 0.728571
vt 0.368314 0.728571
vt 0.625000 0.645238
vt 0.625000 0.728571
vt 0.625000 0.728571
vt 0.625000 0.645238
vt 0.857747 0.750000
vt 0.875000 0.750000
vt 0.875000 0.750000
vt 0.857747 0.750000
vt 0.583333 0.005547
vt 0.625000 0.005547
vt 0.625000 0.021429
vt 0.583333 0.021429
vt 0.625000 0.104762
vt 0.583333 0.104762
vt 0.375000 0.021429
vt 0.458333 0.021429
vt 0.458333 0.104762
vt 0.375000 0.104762
vt 0.502747 0.021429
vt 0.541667 0.021429
vt 0.541667 0.104762
vt 0.502747 0.104762
vt 0.375000 0.005547
vt 0.458333 0.005547
vt 0.502747 0.005547
vt 0.541667 0.005547
vt 0.502747 0.645238
vt 0.541667 0.645238
vt 0.541667 0.728571
vt 0.502747 0.728571
vt 0.458333 0.596825
vt 0.458333 0.645238
vt 0.502747 0.596825
vt 0.541667 0.596825
vt 0.375000 0.982747
vt 0.458333 0.982747
vt 0.458333 1.000000
vt 0.375000 1.000000
vt 0.502747 0.982747
vt 0.541667 0.982747
vt 0.541667 1.000000
vt 0.502747 1.000000
vt 0.458333 0.744453
vt 0.458333 0.750000
vt 0.502747 0.744453
vt 0.541667 0.744453
vt 0.541667 0.750000
vt 0.502747 0.750000
vt 0.375000 0.493314
vt 0.458333 0.493314
vt 0.458333 0.500000
vt 0.375000 0.500000
vt 0.502747 0.493314
vt 0.541667 0.493314
vt 0.541667 0.500000
vt 0.502747 0.500000
vt 0.375000 0.201587
vt 0.458333 0.201587
vt 0.458333 0.250000
vt 0.375000 0.250000
vt 0.502747 0.201587
vt 0.541667 0.201587
vt 0.541667 0.250000
vt 0.502747 0.250000
vt 0.541667 0.153175
vt 0.502747 0.153175
vt 0.458333 0.153175
vt 0.375000 0.153175
vt 0.541667 0.548413
vt 0.502747 0.548413
vt 0.458333 0.548413
vt 0.502747 0.548413
vt 0.541667 0.548413
vt 0.541667 0.596825
vt 0.502747 0.596825
vt 0.458333 0.596825
vt 0.458333 0.548413
vt 0.375000 0.548413
vt 0.583333 0.548413
vt 0.583333 0.548413
vt 0.625000 0.596825
vt 0.625000 0.596825
vt 0.368314 0.500000
vt 0.368314 0.548413
vt 0.857747 0.500000
vt 0.875000 0.500000
vt 0.875000 0.548413
vt 0.857747 0.548413
vt 0.625000 0.153175
vt 0.583333 0.153175
vt 0.458333 0.728571
vt 0.458333 0.756686
vt 0.502747 0.756686
vt 0.502747 0.899414
vt 0.458333 0.899414
vt 0.541667 0.899414
vt 0.541667 0.899414
vt 0.502747 0.899414
vt 0.502747 0.267253
vt 0.458333 0.267253
vt 0.502747 0.350586
vt 0.458333 0.350586
vt 0.631686 0.548413
vt 0.774414 0.548412
vt 0.774414 0.596825
vt 0.631686 0.500000
vt 0.774414 0.500000
vt 0.125000 0.548413
vt 0.142253 0.548413
vt 0.142253 0.596825
vt 0.125000 0.596825
vt 0.225586 0.548412
vt 0.225586 0.596825
vt 0.125000 0.500000
vt 0.142253 0.500000
vt 0.225586 0.500000
vt 0.541667 0.267253
vt 0.541667 0.350586
vt 0.375000 0.267253
vt 0.375000 0.350586
vt 0.541667 0.756686
vt 0.458333 0.899414
vt 0.541667 0.982747
vt 0.502747 0.982747
vt 0.458333 0.982747
vt 0.375000 0.756686
vt 0.375000 0.899414
vt 0.125000 0.645238
vt 0.142253 0.645238
vt 0.142253 0.728571
vt 0.125000 0.728571
vt 0.225586 0.645237
vt 0.225586 0.728571
vt 0.774414 0.645237
vt 0.774414 0.728571
vt 0.631686 0.728571
vt 0.774414 0.750000
vt 0.774414 0.750000
vt 0.857747 0.750000
vt 0.625000 0.750000
vt 0.625000 0.744453
vt 0.625000 0.744453
vt 0.625000 0.750000
vt 0.125000 0.744453
vt 0.142253 0.744453
vt 0.142253 0.750000
vt 0.125000 0.750000
vt 0.225586 0.744453
vt 0.225586 0.750000
vt 0.583333 0.596825
vt 0.583333 0.596825
vt 0.583333 0.744453
vt 0.583333 0.728571
vt 0.583333 0.728571
vt 0.583333 0.744453
vt 0.625000 0.267253
vt 0.583333 0.267253
vt 0.625000 0.350586
vt 0.583333 0.350586
vt 0.583333 0.899414
vt 0.583333 0.982747
vt 0.583333 0.756686
vt 0.583333 0.645238
vt 0.583333 1.000000
vt 0.583333 0.750000
vt 0.625000 0.744453
vt 0.625000 0.750000
vt 0.583333 0.750000
vt 0.583333 0.982747
vt 0.625000 0.982747
vt 0.625000 1.000000
vt 0.583333 1.000000
vt 0.583333 0.645238
vt 0.583333 0.756686
vt 0.625000 0.756686
vt 0.625000 0.899414
vt 0.583333 0.899414
vt 0.631686 0.750000
vt 0.774414 0.750000
vt 0.631686 0.750000
vt 0.625000 0.000000
vt 0.583333 0.000000
vt 0.583333 0.000000
vt 0.625000 0.000000
vt 0.631686 0.548413
vt 0.631686 0.750000
vt 0.631686 0.744453
vt 0.631686 0.744453
vt 0.631686 0.728571
vt 0.625000 0.548413
vt 0.625000 0.596825
vt 0.631686 0.500000
vt 0.541667 0.000000
vt 0.857747 0.744453
vt 0.774414 0.744453
vt 0.458333 0.000000
vt 0.502747 0.000000
vt 0.375000 0.000000
vt 0.875000 0.744453
vt 0.857747 0.744453
vt 0.875000 0.744453
vt 0.875000 0.750000
vt 0.774414 0.744453
vt 0.625000 0.645238
vt 0.625000 0.728571
vt 0.625000 0.500000
vt 0.625000 0.493314
vt 0.625000 0.000000
vt 0.625000 0.005547
vn -1.0000 0.0000 0.0000
vn 0.0000 0.0000 -1.0000
vn 0.0000 1.0000 0.0000
vn 0.0000 -1.0000 0.0000
vn 1.0000 0.0000 0.0000
vn 0.0000 0.0000 1.0000
usemtl None
s off
f 120/1/1 34/2/1 4/3/1 110/4/1
f 162/5/2 143/6/2 8/7/2 111/8/2
f 8/7/3 39/9/3 133/10/3 132/11/3
f 111/8/2 8/7/2 132/11/2 135/12/2
f 184/13/4 168/14/4 5/15/4 144/16/4
f 150/17/1 145/18/1 194/19/1 198/20/1
f 97/21/3 33/22/3 12/23/3 75/24/3
f 75/24/3 12/23/3 11/25/3 77/26/3
f 159/27/4 35/28/4 14/29/4 154/30/4
f 154/30/4 14/29/4 13/31/4 155/32/4
f 15/33/3 16/34/3 127/35/3 131/36/3
f 74/37/3 2/38/3 126/39/3 129/40/3
f 179/41/1 167/42/1 11/43/1 115/44/1
f 115/44/1 11/43/1 12/45/1 116/46/1
f 10/47/1 30/48/1 32/49/1 9/50/1
f 55/51/1 29/52/1 31/53/1 56/54/1
f 165/55/1 169/56/1 30/48/1 10/47/1
f 174/57/1 170/58/1 29/52/1 55/51/1
f 53/59/5 25/60/5 27/61/5 54/62/5
f 35/28/5 42/63/5 26/64/5 14/29/5
f 60/65/5 44/66/5 25/60/5 53/59/5
f 71/67/6 84/68/6 17/69/6 1/70/6
f 102/71/6 86/72/6 18/73/6 49/74/6
f 168/14/5 171/75/5 24/76/5 5/15/5
f 173/77/5 172/78/5 23/79/5 52/80/5
f 152/81/2 147/82/2 22/83/2 7/84/2
f 151/85/2 148/86/2 21/87/2 51/88/2
f 37/89/1 46/90/1 20/91/1 3/92/1
f 58/93/1 48/94/1 19/95/1 50/96/1
f 56/54/1 31/53/1 47/97/1 57/98/1
f 57/98/1 47/97/1 48/94/1 58/93/1
f 9/50/1 32/49/1 45/99/1 38/100/1
f 38/100/1 45/99/1 46/90/1 37/89/1
f 51/88/5 21/87/5 43/101/5 59/102/5
f 61/103/5 65/104/5 63/105/5 64/106/5 66/107/5 62/108/5
f 7/84/5 22/83/5 41/109/5 36/110/5
f 36/110/5 41/109/5 42/63/5 35/28/5
f 117/111/4 111/8/4 135/12/4 139/112/4
f 40/113/3 15/33/3 131/36/3 130/114/3
f 152/115/4 7/84/4 36/110/4 158/116/4
f 158/116/4 36/110/4 35/28/4 159/27/4
f 69/117/3 4/118/3 34/119/3 95/120/3
f 95/120/3 34/119/3 33/22/3 97/21/3
f 116/46/1 12/45/1 33/121/1 119/122/1
f 119/122/1 33/121/1 34/2/1 120/1/1
f 59/102/6 43/101/6 63/105/6 65/104/6
f 22/83/5 51/88/5 59/102/5 41/109/5
f 45/99/1 57/98/1 58/93/1 46/90/1
f 32/49/1 56/54/1 57/98/1 45/99/1
f 46/90/1 58/93/1 50/96/1 20/91/1
f 147/82/2 151/85/2 51/88/2 22/83/2
f 171/75/5 173/77/5 52/80/5 24/76/5
f 84/68/6 102/71/6 49/74/6 17/69/6
f 42/63/5 60/65/5 53/59/5 26/64/5
f 169/56/1 174/57/1 55/51/1 30/48/1
f 30/48/1 55/51/1 56/54/1 32/49/1
f 13/31/5 14/29/5 26/64/5 28/123/5
f 28/123/5 26/64/5 53/59/5 54/62/5
f 43/101/4 44/66/4 64/106/4 63/105/4
f 42/63/3 41/109/3 61/103/3 62/108/3
f 41/109/6 59/102/6 65/104/6 61/103/6
f 44/66/2 60/65/2 66/107/2 64/106/2
f 60/65/2 42/63/2 62/108/2 66/107/2
f 156/124/6 160/125/6 101/126/6 83/127/6
f 101/126/1 85/128/1 105/129/1 107/130/1
f 20/91/2 50/96/2 99/131/2 87/132/2
f 87/132/2 99/131/2 100/133/2 88/134/2
f 149/135/3 96/136/3 98/137/3 150/17/3
f 96/136/3 95/120/3 97/21/3 98/137/3
f 143/138/3 70/139/3 96/136/3 149/135/3
f 70/139/3 69/117/3 95/120/3 96/136/3
f 37/140/4 92/141/4 94/142/4 38/143/4
f 92/141/4 91/144/4 93/145/4 94/142/4
f 3/146/4 68/147/4 92/141/4 37/140/4
f 68/147/4 67/148/4 91/144/4 92/141/4
f 50/96/2 19/95/2 89/149/2 99/131/2
f 99/131/2 89/149/2 90/150/2 100/133/2
f 3/92/2 20/91/2 87/132/2 68/151/2
f 68/151/2 87/132/2 88/134/2 67/152/2
f 160/125/6 157/153/6 85/128/6 101/126/6
f 103/154/6 107/130/6 105/129/6 106/155/6 108/156/6 104/157/6
f 144/158/6 156/124/6 83/127/6 72/159/6
f 72/159/6 83/127/6 84/68/6 71/67/6
f 9/160/4 80/161/4 82/162/4 10/163/4
f 80/161/4 79/164/4 81/165/4 82/162/4
f 38/143/4 94/142/4 80/161/4 9/160/4
f 94/142/4 93/145/4 79/164/4 80/161/4
f 145/18/3 76/166/3 78/167/3 146/168/3
f 76/166/3 75/24/3 77/26/3 78/167/3
f 150/17/3 98/137/3 76/166/3 145/18/3
f 98/137/3 97/21/3 75/24/3 76/166/3
f 74/37/6 73/169/6 200/170/6 189/171/6
f 6/172/5 166/173/5 187/174/5 188/175/5
f 165/176/4 177/177/4 71/178/4 1/179/4
f 177/177/4 178/180/4 72/181/4 71/178/4
f 118/182/4 117/111/4 139/112/4 140/183/4
f 180/184/4 114/185/4 138/186/4 182/187/4
f 110/4/2 4/3/2 69/188/2 123/189/2
f 123/189/2 69/188/2 70/190/2 124/191/2
f 83/127/1 101/126/1 107/130/1 103/154/1
f 85/128/4 86/72/4 106/155/4 105/129/4
f 84/68/3 83/127/3 103/154/3 104/157/3
f 102/71/5 84/68/5 104/157/5 108/156/5
f 86/72/5 102/71/5 108/156/5 106/155/5
f 89/149/2 123/189/2 124/191/2 90/150/2
f 19/95/2 110/4/2 123/189/2 89/149/2
f 85/128/6 121/192/6 122/193/6 86/72/6
f 157/153/6 161/194/6 121/192/6 85/128/6
f 47/97/1 119/122/1 120/1/1 48/94/1
f 31/53/1 116/46/1 119/122/1 47/97/1
f 43/101/5 117/111/5 118/182/5 44/66/5
f 21/87/5 111/8/5 117/111/5 43/101/5
f 29/52/1 115/44/1 116/46/1 31/53/1
f 170/58/1 179/41/1 115/44/1 29/52/1
f 25/60/5 113/195/5 114/185/5 27/61/5
f 44/66/5 118/182/5 113/195/5 25/60/5
f 86/72/6 122/193/6 109/196/6 18/73/6
f 172/78/5 180/184/5 112/197/5 23/79/5
f 148/86/2 162/5/2 111/8/2 21/87/2
f 48/94/1 120/1/1 110/4/1 19/95/1
f 182/187/5 181/198/5 128/199/5 136/200/5
f 142/201/6 129/202/6 126/203/6 125/204/6
f 140/183/5 130/114/5 131/36/5 137/205/5
f 137/205/5 131/36/5 127/35/5 138/186/5
f 135/12/5 132/11/5 133/10/5 139/112/5
f 139/112/5 133/10/5 130/114/5 140/183/5
f 164/206/6 163/207/6 134/208/6 141/209/6
f 141/209/6 134/208/6 129/202/6 142/201/6
f 122/193/4 121/192/4 141/209/4 142/201/4
f 114/185/4 113/195/4 137/205/4 138/186/4
f 39/9/3 40/113/3 130/114/3 133/10/3
f 161/194/4 112/197/4 136/200/4 164/206/4
f 153/210/3 73/169/3 134/211/3 163/212/3
f 113/195/4 118/182/4 140/183/4 137/205/4
f 166/173/3 6/172/3 128/199/3 181/198/3
f 73/169/3 74/37/3 129/40/3 134/211/3
f 2/213/1 109/214/1 125/215/1 126/216/1
f 109/196/4 122/193/4 142/201/4 125/204/4
f 6/172/3 153/210/3 163/212/3 128/199/3
f 121/192/4 161/194/4 164/206/4 141/209/4
f 136/200/6 128/199/6 163/207/6 164/206/6
f 90/150/2 124/191/2 162/5/2 148/86/2
f 23/79/6 112/197/6 161/194/6 157/153/6
f 149/135/1 150/17/1 198/20/1 197/217/1
f 73/169/6 153/210/6 199/218/6 200/170/6
f 146/168/1 183/219/1 203/220/1 195/221/1
f 5/15/6 24/76/6 156/124/6 144/158/6
f 52/80/6 23/79/6 157/153/6 160/125/6
f 40/113/5 39/9/5 196/222/5 191/223/5
f 153/210/6 6/172/6 188/175/6 199/218/6
f 24/76/6 52/80/6 160/125/6 156/124/6
f 88/134/2 100/133/2 151/85/2 147/82/2
f 91/144/4 158/116/4 159/27/4 93/145/4
f 67/148/4 152/115/4 158/116/4 91/144/4
f 100/133/2 90/150/2 148/86/2 151/85/2
f 67/152/2 88/134/2 147/82/2 152/81/2
f 79/164/4 154/30/4 155/32/4 81/165/4
f 93/145/4 159/27/4 154/30/4 79/164/4
f 178/180/4 184/13/4 144/16/4 72/181/4
f 124/191/2 70/190/2 143/6/2 162/5/2
f 81/165/4 155/32/4 184/13/4 178/180/4
f 143/138/1 149/135/1 197/217/1 185/224/1
f 16/34/3 166/173/3 181/198/3 127/35/3
f 138/186/5 127/35/5 181/198/5 182/187/5
f 27/61/5 114/185/5 180/184/5 172/78/5
f 18/225/1 109/214/1 179/41/1 170/58/1
f 112/197/4 180/184/4 182/187/4 136/200/4
f 82/162/4 81/165/4 178/180/4 177/177/4
f 10/163/4 82/162/4 177/177/4 165/176/4
f 78/167/3 77/26/3 176/226/3 175/227/3
f 146/168/3 78/167/3 175/227/3 183/219/3
f 17/228/1 49/229/1 174/57/1 169/56/1
f 28/123/5 54/62/5 173/77/5 171/75/5
f 54/62/5 27/61/5 172/78/5 173/77/5
f 13/31/5 28/123/5 171/75/5 168/14/5
f 49/229/1 18/225/1 170/58/1 174/57/1
f 1/230/1 17/228/1 169/56/1 165/55/1
f 109/214/1 2/213/1 167/42/1 179/41/1
f 77/26/3 11/25/3 167/231/3 176/226/3
f 155/32/4 13/31/4 168/14/4 184/13/4
f 202/232/3 204/233/3 190/234/3 189/171/3
f 203/220/3 201/235/3 200/170/3 199/218/3
f 201/235/3 202/232/3 189/171/3 200/170/3
f 187/174/3 203/220/3 199/218/3 188/175/3
f 191/223/3 198/20/3 194/19/3 192/236/3
f 192/236/3 194/19/3 195/221/3 193/237/3
f 186/238/3 185/224/3 197/217/3 196/222/3
f 196/222/3 197/217/3 198/20/3 191/223/3
f 193/237/3 195/221/3 203/220/3 187/174/3
f 175/227/2 176/226/2 202/232/2 201/235/2
f 15/33/5 40/113/5 191/223/5 192/236/5
f 145/18/1 146/168/1 195/221/1 194/19/1
f 2/38/6 74/37/6 189/171/6 190/234/6
f 183/219/2 175/227/2 201/235/2 203/220/2
f 16/34/5 15/33/5 192/236/5 193/237/5
f 176/226/2 167/231/2 204/233/2 202/232/2
f 166/173/5 16/34/5 193/237/5 187/174/5
f 8/7/2 143/6/2 185/239/2 186/238/2
f 167/42/1 2/213/1 190/240/1 204/241/1
f 39/9/5 8/7/5 186/238/5 196/222/5
